<svg width="270" height="73" viewBox="0 0 270 73" fill="none" xmlns="http://www.w3.org/2000/svg">
<path d="M24.4344 73H245.566L270 36.5L245.566 -2.98023e-06H24.4344L0 36.5L24.4344 73Z" fill="#F7B539"/>
<path d="M239.601 68.2881L262.124 36.5L239.601 4.71191H30.3983L7.87585 36.5L30.3983 68.2881H239.601Z" fill="#F5DCAC" stroke="black" stroke-width="2"/>
<mask id="path-3-inside-1_2307_198" fill="white">
<path d="M22.1798 36.4072L13.8985 25.8922L5.64577 36.3708L13.9271 46.8858L22.1798 36.4072Z"/>
</mask>
<path d="M22.1798 36.4072L13.8985 25.8922L5.64577 36.3708L13.9271 46.8858L22.1798 36.4072Z" fill="#F7B539"/>
<path d="M22.1798 36.4072L23.4173 34.836L24.6547 36.4072L23.4173 37.9784L22.1798 36.4072ZM22.1798 36.4072L20.9424 37.9784L12.661 27.4634L13.8985 25.8922L15.1359 24.321L23.4173 34.836L22.1798 36.4072ZM13.9271 46.8858L12.6897 45.3146L20.9424 34.836L22.1798 36.4072L23.4173 37.9784L15.1646 48.4571L13.9271 46.8858Z" fill="black" mask="url(#path-3-inside-1_2307_198)"/>
<path d="M17.6414 36.7227L12.0372 29.6069L6.45238 36.698L12.0566 43.8138L17.6414 36.7227Z" fill="black"/>
<mask id="path-6-inside-2_2307_198" fill="white">
<path d="M247.607 36.3711L255.889 46.8861L264.141 36.4075L255.86 25.8925L247.607 36.3711Z"/>
</mask>
<path d="M247.607 36.3711L255.889 46.8861L264.141 36.4075L255.86 25.8925L247.607 36.3711Z" fill="#F7B539"/>
<path d="M247.607 36.3711L246.37 37.9423L245.132 36.3711L246.37 34.7999L247.607 36.3711ZM247.607 36.3711L248.845 34.7999L257.126 45.3149L255.889 46.8861L254.651 48.4573L246.37 37.9423L247.607 36.3711ZM255.86 25.8925L257.098 27.4637L248.845 37.9423L247.607 36.3711L246.37 34.7999L254.623 24.3213L255.86 25.8925Z" fill="black" mask="url(#path-6-inside-2_2307_198)"/>
<path d="M263.232 36.7227L257.628 29.6069L252.043 36.698L257.648 43.8138L263.232 36.7227Z" fill="black"/>
<path d="M73.7956 32.4H73.7316C73.5609 32.7627 73.3902 33.1147 73.2196 33.456C73.0489 33.7973 72.8889 34.1173 72.7396 34.416C72.6542 34.5867 72.5476 34.8213 72.4196 35.12C72.3022 35.4187 72.2116 35.6587 72.1476 35.84C72.1156 35.9253 72.0249 35.9893 71.8756 36.032C71.7369 36.0853 71.5876 36.112 71.4276 36.112C71.2782 36.112 71.1396 36.0853 71.0116 36.032C70.8942 35.9893 70.8356 35.9147 70.8356 35.808C70.8356 35.744 70.8569 35.6853 70.8996 35.632C70.9422 35.568 70.9849 35.4987 71.0276 35.424C71.0702 35.3387 71.1396 35.2 71.2356 35.008C71.3422 34.816 71.4969 34.528 71.6996 34.144C71.9129 33.7493 72.1956 33.2053 72.5476 32.512H72.4356C72.3076 32.512 72.1902 32.416 72.0836 32.224C71.9769 32.0213 71.9236 31.84 71.9236 31.68C71.9236 31.52 71.9822 31.44 72.0996 31.44H72.1316C72.2276 31.4507 72.3236 31.4613 72.4196 31.472C72.5156 31.472 72.6276 31.472 72.7556 31.472H73.0596C73.4222 30.7467 73.7849 30.016 74.1476 29.28C74.5102 28.5333 74.8409 27.8347 75.1396 27.184C75.4382 26.5333 75.6729 25.9893 75.8436 25.552C75.8862 25.456 75.9182 25.312 75.9396 25.12C75.9609 24.9173 75.9982 24.784 76.0516 24.72C76.1049 24.656 76.2062 24.624 76.3556 24.624C76.5369 24.624 76.7236 24.672 76.9156 24.768C77.1076 24.8533 77.2249 24.9493 77.2676 25.056C77.2676 25.0667 77.2676 25.0773 77.2676 25.088C77.2782 25.0987 77.2836 25.1093 77.2836 25.12C77.2836 25.1627 77.2729 25.216 77.2516 25.28C77.2409 25.3333 77.2356 25.3867 77.2356 25.44C77.2356 25.4933 77.2409 25.5307 77.2516 25.552C77.5609 26.3733 77.9182 27.2747 78.3236 28.256C78.7396 29.2267 79.1716 30.208 79.6196 31.2C80.0676 32.192 80.4996 33.1253 80.9156 34C81.0009 34.1707 81.1342 34.416 81.3156 34.736C81.4969 35.056 81.6729 35.3387 81.8436 35.584C81.8649 35.616 81.8809 35.648 81.8916 35.68C81.9022 35.7013 81.9076 35.7227 81.9076 35.744C81.9076 35.872 81.8116 35.968 81.6196 36.032C81.4276 36.1067 81.2409 36.144 81.0596 36.144C80.9422 36.144 80.8356 36.128 80.7396 36.096C80.6436 36.064 80.5849 36.016 80.5636 35.952C80.4996 35.76 80.4089 35.5093 80.2916 35.2C80.1742 34.88 80.0729 34.624 79.9876 34.432C79.8276 34.0907 79.6622 33.7333 79.4916 33.36C79.3209 32.976 79.1449 32.5813 78.9636 32.176L73.7956 32.4ZM78.5636 31.264C78.1689 30.3467 77.7902 29.4507 77.4276 28.576C77.0649 27.7013 76.7716 26.9707 76.5476 26.384C76.3662 26.7893 76.1476 27.2693 75.8916 27.824C75.6462 28.3787 75.3796 28.9653 75.0916 29.584C74.8036 30.2027 74.5102 30.8213 74.2116 31.44L78.5636 31.264ZM83.4504 26.56C83.4504 26.4533 83.4451 26.288 83.4344 26.064C83.4238 25.84 83.4131 25.6107 83.4024 25.376C83.4024 25.1413 83.4024 24.9653 83.4024 24.848C83.4024 24.7947 83.4344 24.7573 83.4984 24.736C83.5624 24.704 83.6371 24.688 83.7224 24.688C83.9038 24.688 84.0904 24.7307 84.2824 24.816C84.4851 24.8907 84.5864 24.9973 84.5864 25.136C84.5864 25.2213 84.5811 25.3547 84.5704 25.536C84.5704 25.7067 84.5651 25.888 84.5544 26.08C84.5544 26.272 84.5544 26.432 84.5544 26.56V34.32C84.5544 34.384 84.5598 34.528 84.5704 34.752C84.5811 34.976 84.5864 35.2107 84.5864 35.456C84.5971 35.7013 84.6024 35.888 84.6024 36.016C84.6024 36.0693 84.5704 36.1067 84.5064 36.128C84.4424 36.16 84.3678 36.176 84.2824 36.176C84.1118 36.176 83.9251 36.1333 83.7224 36.048C83.5198 35.9733 83.4184 35.8667 83.4184 35.728C83.4184 35.6427 83.4184 35.504 83.4184 35.312C83.4291 35.1093 83.4344 34.912 83.4344 34.72C83.4451 34.528 83.4504 34.3947 83.4504 34.32V26.56ZM87.6536 26.56C87.6536 26.4533 87.6482 26.288 87.6376 26.064C87.6269 25.84 87.6162 25.6107 87.6056 25.376C87.6056 25.1413 87.6056 24.9653 87.6056 24.848C87.6056 24.7947 87.6376 24.7573 87.7016 24.736C87.7656 24.704 87.8402 24.688 87.9256 24.688C88.1069 24.688 88.2936 24.7307 88.4856 24.816C88.6882 24.8907 88.7896 24.9973 88.7896 25.136C88.7896 25.2213 88.7842 25.3547 88.7736 25.536C88.7736 25.7067 88.7682 25.888 88.7576 26.08C88.7576 26.272 88.7576 26.432 88.7576 26.56V34.32C88.7576 34.384 88.7629 34.528 88.7736 34.752C88.7842 34.976 88.7896 35.2107 88.7896 35.456C88.8002 35.7013 88.8056 35.888 88.8056 36.016C88.8056 36.0693 88.7736 36.1067 88.7096 36.128C88.6456 36.16 88.5709 36.176 88.4856 36.176C88.3149 36.176 88.1282 36.1333 87.9256 36.048C87.7229 35.9733 87.6216 35.8667 87.6216 35.728C87.6216 35.6427 87.6216 35.504 87.6216 35.312C87.6322 35.1093 87.6376 34.912 87.6376 34.72C87.6482 34.528 87.6536 34.3947 87.6536 34.32V26.56ZM92.3367 32.864V33.024C92.3367 33.7173 92.5127 34.2773 92.8647 34.704C93.2274 35.1307 93.6754 35.344 94.2087 35.344C94.8914 35.344 95.5154 35.2373 96.0807 35.024C96.6567 34.8 97.158 34.4587 97.5847 34C97.6594 33.9147 97.7287 33.856 97.7927 33.824C97.8567 33.7813 97.91 33.76 97.9527 33.76C98.0594 33.76 98.1127 33.824 98.1127 33.952C98.1127 34.048 98.0327 34.2187 97.8727 34.464C97.7234 34.7093 97.4887 34.976 97.1687 35.264C96.8487 35.5413 96.4434 35.7813 95.9527 35.984C95.462 36.1867 94.8807 36.288 94.2087 36.288C93.6647 36.288 93.1687 36.1547 92.7207 35.888C92.2834 35.6107 91.9367 35.216 91.6807 34.704C91.4247 34.192 91.2967 33.584 91.2967 32.88V32.656C91.2007 32.5813 91.1207 32.496 91.0567 32.4C90.9927 32.304 90.9607 32.2187 90.9607 32.144C90.9607 32.0053 91.062 31.936 91.2647 31.936C91.2754 31.936 91.2967 31.936 91.3287 31.936C91.3714 31.9253 91.398 31.92 91.4087 31.92C91.4834 31.536 91.6327 31.1307 91.8567 30.704C92.0914 30.2773 92.3847 29.8773 92.7367 29.504C93.0887 29.12 93.4887 28.8107 93.9367 28.576C94.3954 28.3413 94.886 28.224 95.4087 28.224C96.07 28.224 96.5927 28.3413 96.9767 28.576C97.3714 28.8 97.6487 29.0933 97.8087 29.456C97.9794 29.808 98.0647 30.176 98.0647 30.56C98.0647 30.9227 98.0327 31.2107 97.9687 31.424C97.9154 31.6373 97.782 31.8133 97.5687 31.952C97.3554 32.08 97.0087 32.2187 96.5287 32.368C96.0487 32.5173 95.4727 32.64 94.8007 32.736C94.1394 32.8213 93.3874 32.864 92.5447 32.864H92.3367ZM92.7847 31.968C93.574 31.968 94.2354 31.9253 94.7687 31.84C95.302 31.744 95.7447 31.648 96.0967 31.552C96.4807 31.4347 96.726 31.3067 96.8327 31.168C96.95 31.0293 97.0087 30.8213 97.0087 30.544C97.0087 29.616 96.47 29.152 95.3927 29.152C94.998 29.152 94.6354 29.2427 94.3047 29.424C93.974 29.6053 93.6807 29.84 93.4247 30.128C93.1794 30.416 92.9714 30.7253 92.8007 31.056C92.6407 31.376 92.5287 31.68 92.4647 31.968H92.7847ZM100.496 30.128C100.496 30.0213 100.491 29.856 100.48 29.632C100.47 29.408 100.459 29.1787 100.448 28.944C100.448 28.7093 100.448 28.5333 100.448 28.416C100.448 28.3093 100.555 28.256 100.768 28.256C100.939 28.256 101.12 28.2987 101.312 28.384C101.515 28.4587 101.616 28.5653 101.616 28.704C101.616 28.8107 101.606 28.928 101.584 29.056C101.574 29.184 101.568 29.3387 101.568 29.52C101.782 29.168 102.086 28.864 102.48 28.608C102.875 28.352 103.35 28.224 103.904 28.224C104.224 28.224 104.523 28.2773 104.8 28.384C105.078 28.4907 105.302 28.6187 105.472 28.768C105.654 28.9173 105.744 29.056 105.744 29.184C105.744 29.3547 105.68 29.536 105.552 29.728C105.435 29.92 105.307 30.016 105.168 30.016C105.083 30.016 105.008 29.9627 104.944 29.856C104.838 29.6533 104.667 29.504 104.432 29.408C104.208 29.312 104.016 29.264 103.856 29.264C103.408 29.264 102.992 29.4027 102.608 29.68C102.235 29.9573 101.958 30.384 101.776 30.96C101.702 31.1947 101.648 31.456 101.616 31.744C101.584 32.032 101.563 32.3787 101.552 32.784C101.552 33.1893 101.552 33.696 101.552 34.304C101.552 34.6347 101.563 34.9547 101.584 35.264C101.616 35.5733 101.632 35.8187 101.632 36C101.632 36.1067 101.526 36.16 101.312 36.16C101.142 36.16 100.955 36.1173 100.752 36.032C100.56 35.9573 100.464 35.8507 100.464 35.712C100.464 35.6267 100.464 35.488 100.464 35.296C100.475 35.0933 100.48 34.896 100.48 34.704C100.491 34.512 100.496 34.3787 100.496 34.304V30.128ZM117.701 26.544C117.701 26.6187 117.674 26.6827 117.621 26.736C117.578 26.7893 117.514 26.816 117.429 26.816C117.376 26.816 117.317 26.8 117.253 26.768C116.89 26.5547 116.453 26.3573 115.941 26.176C115.429 25.9947 114.906 25.808 114.373 25.616C114.298 25.584 114.261 25.5307 114.261 25.456C114.261 25.3493 114.32 25.232 114.437 25.104C114.554 24.9653 114.688 24.848 114.837 24.752C114.986 24.6453 115.109 24.592 115.205 24.592C115.248 24.592 115.28 24.5973 115.301 24.608C115.962 25.0453 116.464 25.3973 116.805 25.664C117.146 25.92 117.381 26.1173 117.509 26.256C117.637 26.384 117.701 26.48 117.701 26.544ZM119.285 28.688C119.253 28.9227 119.221 29.2373 119.189 29.632C119.168 30.016 119.146 30.4267 119.125 30.864C119.114 31.2907 119.104 31.6907 119.093 32.064C119.082 32.4373 119.077 32.72 119.077 32.912C119.077 33.0613 119.082 33.2853 119.093 33.584C119.114 33.872 119.162 34.1813 119.237 34.512C119.322 34.8427 119.456 35.152 119.637 35.44C119.658 35.4827 119.669 35.5147 119.669 35.536C119.669 35.6533 119.594 35.7973 119.445 35.968C119.306 36.128 119.146 36.208 118.965 36.208C118.805 36.208 118.661 36.096 118.533 35.872C118.416 35.6373 118.32 35.36 118.245 35.04C118.181 34.7093 118.133 34.4 118.101 34.112C117.706 34.8587 117.226 35.408 116.661 35.76C116.106 36.112 115.53 36.288 114.933 36.288C114.154 36.288 113.53 36.0267 113.061 35.504C112.592 34.9707 112.357 34.2027 112.357 33.2C112.357 32.5173 112.469 31.8773 112.693 31.28C112.917 30.6827 113.216 30.1547 113.589 29.696C113.973 29.2373 114.4 28.88 114.869 28.624C115.338 28.3573 115.818 28.224 116.309 28.224C116.682 28.224 117.024 28.3093 117.333 28.48C117.642 28.64 117.888 28.9067 118.069 29.28V28.4C118.069 28.2933 118.181 28.24 118.405 28.24C118.586 28.24 118.778 28.2773 118.981 28.352C119.184 28.4267 119.285 28.528 119.285 28.656V28.688ZM118.053 29.92C117.957 30.016 117.866 30.064 117.781 30.064C117.738 30.064 117.701 30.0427 117.669 30C117.488 29.6907 117.274 29.472 117.029 29.344C116.794 29.216 116.554 29.152 116.309 29.152C115.978 29.152 115.642 29.2533 115.301 29.456C114.97 29.648 114.661 29.9253 114.373 30.288C114.096 30.64 113.872 31.0613 113.701 31.552C113.53 32.032 113.445 32.5547 113.445 33.12C113.445 33.9307 113.584 34.5013 113.861 34.832C114.138 35.1627 114.49 35.328 114.917 35.328C115.429 35.328 115.914 35.1627 116.373 34.832C116.832 34.4907 117.21 34.0213 117.509 33.424C117.818 32.8267 117.989 32.1333 118.021 31.344C118.032 31.1947 118.037 30.9867 118.037 30.72C118.037 30.4533 118.042 30.1867 118.053 29.92ZM127.81 26.56C127.81 26.4533 127.804 26.288 127.794 26.064C127.783 25.84 127.772 25.6107 127.762 25.376C127.762 25.1413 127.762 24.9653 127.762 24.848C127.762 24.7947 127.794 24.7573 127.858 24.736C127.922 24.704 127.996 24.688 128.082 24.688C128.263 24.688 128.45 24.7307 128.642 24.816C128.844 24.8907 128.946 24.9973 128.946 25.136C128.946 25.2213 128.94 25.3547 128.93 25.536C128.93 25.7067 128.924 25.888 128.914 26.08C128.914 26.272 128.914 26.432 128.914 26.56V34.32C128.914 34.384 128.919 34.528 128.93 34.752C128.94 34.976 128.946 35.2107 128.946 35.456C128.956 35.7013 128.962 35.888 128.962 36.016C128.962 36.0693 128.93 36.1067 128.866 36.128C128.802 36.16 128.727 36.176 128.642 36.176C128.471 36.176 128.284 36.1333 128.082 36.048C127.879 35.9733 127.778 35.8667 127.778 35.728C127.778 35.6427 127.778 35.504 127.778 35.312C127.788 35.1093 127.794 34.912 127.794 34.72C127.804 34.528 127.81 34.3947 127.81 34.32V26.56ZM138.285 28.688C138.253 28.9227 138.221 29.2373 138.189 29.632C138.168 30.016 138.146 30.4267 138.125 30.864C138.114 31.2907 138.104 31.6907 138.093 32.064C138.082 32.4373 138.077 32.72 138.077 32.912C138.077 33.0613 138.082 33.2853 138.093 33.584C138.114 33.872 138.162 34.1813 138.237 34.512C138.322 34.8427 138.456 35.152 138.637 35.44C138.658 35.4827 138.669 35.5147 138.669 35.536C138.669 35.6533 138.594 35.7973 138.445 35.968C138.306 36.128 138.146 36.208 137.965 36.208C137.805 36.208 137.661 36.096 137.533 35.872C137.416 35.6373 137.32 35.36 137.245 35.04C137.181 34.7093 137.133 34.4 137.101 34.112C136.706 34.8587 136.226 35.408 135.661 35.76C135.106 36.112 134.53 36.288 133.933 36.288C133.154 36.288 132.53 36.0267 132.061 35.504C131.592 34.9707 131.357 34.2027 131.357 33.2C131.357 32.5173 131.469 31.8773 131.693 31.28C131.917 30.6827 132.216 30.1547 132.589 29.696C132.973 29.2373 133.4 28.88 133.869 28.624C134.338 28.3573 134.818 28.224 135.309 28.224C135.682 28.224 136.024 28.3093 136.333 28.48C136.642 28.64 136.888 28.9067 137.069 29.28V28.4C137.069 28.2933 137.181 28.24 137.405 28.24C137.586 28.24 137.778 28.2773 137.981 28.352C138.184 28.4267 138.285 28.528 138.285 28.656V28.688ZM137.053 29.92C136.957 30.016 136.866 30.064 136.781 30.064C136.738 30.064 136.701 30.0427 136.669 30C136.488 29.6907 136.274 29.472 136.029 29.344C135.794 29.216 135.554 29.152 135.309 29.152C134.978 29.152 134.642 29.2533 134.301 29.456C133.97 29.648 133.661 29.9253 133.373 30.288C133.096 30.64 132.872 31.0613 132.701 31.552C132.53 32.032 132.445 32.5547 132.445 33.12C132.445 33.9307 132.584 34.5013 132.861 34.832C133.138 35.1627 133.49 35.328 133.917 35.328C134.429 35.328 134.914 35.1627 135.373 34.832C135.832 34.4907 136.21 34.0213 136.509 33.424C136.818 32.8267 136.989 32.1333 137.021 31.344C137.032 31.1947 137.037 30.9867 137.037 30.72C137.037 30.4533 137.042 30.1867 137.053 29.92ZM154.986 35.728C155.007 35.504 155.023 35.28 155.034 35.056C155.055 34.832 155.066 34.4747 155.066 33.984C154.82 34.496 154.484 34.9227 154.058 35.264C153.631 35.5947 153.167 35.8453 152.666 36.016C152.164 36.1867 151.674 36.272 151.194 36.272C150.234 36.272 149.37 36.112 148.602 35.792C147.844 35.4613 147.247 34.928 146.81 34.192C146.372 33.456 146.154 32.4853 146.154 31.28C146.154 30.3947 146.292 29.552 146.57 28.752C146.847 27.952 147.236 27.2427 147.738 26.624C148.25 25.9947 148.847 25.4987 149.53 25.136C150.223 24.7733 150.975 24.592 151.786 24.592C152.724 24.592 153.476 24.7147 154.042 24.96C154.607 25.2053 155.055 25.536 155.386 25.952C155.428 25.9947 155.45 26.0587 155.45 26.144C155.45 26.304 155.38 26.4747 155.242 26.656C155.103 26.8267 154.964 26.912 154.826 26.912C154.74 26.912 154.666 26.864 154.602 26.768C154.591 26.7467 154.532 26.6773 154.426 26.56C154.33 26.432 154.175 26.2933 153.962 26.144C153.748 25.9947 153.46 25.8667 153.098 25.76C152.746 25.6427 152.308 25.584 151.786 25.584C151.146 25.584 150.554 25.7333 150.01 26.032C149.466 26.32 148.986 26.7253 148.57 27.248C148.164 27.7707 147.844 28.3787 147.61 29.072C147.386 29.7547 147.274 30.4907 147.274 31.28C147.274 32.2613 147.428 33.0453 147.738 33.632C148.058 34.2187 148.511 34.64 149.098 34.896C149.684 35.1413 150.383 35.264 151.194 35.264C151.887 35.264 152.532 35.088 153.13 34.736C153.727 34.384 154.207 33.8933 154.57 33.264C154.943 32.6347 155.13 31.904 155.13 31.072C155.13 31.04 155.108 31.024 155.066 31.024L153.242 31.152C153.06 31.1627 152.858 31.184 152.634 31.216C152.41 31.2373 152.212 31.2587 152.042 31.28H152.01C151.86 31.28 151.722 31.184 151.594 30.992C151.466 30.7893 151.402 30.608 151.402 30.448C151.402 30.2987 151.466 30.224 151.594 30.224H151.818C151.999 30.224 152.196 30.224 152.41 30.224C152.623 30.2133 152.799 30.2027 152.938 30.192L154.922 30.08C155.007 30.0693 155.098 30.0587 155.194 30.048C155.29 30.0267 155.386 30.016 155.482 30.016C155.556 30.016 155.658 30.064 155.786 30.16C155.914 30.256 156.026 30.3627 156.122 30.48C156.228 30.5973 156.282 30.6987 156.282 30.784C156.282 30.8587 156.255 30.9227 156.202 30.976C156.159 31.0293 156.138 31.1147 156.138 31.232V34.448C156.138 34.5333 156.138 34.672 156.138 34.864C156.148 35.056 156.154 35.248 156.154 35.44C156.164 35.632 156.17 35.7813 156.17 35.888C156.17 35.9627 156.132 36.016 156.058 36.048C155.983 36.08 155.892 36.096 155.786 36.096C155.615 36.096 155.439 36.064 155.258 36C155.076 35.9253 154.986 35.84 154.986 35.744V35.728ZM165.113 28.688C165.081 28.9227 165.049 29.2373 165.017 29.632C164.996 30.016 164.974 30.4267 164.953 30.864C164.942 31.2907 164.932 31.6907 164.921 32.064C164.91 32.4373 164.905 32.72 164.905 32.912C164.905 33.0613 164.91 33.2853 164.921 33.584C164.942 33.872 164.99 34.1813 165.065 34.512C165.15 34.8427 165.284 35.152 165.465 35.44C165.486 35.4827 165.497 35.5147 165.497 35.536C165.497 35.6533 165.422 35.7973 165.273 35.968C165.134 36.128 164.974 36.208 164.793 36.208C164.633 36.208 164.489 36.096 164.361 35.872C164.244 35.6373 164.148 35.36 164.073 35.04C164.009 34.7093 163.961 34.4 163.929 34.112C163.534 34.8587 163.054 35.408 162.489 35.76C161.934 36.112 161.358 36.288 160.761 36.288C159.982 36.288 159.358 36.0267 158.889 35.504C158.42 34.9707 158.185 34.2027 158.185 33.2C158.185 32.5173 158.297 31.8773 158.521 31.28C158.745 30.6827 159.044 30.1547 159.417 29.696C159.801 29.2373 160.228 28.88 160.697 28.624C161.166 28.3573 161.646 28.224 162.137 28.224C162.51 28.224 162.852 28.3093 163.161 28.48C163.47 28.64 163.716 28.9067 163.897 29.28V28.4C163.897 28.2933 164.009 28.24 164.233 28.24C164.414 28.24 164.606 28.2773 164.809 28.352C165.012 28.4267 165.113 28.528 165.113 28.656V28.688ZM163.881 29.92C163.785 30.016 163.694 30.064 163.609 30.064C163.566 30.064 163.529 30.0427 163.497 30C163.316 29.6907 163.102 29.472 162.857 29.344C162.622 29.216 162.382 29.152 162.137 29.152C161.806 29.152 161.47 29.2533 161.129 29.456C160.798 29.648 160.489 29.9253 160.201 30.288C159.924 30.64 159.7 31.0613 159.529 31.552C159.358 32.032 159.273 32.5547 159.273 33.12C159.273 33.9307 159.412 34.5013 159.689 34.832C159.966 35.1627 160.318 35.328 160.745 35.328C161.257 35.328 161.742 35.1627 162.201 34.832C162.66 34.4907 163.038 34.0213 163.337 33.424C163.646 32.8267 163.817 32.1333 163.849 31.344C163.86 31.1947 163.865 30.9867 163.865 30.72C163.865 30.4533 163.87 30.1867 163.881 29.92ZM168.044 26.56C168.044 26.4533 168.039 26.288 168.028 26.064C168.018 25.84 168.007 25.6107 167.996 25.376C167.996 25.1413 167.996 24.9653 167.996 24.848C167.996 24.7947 168.028 24.7573 168.092 24.736C168.156 24.704 168.231 24.688 168.316 24.688C168.498 24.688 168.684 24.7307 168.876 24.816C169.079 24.8907 169.18 24.9973 169.18 25.136C169.18 25.2213 169.175 25.3547 169.164 25.536C169.164 25.7067 169.159 25.888 169.148 26.08C169.148 26.272 169.148 26.432 169.148 26.56V34.32C169.148 34.384 169.154 34.528 169.164 34.752C169.175 34.976 169.18 35.2107 169.18 35.456C169.191 35.7013 169.196 35.888 169.196 36.016C169.196 36.0693 169.164 36.1067 169.1 36.128C169.036 36.16 168.962 36.176 168.876 36.176C168.706 36.176 168.519 36.1333 168.316 36.048C168.114 35.9733 168.012 35.8667 168.012 35.728C168.012 35.6427 168.012 35.504 168.012 35.312C168.023 35.1093 168.028 34.912 168.028 34.72C168.039 34.528 168.044 34.3947 168.044 34.32V26.56ZM172.727 32.864V33.024C172.727 33.7173 172.903 34.2773 173.255 34.704C173.618 35.1307 174.066 35.344 174.599 35.344C175.282 35.344 175.906 35.2373 176.471 35.024C177.047 34.8 177.549 34.4587 177.975 34C178.05 33.9147 178.119 33.856 178.183 33.824C178.247 33.7813 178.301 33.76 178.343 33.76C178.45 33.76 178.503 33.824 178.503 33.952C178.503 34.048 178.423 34.2187 178.263 34.464C178.114 34.7093 177.879 34.976 177.559 35.264C177.239 35.5413 176.834 35.7813 176.343 35.984C175.853 36.1867 175.271 36.288 174.599 36.288C174.055 36.288 173.559 36.1547 173.111 35.888C172.674 35.6107 172.327 35.216 172.071 34.704C171.815 34.192 171.687 33.584 171.687 32.88V32.656C171.591 32.5813 171.511 32.496 171.447 32.4C171.383 32.304 171.351 32.2187 171.351 32.144C171.351 32.0053 171.453 31.936 171.655 31.936C171.666 31.936 171.687 31.936 171.719 31.936C171.762 31.9253 171.789 31.92 171.799 31.92C171.874 31.536 172.023 31.1307 172.247 30.704C172.482 30.2773 172.775 29.8773 173.127 29.504C173.479 29.12 173.879 28.8107 174.327 28.576C174.786 28.3413 175.277 28.224 175.799 28.224C176.461 28.224 176.983 28.3413 177.367 28.576C177.762 28.8 178.039 29.0933 178.199 29.456C178.37 29.808 178.455 30.176 178.455 30.56C178.455 30.9227 178.423 31.2107 178.359 31.424C178.306 31.6373 178.173 31.8133 177.959 31.952C177.746 32.08 177.399 32.2187 176.919 32.368C176.439 32.5173 175.863 32.64 175.191 32.736C174.53 32.8213 173.778 32.864 172.935 32.864H172.727ZM173.175 31.968C173.965 31.968 174.626 31.9253 175.159 31.84C175.693 31.744 176.135 31.648 176.487 31.552C176.871 31.4347 177.117 31.3067 177.223 31.168C177.341 31.0293 177.399 30.8213 177.399 30.544C177.399 29.616 176.861 29.152 175.783 29.152C175.389 29.152 175.026 29.2427 174.695 29.424C174.365 29.6053 174.071 29.84 173.815 30.128C173.57 30.416 173.362 30.7253 173.191 31.056C173.031 31.376 172.919 31.68 172.855 31.968H173.175ZM180.887 30.128C180.887 30.0213 180.881 29.856 180.871 29.632C180.86 29.408 180.849 29.1787 180.839 28.944C180.839 28.7093 180.839 28.5333 180.839 28.416C180.839 28.3093 180.945 28.256 181.159 28.256C181.329 28.256 181.511 28.2987 181.703 28.384C181.905 28.4587 182.007 28.5653 182.007 28.704C182.007 28.8107 181.996 28.928 181.975 29.056C181.964 29.184 181.959 29.3387 181.959 29.52C182.172 29.168 182.476 28.864 182.871 28.608C183.265 28.352 183.74 28.224 184.295 28.224C184.615 28.224 184.913 28.2773 185.191 28.384C185.468 28.4907 185.692 28.6187 185.863 28.768C186.044 28.9173 186.135 29.056 186.135 29.184C186.135 29.3547 186.071 29.536 185.943 29.728C185.825 29.92 185.697 30.016 185.559 30.016C185.473 30.016 185.399 29.9627 185.335 29.856C185.228 29.6533 185.057 29.504 184.823 29.408C184.599 29.312 184.407 29.264 184.247 29.264C183.799 29.264 183.383 29.4027 182.999 29.68C182.625 29.9573 182.348 30.384 182.167 30.96C182.092 31.1947 182.039 31.456 182.007 31.744C181.975 32.032 181.953 32.3787 181.943 32.784C181.943 33.1893 181.943 33.696 181.943 34.304C181.943 34.6347 181.953 34.9547 181.975 35.264C182.007 35.5733 182.023 35.8187 182.023 36C182.023 36.1067 181.916 36.16 181.703 36.16C181.532 36.16 181.345 36.1173 181.143 36.032C180.951 35.9573 180.855 35.8507 180.855 35.712C180.855 35.6267 180.855 35.488 180.855 35.296C180.865 35.0933 180.871 34.896 180.871 34.704C180.881 34.512 180.887 34.3787 180.887 34.304V30.128ZM189.138 25.824C189.138 26.0267 189.068 26.2027 188.93 26.352C188.791 26.4907 188.599 26.56 188.354 26.56C188.151 26.56 187.964 26.4587 187.794 26.256C187.634 26.0427 187.554 25.824 187.554 25.6C187.554 25.3867 187.618 25.2053 187.746 25.056C187.884 24.9067 188.087 24.832 188.354 24.832C188.546 24.832 188.722 24.9387 188.882 25.152C189.052 25.3653 189.138 25.5893 189.138 25.824ZM187.81 30.112C187.81 30.0053 187.804 29.84 187.794 29.616C187.783 29.392 187.772 29.1627 187.762 28.928C187.762 28.6933 187.762 28.5173 187.762 28.4C187.762 28.304 187.863 28.256 188.066 28.256C188.247 28.256 188.439 28.2987 188.642 28.384C188.844 28.4587 188.946 28.56 188.946 28.688C188.946 28.7733 188.94 28.9067 188.93 29.088C188.93 29.2587 188.924 29.44 188.914 29.632C188.914 29.824 188.914 29.984 188.914 30.112V34.32C188.914 34.384 188.919 34.528 188.93 34.752C188.94 34.976 188.946 35.2107 188.946 35.456C188.956 35.7013 188.962 35.888 188.962 36.016C188.962 36.112 188.86 36.16 188.658 36.16C188.487 36.16 188.295 36.1173 188.082 36.032C187.879 35.9573 187.778 35.856 187.778 35.728C187.778 35.6427 187.778 35.504 187.778 35.312C187.788 35.1093 187.794 34.912 187.794 34.72C187.804 34.528 187.81 34.3947 187.81 34.32V30.112ZM192.493 32.864V33.024C192.493 33.7173 192.669 34.2773 193.021 34.704C193.384 35.1307 193.832 35.344 194.365 35.344C195.048 35.344 195.672 35.2373 196.237 35.024C196.813 34.8 197.314 34.4587 197.741 34C197.816 33.9147 197.885 33.856 197.949 33.824C198.013 33.7813 198.066 33.76 198.109 33.76C198.216 33.76 198.269 33.824 198.269 33.952C198.269 34.048 198.189 34.2187 198.029 34.464C197.88 34.7093 197.645 34.976 197.325 35.264C197.005 35.5413 196.6 35.7813 196.109 35.984C195.618 36.1867 195.037 36.288 194.365 36.288C193.821 36.288 193.325 36.1547 192.877 35.888C192.44 35.6107 192.093 35.216 191.837 34.704C191.581 34.192 191.453 33.584 191.453 32.88V32.656C191.357 32.5813 191.277 32.496 191.213 32.4C191.149 32.304 191.117 32.2187 191.117 32.144C191.117 32.0053 191.218 31.936 191.421 31.936C191.432 31.936 191.453 31.936 191.485 31.936C191.528 31.9253 191.554 31.92 191.565 31.92C191.64 31.536 191.789 31.1307 192.013 30.704C192.248 30.2773 192.541 29.8773 192.893 29.504C193.245 29.12 193.645 28.8107 194.093 28.576C194.552 28.3413 195.042 28.224 195.565 28.224C196.226 28.224 196.749 28.3413 197.133 28.576C197.528 28.8 197.805 29.0933 197.965 29.456C198.136 29.808 198.221 30.176 198.221 30.56C198.221 30.9227 198.189 31.2107 198.125 31.424C198.072 31.6373 197.938 31.8133 197.725 31.952C197.512 32.08 197.165 32.2187 196.685 32.368C196.205 32.5173 195.629 32.64 194.957 32.736C194.296 32.8213 193.544 32.864 192.701 32.864H192.493ZM192.941 31.968C193.73 31.968 194.392 31.9253 194.925 31.84C195.458 31.744 195.901 31.648 196.253 31.552C196.637 31.4347 196.882 31.3067 196.989 31.168C197.106 31.0293 197.165 30.8213 197.165 30.544C197.165 29.616 196.626 29.152 195.549 29.152C195.154 29.152 194.792 29.2427 194.461 29.424C194.13 29.6053 193.837 29.84 193.581 30.128C193.336 30.416 193.128 30.7253 192.957 31.056C192.797 31.376 192.685 31.68 192.621 31.968H192.941ZM82.0392 40.512C82.0392 40.1813 82.0285 39.8613 82.0072 39.552C81.9859 39.2427 81.9752 38.9973 81.9752 38.816C81.9752 38.7627 82.0072 38.7253 82.0712 38.704C82.1352 38.672 82.2099 38.656 82.2952 38.656C82.4659 38.656 82.6472 38.6987 82.8392 38.784C83.0312 38.8587 83.1272 38.9653 83.1272 39.104C83.1272 39.232 83.1219 39.4347 83.1112 39.712C83.1005 39.9787 83.0952 40.2507 83.0952 40.528V47.04C83.0952 47.4987 83.1432 47.952 83.2392 48.4C83.3352 48.8373 83.4685 49.1627 83.6392 49.376C83.6605 49.4187 83.6712 49.456 83.6712 49.488C83.6712 49.616 83.5965 49.7653 83.4472 49.936C83.2979 50.1067 83.1379 50.192 82.9672 50.192C82.8392 50.192 82.7219 50.112 82.6152 49.952C82.5085 49.7813 82.4179 49.5787 82.3432 49.344C82.2685 49.1093 82.2045 48.88 82.1512 48.656C82.1085 48.4213 82.0872 48.24 82.0872 48.112C81.6285 48.88 81.1379 49.4347 80.6152 49.776C80.0925 50.1173 79.5165 50.288 78.8872 50.288C78.1085 50.288 77.4739 50.0053 76.9832 49.44C76.5032 48.8747 76.2632 48.0693 76.2632 47.024C76.2632 46.3947 76.3699 45.792 76.5832 45.216C76.8072 44.64 77.1059 44.128 77.4792 43.68C77.8525 43.232 78.2739 42.88 78.7432 42.624C79.2232 42.3573 79.7245 42.224 80.2472 42.224C80.6525 42.224 81.0099 42.304 81.3192 42.464C81.6285 42.6133 81.8685 42.8107 82.0392 43.056V40.512ZM82.0392 43.904C81.9965 43.9467 81.9432 43.968 81.8792 43.968C81.8259 43.968 81.7779 43.9413 81.7352 43.888C81.5752 43.664 81.3565 43.488 81.0792 43.36C80.8125 43.2213 80.5405 43.152 80.2632 43.152C79.8685 43.152 79.4952 43.264 79.1432 43.488C78.7912 43.7013 78.4819 43.9947 78.2152 44.368C77.9485 44.7413 77.7352 45.152 77.5752 45.6C77.4259 46.048 77.3512 46.5067 77.3512 46.976C77.3512 47.7547 77.4899 48.3413 77.7672 48.736C78.0552 49.1307 78.4285 49.328 78.8872 49.328C79.2179 49.328 79.5645 49.232 79.9272 49.04C80.3005 48.8373 80.6472 48.5653 80.9672 48.224C81.2872 47.872 81.5432 47.472 81.7352 47.024C81.9379 46.576 82.0392 46.096 82.0392 45.584V43.904ZM86.6023 46.864V47.024C86.6023 47.7173 86.7783 48.2773 87.1303 48.704C87.493 49.1307 87.941 49.344 88.4743 49.344C89.157 49.344 89.781 49.2373 90.3463 49.024C90.9223 48.8 91.4236 48.4587 91.8503 48C91.925 47.9147 91.9943 47.856 92.0583 47.824C92.1223 47.7813 92.1756 47.76 92.2183 47.76C92.325 47.76 92.3783 47.824 92.3783 47.952C92.3783 48.048 92.2983 48.2187 92.1383 48.464C91.989 48.7093 91.7543 48.976 91.4343 49.264C91.1143 49.5413 90.709 49.7813 90.2183 49.984C89.7276 50.1867 89.1463 50.288 88.4743 50.288C87.9303 50.288 87.4343 50.1547 86.9863 49.888C86.549 49.6107 86.2023 49.216 85.9463 48.704C85.6903 48.192 85.5623 47.584 85.5623 46.88V46.656C85.4663 46.5813 85.3863 46.496 85.3223 46.4C85.2583 46.304 85.2263 46.2187 85.2263 46.144C85.2263 46.0053 85.3276 45.936 85.5303 45.936C85.541 45.936 85.5623 45.936 85.5943 45.936C85.637 45.9253 85.6636 45.92 85.6743 45.92C85.749 45.536 85.8983 45.1307 86.1223 44.704C86.357 44.2773 86.6503 43.8773 87.0023 43.504C87.3543 43.12 87.7543 42.8107 88.2023 42.576C88.661 42.3413 89.1516 42.224 89.6743 42.224C90.3356 42.224 90.8583 42.3413 91.2423 42.576C91.637 42.8 91.9143 43.0933 92.0743 43.456C92.245 43.808 92.3303 44.176 92.3303 44.56C92.3303 44.9227 92.2983 45.2107 92.2343 45.424C92.181 45.6373 92.0476 45.8133 91.8343 45.952C91.621 46.08 91.2743 46.2187 90.7943 46.368C90.3143 46.5173 89.7383 46.64 89.0663 46.736C88.405 46.8213 87.653 46.864 86.8103 46.864H86.6023ZM87.0503 45.968C87.8396 45.968 88.501 45.9253 89.0343 45.84C89.5676 45.744 90.0103 45.648 90.3623 45.552C90.7463 45.4347 90.9916 45.3067 91.0983 45.168C91.2156 45.0293 91.2743 44.8213 91.2743 44.544C91.2743 43.616 90.7356 43.152 89.6583 43.152C89.2636 43.152 88.901 43.2427 88.5703 43.424C88.2396 43.6053 87.9463 43.84 87.6903 44.128C87.445 44.416 87.237 44.7253 87.0663 45.056C86.9063 45.376 86.7943 45.68 86.7303 45.968H87.0503ZM100.548 40.112H100.532C100.372 40.112 100.212 40.016 100.052 39.824C99.8916 39.632 99.8116 39.4667 99.8116 39.328C99.8116 39.2213 99.8596 39.1627 99.9556 39.152C100.628 39.024 101.161 38.928 101.556 38.864C101.95 38.7893 102.27 38.736 102.516 38.704C102.772 38.6613 103.006 38.64 103.22 38.64C103.433 38.6293 103.684 38.624 103.972 38.624C105.369 38.624 106.398 38.8587 107.06 39.328C107.721 39.7867 108.052 40.4267 108.052 41.248C108.052 42.1867 107.753 42.9333 107.156 43.488C106.569 44.0427 105.785 44.4213 104.804 44.624C104.505 44.688 104.11 44.7467 103.62 44.8C103.14 44.8533 102.697 44.88 102.292 44.88C102.206 44.88 102.121 44.88 102.036 44.88C101.961 44.88 101.892 44.8747 101.828 44.864C101.764 44.8427 101.71 44.8213 101.668 44.8V48.16C101.668 48.5227 101.673 48.88 101.684 49.232C101.705 49.5733 101.716 49.8347 101.716 50.016C101.716 50.1227 101.604 50.176 101.38 50.176C101.209 50.176 101.022 50.1333 100.82 50.048C100.617 49.9733 100.516 49.8667 100.516 49.728C100.516 49.6 100.521 49.3813 100.532 49.072C100.542 48.7627 100.548 48.4533 100.548 48.144V40.112ZM101.668 44.208C101.7 44.1867 101.732 44.1707 101.764 44.16C101.796 44.1493 101.833 44.144 101.876 44.144C102.857 44.08 103.662 43.9573 104.292 43.776C104.921 43.5947 105.412 43.3867 105.764 43.152C106.126 42.9067 106.388 42.6667 106.548 42.432C106.708 42.1867 106.804 41.968 106.836 41.776C106.878 41.5733 106.9 41.4293 106.9 41.344C106.9 40.7467 106.638 40.3147 106.116 40.048C105.604 39.7707 104.878 39.632 103.94 39.632C103.556 39.632 103.166 39.664 102.772 39.728C102.377 39.7813 102.009 39.856 101.668 39.952V44.208ZM109.821 46.864V47.024C109.821 47.7173 109.997 48.2773 110.349 48.704C110.712 49.1307 111.16 49.344 111.693 49.344C112.376 49.344 113 49.2373 113.565 49.024C114.141 48.8 114.642 48.4587 115.069 48C115.144 47.9147 115.213 47.856 115.277 47.824C115.341 47.7813 115.394 47.76 115.437 47.76C115.544 47.76 115.597 47.824 115.597 47.952C115.597 48.048 115.517 48.2187 115.357 48.464C115.208 48.7093 114.973 48.976 114.653 49.264C114.333 49.5413 113.928 49.7813 113.437 49.984C112.946 50.1867 112.365 50.288 111.693 50.288C111.149 50.288 110.653 50.1547 110.205 49.888C109.768 49.6107 109.421 49.216 109.165 48.704C108.909 48.192 108.781 47.584 108.781 46.88V46.656C108.685 46.5813 108.605 46.496 108.541 46.4C108.477 46.304 108.445 46.2187 108.445 46.144C108.445 46.0053 108.546 45.936 108.749 45.936C108.76 45.936 108.781 45.936 108.813 45.936C108.856 45.9253 108.882 45.92 108.893 45.92C108.968 45.536 109.117 45.1307 109.341 44.704C109.576 44.2773 109.869 43.8773 110.221 43.504C110.573 43.12 110.973 42.8107 111.421 42.576C111.88 42.3413 112.37 42.224 112.893 42.224C113.554 42.224 114.077 42.3413 114.461 42.576C114.856 42.8 115.133 43.0933 115.293 43.456C115.464 43.808 115.549 44.176 115.549 44.56C115.549 44.9227 115.517 45.2107 115.453 45.424C115.4 45.6373 115.266 45.8133 115.053 45.952C114.84 46.08 114.493 46.2187 114.013 46.368C113.533 46.5173 112.957 46.64 112.285 46.736C111.624 46.8213 110.872 46.864 110.029 46.864H109.821ZM110.269 45.968C111.058 45.968 111.72 45.9253 112.253 45.84C112.786 45.744 113.229 45.648 113.581 45.552C113.965 45.4347 114.21 45.3067 114.317 45.168C114.434 45.0293 114.493 44.8213 114.493 44.544C114.493 43.616 113.954 43.152 112.877 43.152C112.482 43.152 112.12 43.2427 111.789 43.424C111.458 43.6053 111.165 43.84 110.909 44.128C110.664 44.416 110.456 44.7253 110.285 45.056C110.125 45.376 110.013 45.68 109.949 45.968H110.269ZM117.981 44.128C117.981 44.0213 117.975 43.856 117.965 43.632C117.954 43.408 117.943 43.1787 117.933 42.944C117.933 42.7093 117.933 42.5333 117.933 42.416C117.933 42.3093 118.039 42.256 118.253 42.256C118.423 42.256 118.605 42.2987 118.797 42.384C118.999 42.4587 119.101 42.5653 119.101 42.704C119.101 42.8107 119.09 42.928 119.069 43.056C119.058 43.184 119.053 43.3387 119.053 43.52C119.266 43.168 119.57 42.864 119.965 42.608C120.359 42.352 120.834 42.224 121.389 42.224C121.709 42.224 122.007 42.2773 122.285 42.384C122.562 42.4907 122.786 42.6187 122.957 42.768C123.138 42.9173 123.229 43.056 123.229 43.184C123.229 43.3547 123.165 43.536 123.037 43.728C122.919 43.92 122.791 44.016 122.653 44.016C122.567 44.016 122.493 43.9627 122.429 43.856C122.322 43.6533 122.151 43.504 121.917 43.408C121.693 43.312 121.501 43.264 121.341 43.264C120.893 43.264 120.477 43.4027 120.093 43.68C119.719 43.9573 119.442 44.384 119.261 44.96C119.186 45.1947 119.133 45.456 119.101 45.744C119.069 46.032 119.047 46.3787 119.037 46.784C119.037 47.1893 119.037 47.696 119.037 48.304C119.037 48.6347 119.047 48.9547 119.069 49.264C119.101 49.5733 119.117 49.8187 119.117 50C119.117 50.1067 119.01 50.16 118.797 50.16C118.626 50.16 118.439 50.1173 118.237 50.032C118.045 49.9573 117.949 49.8507 117.949 49.712C117.949 49.6267 117.949 49.488 117.949 49.296C117.959 49.0933 117.965 48.896 117.965 48.704C117.975 48.512 117.981 48.3787 117.981 48.304V44.128ZM126.472 46.128C125.874 45.9893 125.426 45.776 125.128 45.488C124.829 45.1893 124.68 44.7947 124.68 44.304C124.68 43.888 124.813 43.5253 125.08 43.216C125.346 42.9067 125.704 42.6667 126.152 42.496C126.6 42.3147 127.085 42.224 127.608 42.224C128.226 42.224 128.733 42.3147 129.128 42.496C129.522 42.6667 129.869 42.912 130.168 43.232C130.189 43.2533 130.2 43.3013 130.2 43.376C130.2 43.5147 130.141 43.6693 130.024 43.84C129.917 44.0107 129.805 44.096 129.688 44.096C129.624 44.096 129.538 44.0267 129.432 43.888C129.272 43.6427 129.069 43.4667 128.824 43.36C128.589 43.2427 128.36 43.1733 128.136 43.152C127.912 43.12 127.736 43.104 127.608 43.104C126.989 43.104 126.52 43.2267 126.2 43.472C125.88 43.7067 125.72 43.9947 125.72 44.336C125.72 44.5493 125.789 44.7307 125.928 44.88C126.077 45.0293 126.37 45.1573 126.808 45.264L128.344 45.632C129.037 45.792 129.581 46.0533 129.976 46.416C130.381 46.7787 130.584 47.2907 130.584 47.952C130.584 48.3787 130.456 48.768 130.2 49.12C129.954 49.472 129.602 49.7547 129.144 49.968C128.685 50.1813 128.141 50.288 127.512 50.288C126.893 50.288 126.376 50.2133 125.96 50.064C125.554 49.9147 125.229 49.7387 124.984 49.536C124.738 49.3333 124.562 49.1467 124.456 48.976C124.349 48.8053 124.296 48.6933 124.296 48.64C124.296 48.48 124.37 48.3147 124.52 48.144C124.68 47.9627 124.818 47.872 124.936 47.872C125.01 47.872 125.064 47.9093 125.096 47.984C125.181 48.1973 125.298 48.4107 125.448 48.624C125.608 48.8373 125.848 49.0133 126.168 49.152C126.488 49.2907 126.936 49.36 127.512 49.36C128.162 49.36 128.658 49.2213 129 48.944C129.352 48.6667 129.528 48.3467 129.528 47.984C129.528 47.6107 129.432 47.3067 129.24 47.072C129.048 46.8373 128.658 46.6507 128.072 46.512L126.472 46.128ZM134.612 42.88C134.825 42.72 135.081 42.5707 135.38 42.432C135.678 42.2933 136.052 42.224 136.5 42.224C137.108 42.224 137.646 42.3787 138.116 42.688C138.585 42.9973 138.948 43.44 139.204 44.016C139.47 44.5813 139.604 45.2693 139.604 46.08C139.604 46.592 139.518 47.0987 139.348 47.6C139.188 48.0907 138.942 48.544 138.612 48.96C138.292 49.3653 137.892 49.6907 137.412 49.936C136.942 50.1707 136.398 50.288 135.78 50.288C134.713 50.288 133.881 49.968 133.284 49.328C132.697 48.6773 132.404 47.7973 132.404 46.688C132.404 46.2187 132.478 45.7547 132.628 45.296C132.788 44.8267 132.974 44.4 133.188 44.016C133.412 43.632 133.63 43.3227 133.844 43.088C134.057 42.8533 134.222 42.736 134.34 42.736C134.446 42.736 134.537 42.784 134.612 42.88ZM135.78 49.312C136.302 49.312 136.766 49.1733 137.172 48.896C137.588 48.608 137.918 48.2187 138.164 47.728C138.409 47.2373 138.532 46.688 138.532 46.08C138.532 45.1947 138.356 44.4907 138.004 43.968C137.662 43.4453 137.129 43.184 136.404 43.184C135.977 43.184 135.582 43.2853 135.22 43.488C134.868 43.6907 134.558 43.9627 134.292 44.304C134.036 44.6453 133.833 45.024 133.684 45.44C133.545 45.8453 133.476 46.256 133.476 46.672C133.476 47.5467 133.673 48.208 134.068 48.656C134.473 49.0933 135.044 49.312 135.78 49.312ZM147.34 49.728C147.351 49.6427 147.356 49.4987 147.356 49.296C147.356 49.0933 147.356 48.8853 147.356 48.672C147.367 48.448 147.372 48.2773 147.372 48.16V45.312C147.372 44.6827 147.287 44.1813 147.116 43.808C146.946 43.424 146.594 43.232 146.06 43.232C145.698 43.232 145.33 43.3013 144.956 43.44C144.594 43.5787 144.263 43.808 143.964 44.128C143.666 44.448 143.436 44.8747 143.276 45.408C143.202 45.6747 143.143 45.9893 143.1 46.352C143.068 46.704 143.047 47.056 143.036 47.408C143.036 47.76 143.031 48.064 143.02 48.32V48.576C143.02 48.832 143.026 49.0827 143.036 49.328C143.047 49.5733 143.058 49.8027 143.068 50.016C143.068 50.1227 142.967 50.176 142.764 50.176C142.594 50.176 142.412 50.1333 142.22 50.048C142.028 49.9733 141.932 49.8667 141.932 49.728C141.932 49.6427 141.932 49.488 141.932 49.264C141.943 49.04 141.948 48.8213 141.948 48.608C141.959 48.384 141.964 48.2347 141.964 48.16V44.176C141.964 44.0693 141.959 43.904 141.948 43.68C141.938 43.456 141.927 43.2267 141.916 42.992C141.916 42.7573 141.916 42.5813 141.916 42.464C141.916 42.3573 142.018 42.304 142.22 42.304C142.391 42.304 142.572 42.3467 142.764 42.432C142.956 42.5067 143.052 42.6133 143.052 42.752C143.052 42.752 143.047 42.8267 143.036 42.976C143.036 43.1253 143.031 43.296 143.02 43.488C143.02 43.68 143.02 43.8453 143.02 43.984C143.362 43.4187 143.804 42.9867 144.348 42.688C144.903 42.3893 145.474 42.24 146.06 42.24C146.572 42.24 146.983 42.336 147.292 42.528C147.612 42.7093 147.852 42.9493 148.012 43.248C148.183 43.5467 148.295 43.872 148.348 44.224C148.402 44.576 148.428 44.9173 148.428 45.248V48.32C148.428 48.384 148.434 48.528 148.444 48.752C148.455 48.976 148.46 49.2107 148.46 49.456C148.471 49.7013 148.476 49.888 148.476 50.016C148.476 50.1227 148.375 50.176 148.172 50.176C148.002 50.176 147.82 50.1333 147.628 50.048C147.436 49.9733 147.34 49.872 147.34 49.744V49.728ZM156.746 49.728C156.757 49.6427 156.762 49.4987 156.762 49.296C156.762 49.0933 156.762 48.8853 156.762 48.672C156.773 48.448 156.778 48.2773 156.778 48.16V45.312C156.778 44.6827 156.693 44.1813 156.522 43.808C156.352 43.424 156 43.232 155.466 43.232C155.104 43.232 154.736 43.3013 154.362 43.44C154 43.5787 153.669 43.808 153.37 44.128C153.072 44.448 152.842 44.8747 152.682 45.408C152.608 45.6747 152.549 45.9893 152.506 46.352C152.474 46.704 152.453 47.056 152.442 47.408C152.442 47.76 152.437 48.064 152.426 48.32V48.576C152.426 48.832 152.432 49.0827 152.442 49.328C152.453 49.5733 152.464 49.8027 152.474 50.016C152.474 50.1227 152.373 50.176 152.17 50.176C152 50.176 151.818 50.1333 151.626 50.048C151.434 49.9733 151.338 49.8667 151.338 49.728C151.338 49.6427 151.338 49.488 151.338 49.264C151.349 49.04 151.354 48.8213 151.354 48.608C151.365 48.384 151.37 48.2347 151.37 48.16V44.176C151.37 44.0693 151.365 43.904 151.354 43.68C151.344 43.456 151.333 43.2267 151.322 42.992C151.322 42.7573 151.322 42.5813 151.322 42.464C151.322 42.3573 151.424 42.304 151.626 42.304C151.797 42.304 151.978 42.3467 152.17 42.432C152.362 42.5067 152.458 42.6133 152.458 42.752C152.458 42.752 152.453 42.8267 152.442 42.976C152.442 43.1253 152.437 43.296 152.426 43.488C152.426 43.68 152.426 43.8453 152.426 43.984C152.768 43.4187 153.21 42.9867 153.754 42.688C154.309 42.3893 154.88 42.24 155.466 42.24C155.978 42.24 156.389 42.336 156.698 42.528C157.018 42.7093 157.258 42.9493 157.418 43.248C157.589 43.5467 157.701 43.872 157.754 44.224C157.808 44.576 157.834 44.9173 157.834 45.248V48.32C157.834 48.384 157.84 48.528 157.85 48.752C157.861 48.976 157.866 49.2107 157.866 49.456C157.877 49.7013 157.882 49.888 157.882 50.016C157.882 50.1227 157.781 50.176 157.578 50.176C157.408 50.176 157.226 50.1333 157.034 50.048C156.842 49.9733 156.746 49.872 156.746 49.744V49.728ZM167.129 42.688C167.097 42.9227 167.065 43.2373 167.033 43.632C167.011 44.016 166.99 44.4267 166.969 44.864C166.958 45.2907 166.947 45.6907 166.937 46.064C166.926 46.4373 166.921 46.72 166.921 46.912C166.921 47.0613 166.926 47.2853 166.937 47.584C166.958 47.872 167.006 48.1813 167.081 48.512C167.166 48.8427 167.299 49.152 167.481 49.44C167.502 49.4827 167.513 49.5147 167.513 49.536C167.513 49.6533 167.438 49.7973 167.289 49.968C167.15 50.128 166.99 50.208 166.809 50.208C166.649 50.208 166.505 50.096 166.377 49.872C166.259 49.6373 166.163 49.36 166.089 49.04C166.025 48.7093 165.977 48.4 165.945 48.112C165.55 48.8587 165.07 49.408 164.505 49.76C163.95 50.112 163.374 50.288 162.777 50.288C161.998 50.288 161.374 50.0267 160.905 49.504C160.435 48.9707 160.201 48.2027 160.201 47.2C160.201 46.5173 160.313 45.8773 160.537 45.28C160.761 44.6827 161.059 44.1547 161.433 43.696C161.817 43.2373 162.243 42.88 162.713 42.624C163.182 42.3573 163.662 42.224 164.153 42.224C164.526 42.224 164.867 42.3093 165.177 42.48C165.486 42.64 165.731 42.9067 165.913 43.28V42.4C165.913 42.2933 166.025 42.24 166.249 42.24C166.43 42.24 166.622 42.2773 166.825 42.352C167.027 42.4267 167.129 42.528 167.129 42.656V42.688ZM165.897 43.92C165.801 44.016 165.71 44.064 165.625 44.064C165.582 44.064 165.545 44.0427 165.513 44C165.331 43.6907 165.118 43.472 164.873 43.344C164.638 43.216 164.398 43.152 164.153 43.152C163.822 43.152 163.486 43.2533 163.145 43.456C162.814 43.648 162.505 43.9253 162.217 44.288C161.939 44.64 161.715 45.0613 161.545 45.552C161.374 46.032 161.289 46.5547 161.289 47.12C161.289 47.9307 161.427 48.5013 161.705 48.832C161.982 49.1627 162.334 49.328 162.761 49.328C163.273 49.328 163.758 49.1627 164.217 48.832C164.675 48.4907 165.054 48.0213 165.353 47.424C165.662 46.8267 165.833 46.1333 165.865 45.344C165.875 45.1947 165.881 44.9867 165.881 44.72C165.881 44.4533 165.886 44.1867 165.897 43.92ZM175.292 48.112C174.897 48.752 174.422 49.2107 173.868 49.488C173.313 49.7547 172.753 49.888 172.188 49.888C171.345 49.888 170.673 49.6107 170.172 49.056C169.67 48.5013 169.42 47.6907 169.42 46.624C169.42 46.08 169.521 45.5467 169.724 45.024C169.926 44.5013 170.204 44.032 170.556 43.616C170.918 43.1893 171.329 42.8533 171.788 42.608C172.257 42.352 172.753 42.224 173.276 42.224C173.713 42.224 174.108 42.3093 174.46 42.48C174.822 42.64 175.105 42.896 175.308 43.248C175.308 43.0453 175.297 42.88 175.276 42.752C175.265 42.624 175.26 42.5067 175.26 42.4C175.26 42.2933 175.361 42.24 175.564 42.24C175.734 42.24 175.916 42.2827 176.108 42.368C176.3 42.4427 176.396 42.544 176.396 42.672V42.688C176.385 42.8907 176.369 43.136 176.348 43.424C176.337 43.712 176.332 43.9947 176.332 44.272V49.2C176.332 49.9787 176.15 50.6347 175.788 51.168C175.425 51.7013 174.945 52.1067 174.348 52.384C173.761 52.6613 173.11 52.8 172.396 52.8C171.66 52.8 171.068 52.672 170.62 52.416C170.182 52.1707 169.82 51.8187 169.532 51.36C169.5 51.3067 169.484 51.2587 169.484 51.216C169.484 51.056 169.564 50.8853 169.724 50.704C169.894 50.5333 170.049 50.448 170.188 50.448C170.294 50.448 170.369 50.5013 170.412 50.608C170.604 51.0453 170.844 51.3547 171.132 51.536C171.43 51.728 171.852 51.824 172.396 51.824C172.95 51.824 173.441 51.7173 173.868 51.504C174.305 51.2907 174.652 50.9867 174.908 50.592C175.164 50.1973 175.292 49.728 175.292 49.184V48.112ZM175.308 43.76C175.222 43.8773 175.121 43.936 175.004 43.936C174.918 43.936 174.849 43.904 174.796 43.84C174.636 43.6267 174.417 43.4613 174.14 43.344C173.862 43.2267 173.58 43.168 173.292 43.168C172.897 43.168 172.529 43.2693 172.188 43.472C171.857 43.664 171.564 43.9307 171.308 44.272C171.062 44.6027 170.865 44.9707 170.716 45.376C170.577 45.7813 170.508 46.192 170.508 46.608C170.508 47.4507 170.646 48.048 170.924 48.4C171.212 48.752 171.633 48.928 172.188 48.928C172.572 48.928 172.972 48.832 173.388 48.64C173.814 48.448 174.193 48.1653 174.524 47.792C174.865 47.4187 175.1 46.9547 175.228 46.4C175.26 46.2827 175.281 46.08 175.292 45.792C175.302 45.504 175.308 45.1787 175.308 44.816C175.308 44.4533 175.308 44.1013 175.308 43.76ZM179.821 46.864V47.024C179.821 47.7173 179.997 48.2773 180.349 48.704C180.712 49.1307 181.16 49.344 181.693 49.344C182.376 49.344 183 49.2373 183.565 49.024C184.141 48.8 184.642 48.4587 185.069 48C185.144 47.9147 185.213 47.856 185.277 47.824C185.341 47.7813 185.394 47.76 185.437 47.76C185.544 47.76 185.597 47.824 185.597 47.952C185.597 48.048 185.517 48.2187 185.357 48.464C185.208 48.7093 184.973 48.976 184.653 49.264C184.333 49.5413 183.928 49.7813 183.437 49.984C182.946 50.1867 182.365 50.288 181.693 50.288C181.149 50.288 180.653 50.1547 180.205 49.888C179.768 49.6107 179.421 49.216 179.165 48.704C178.909 48.192 178.781 47.584 178.781 46.88V46.656C178.685 46.5813 178.605 46.496 178.541 46.4C178.477 46.304 178.445 46.2187 178.445 46.144C178.445 46.0053 178.546 45.936 178.749 45.936C178.76 45.936 178.781 45.936 178.813 45.936C178.856 45.9253 178.882 45.92 178.893 45.92C178.968 45.536 179.117 45.1307 179.341 44.704C179.576 44.2773 179.869 43.8773 180.221 43.504C180.573 43.12 180.973 42.8107 181.421 42.576C181.88 42.3413 182.37 42.224 182.893 42.224C183.554 42.224 184.077 42.3413 184.461 42.576C184.856 42.8 185.133 43.0933 185.293 43.456C185.464 43.808 185.549 44.176 185.549 44.56C185.549 44.9227 185.517 45.2107 185.453 45.424C185.4 45.6373 185.266 45.8133 185.053 45.952C184.84 46.08 184.493 46.2187 184.013 46.368C183.533 46.5173 182.957 46.64 182.285 46.736C181.624 46.8213 180.872 46.864 180.029 46.864H179.821ZM180.269 45.968C181.058 45.968 181.72 45.9253 182.253 45.84C182.786 45.744 183.229 45.648 183.581 45.552C183.965 45.4347 184.21 45.3067 184.317 45.168C184.434 45.0293 184.493 44.8213 184.493 44.544C184.493 43.616 183.954 43.152 182.877 43.152C182.482 43.152 182.12 43.2427 181.789 43.424C181.458 43.6053 181.165 43.84 180.909 44.128C180.664 44.416 180.456 44.7253 180.285 45.056C180.125 45.376 180.013 45.68 179.949 45.968H180.269ZM189.597 46.128C188.999 45.9893 188.551 45.776 188.253 45.488C187.954 45.1893 187.805 44.7947 187.805 44.304C187.805 43.888 187.938 43.5253 188.205 43.216C188.471 42.9067 188.829 42.6667 189.277 42.496C189.725 42.3147 190.21 42.224 190.733 42.224C191.351 42.224 191.858 42.3147 192.253 42.496C192.647 42.6667 192.994 42.912 193.293 43.232C193.314 43.2533 193.325 43.3013 193.325 43.376C193.325 43.5147 193.266 43.6693 193.149 43.84C193.042 44.0107 192.93 44.096 192.813 44.096C192.749 44.096 192.663 44.0267 192.557 43.888C192.397 43.6427 192.194 43.4667 191.949 43.36C191.714 43.2427 191.485 43.1733 191.261 43.152C191.037 43.12 190.861 43.104 190.733 43.104C190.114 43.104 189.645 43.2267 189.325 43.472C189.005 43.7067 188.845 43.9947 188.845 44.336C188.845 44.5493 188.914 44.7307 189.053 44.88C189.202 45.0293 189.495 45.1573 189.933 45.264L191.469 45.632C192.162 45.792 192.706 46.0533 193.101 46.416C193.506 46.7787 193.709 47.2907 193.709 47.952C193.709 48.3787 193.581 48.768 193.325 49.12C193.079 49.472 192.727 49.7547 192.269 49.968C191.81 50.1813 191.266 50.288 190.637 50.288C190.018 50.288 189.501 50.2133 189.085 50.064C188.679 49.9147 188.354 49.7387 188.109 49.536C187.863 49.3333 187.687 49.1467 187.581 48.976C187.474 48.8053 187.421 48.6933 187.421 48.64C187.421 48.48 187.495 48.3147 187.645 48.144C187.805 47.9627 187.943 47.872 188.061 47.872C188.135 47.872 188.189 47.9093 188.221 47.984C188.306 48.1973 188.423 48.4107 188.573 48.624C188.733 48.8373 188.973 49.0133 189.293 49.152C189.613 49.2907 190.061 49.36 190.637 49.36C191.287 49.36 191.783 49.2213 192.125 48.944C192.477 48.6667 192.653 48.3467 192.653 47.984C192.653 47.6107 192.557 47.3067 192.365 47.072C192.173 46.8373 191.783 46.6507 191.197 46.512L189.597 46.128Z" fill="black"/>
</svg>
