<svg width="270" height="73" viewBox="0 0 270 73" fill="none" xmlns="http://www.w3.org/2000/svg">
<path d="M24.4344 73H245.566L270 36.5L245.566 -2.98023e-06H24.4344L0 36.5L24.4344 73Z" fill="#F5DCAC"/>
<path d="M239.601 68.2881L262.124 36.5L239.601 4.71191H30.3983L7.87579 36.5L30.3983 68.2881H239.601Z" fill="#F5DCAC" stroke="black" stroke-width="2"/>
<mask id="path-3-inside-1_2307_234" fill="white">
<path d="M22.1798 36.4072L13.8985 25.8922L5.64577 36.3708L13.9271 46.8858L22.1798 36.4072Z"/>
</mask>
<path d="M22.1798 36.4072L13.8985 25.8922L5.64577 36.3708L13.9271 46.8858L22.1798 36.4072Z" fill="#F5DCAC"/>
<path d="M22.1798 36.4072L23.4173 34.836L24.6547 36.4072L23.4173 37.9784L22.1798 36.4072ZM22.1798 36.4072L20.9424 37.9784L12.661 27.4634L13.8985 25.8922L15.1359 24.321L23.4173 34.836L22.1798 36.4072ZM13.9271 46.8858L12.6897 45.3146L20.9424 34.836L22.1798 36.4072L23.4173 37.9784L15.1646 48.4571L13.9271 46.8858Z" fill="black" mask="url(#path-3-inside-1_2307_234)"/>
<path d="M17.6413 36.7227L12.0371 29.6069L6.45232 36.698L12.0565 43.8138L17.6413 36.7227Z" fill="black"/>
<mask id="path-6-inside-2_2307_234" fill="white">
<path d="M247.607 36.3711L255.889 46.8861L264.141 36.4075L255.86 25.8925L247.607 36.3711Z"/>
</mask>
<path d="M247.607 36.3711L255.889 46.8861L264.141 36.4075L255.86 25.8925L247.607 36.3711Z" fill="#F5DCAC"/>
<path d="M247.607 36.3711L246.37 37.9423L245.132 36.3711L246.37 34.7999L247.607 36.3711ZM247.607 36.3711L248.845 34.7999L257.126 45.3149L255.889 46.8861L254.651 48.4573L246.37 37.9423L247.607 36.3711ZM255.86 25.8925L257.098 27.4637L248.845 37.9423L247.607 36.3711L246.37 34.7999L254.623 24.3213L255.86 25.8925Z" fill="black" mask="url(#path-6-inside-2_2307_234)"/>
<path d="M263.232 36.7227L257.628 29.6069L252.043 36.698L257.648 43.8138L263.232 36.7227Z" fill="black"/>
<path d="M77.0965 40.056C77.0965 40.1627 77.0218 40.344 76.8725 40.6C76.7338 40.8453 76.5258 41.1227 76.2485 41.432C75.9712 41.7307 75.6245 42.024 75.2085 42.312C74.8032 42.5893 74.3338 42.8187 73.8005 43C73.2672 43.192 72.6752 43.288 72.0245 43.288C71.0965 43.288 70.2592 43.1173 69.5125 42.776C68.7765 42.4347 68.1952 41.9013 67.7685 41.176C67.3418 40.44 67.1285 39.4853 67.1285 38.312C67.1285 37.3733 67.2725 36.4987 67.5605 35.688C67.8485 34.8667 68.2485 34.152 68.7605 33.544C69.2832 32.9253 69.8912 32.4453 70.5845 32.104C71.2778 31.7627 72.0298 31.592 72.8405 31.592C72.9898 31.592 73.2032 31.6027 73.4805 31.624C73.7685 31.6453 74.0832 31.6987 74.4245 31.784C74.7658 31.8693 75.1072 32.008 75.4485 32.2C75.7898 32.3813 76.0938 32.632 76.3605 32.952C76.3925 32.9947 76.4085 33.0533 76.4085 33.128C76.4085 33.2773 76.3392 33.4427 76.2005 33.624C76.0618 33.8053 75.9178 33.896 75.7685 33.896C75.6725 33.896 75.5925 33.848 75.5285 33.752C75.3472 33.4747 75.1178 33.2613 74.8405 33.112C74.5632 32.952 74.2805 32.84 73.9925 32.776C73.7152 32.7013 73.4645 32.6587 73.2405 32.648C73.0165 32.6267 72.8618 32.616 72.7765 32.616C72.1792 32.616 71.6085 32.7547 71.0645 33.032C70.5312 33.2987 70.0512 33.688 69.6245 34.2C69.2085 34.7013 68.8778 35.2987 68.6325 35.992C68.3978 36.6853 68.2805 37.448 68.2805 38.28C68.2805 39.208 68.4405 39.9653 68.7605 40.552C69.0912 41.1387 69.5445 41.576 70.1205 41.864C70.6965 42.1413 71.3632 42.28 72.1205 42.28C72.6112 42.28 73.1285 42.1893 73.6725 42.008C74.2165 41.816 74.7392 41.5493 75.2405 41.208C75.7418 40.8667 76.1578 40.4773 76.4885 40.04C76.6165 39.88 76.7445 39.8 76.8725 39.8C77.0218 39.8 77.0965 39.8853 77.0965 40.056ZM80.6665 35.88C80.8798 35.72 81.1358 35.5707 81.4345 35.432C81.7332 35.2933 82.1065 35.224 82.5545 35.224C83.1625 35.224 83.7012 35.3787 84.1705 35.688C84.6398 35.9973 85.0025 36.44 85.2585 37.016C85.5252 37.5813 85.6585 38.2693 85.6585 39.08C85.6585 39.592 85.5732 40.0987 85.4025 40.6C85.2425 41.0907 84.9972 41.544 84.6665 41.96C84.3465 42.3653 83.9465 42.6907 83.4665 42.936C82.9972 43.1707 82.4532 43.288 81.8345 43.288C80.7678 43.288 79.9358 42.968 79.3385 42.328C78.7518 41.6773 78.4585 40.7973 78.4585 39.688C78.4585 39.2187 78.5332 38.7547 78.6825 38.296C78.8425 37.8267 79.0292 37.4 79.2425 37.016C79.4665 36.632 79.6852 36.3227 79.8985 36.088C80.1118 35.8533 80.2772 35.736 80.3945 35.736C80.5012 35.736 80.5918 35.784 80.6665 35.88ZM81.8345 42.312C82.3572 42.312 82.8212 42.1733 83.2265 41.896C83.6425 41.608 83.9732 41.2187 84.2185 40.728C84.4638 40.2373 84.5865 39.688 84.5865 39.08C84.5865 38.1947 84.4105 37.4907 84.0585 36.968C83.7172 36.4453 83.1838 36.184 82.4585 36.184C82.0318 36.184 81.6372 36.2853 81.2745 36.488C80.9225 36.6907 80.6132 36.9627 80.3465 37.304C80.0905 37.6453 79.8878 38.024 79.7385 38.44C79.5998 38.8453 79.5305 39.256 79.5305 39.672C79.5305 40.5467 79.7278 41.208 80.1225 41.656C80.5278 42.0933 81.0985 42.312 81.8345 42.312ZM93.3949 42.728C93.4055 42.6427 93.4109 42.4987 93.4109 42.296C93.4109 42.0933 93.4109 41.8853 93.4109 41.672C93.4215 41.448 93.4269 41.2773 93.4269 41.16V38.312C93.4269 37.6827 93.3415 37.1813 93.1709 36.808C93.0002 36.424 92.6482 36.232 92.1149 36.232C91.7522 36.232 91.3842 36.3013 91.0109 36.44C90.6482 36.5787 90.3175 36.808 90.0189 37.128C89.7202 37.448 89.4909 37.8747 89.3309 38.408C89.2562 38.6747 89.1975 38.9893 89.1549 39.352C89.1229 39.704 89.1015 40.056 89.0909 40.408C89.0909 40.76 89.0855 41.064 89.0749 41.32V41.576C89.0749 41.832 89.0802 42.0827 89.0909 42.328C89.1015 42.5733 89.1122 42.8027 89.1229 43.016C89.1229 43.1227 89.0215 43.176 88.8189 43.176C88.6482 43.176 88.4669 43.1333 88.2749 43.048C88.0829 42.9733 87.9869 42.8667 87.9869 42.728C87.9869 42.6427 87.9869 42.488 87.9869 42.264C87.9975 42.04 88.0029 41.8213 88.0029 41.608C88.0135 41.384 88.0189 41.2347 88.0189 41.16V37.176C88.0189 37.0693 88.0135 36.904 88.0029 36.68C87.9922 36.456 87.9815 36.2267 87.9709 35.992C87.9709 35.7573 87.9709 35.5813 87.9709 35.464C87.9709 35.3573 88.0722 35.304 88.2749 35.304C88.4455 35.304 88.6269 35.3467 88.8189 35.432C89.0109 35.5067 89.1069 35.6133 89.1069 35.752C89.1069 35.752 89.1015 35.8267 89.0909 35.976C89.0909 36.1253 89.0855 36.296 89.0749 36.488C89.0749 36.68 89.0749 36.8453 89.0749 36.984C89.4162 36.4187 89.8589 35.9867 90.4029 35.688C90.9575 35.3893 91.5282 35.24 92.1149 35.24C92.6269 35.24 93.0375 35.336 93.3469 35.528C93.6669 35.7093 93.9069 35.9493 94.0669 36.248C94.2375 36.5467 94.3495 36.872 94.4029 37.224C94.4562 37.576 94.4829 37.9173 94.4829 38.248V41.32C94.4829 41.384 94.4882 41.528 94.4989 41.752C94.5095 41.976 94.5149 42.2107 94.5149 42.456C94.5255 42.7013 94.5309 42.888 94.5309 43.016C94.5309 43.1227 94.4295 43.176 94.2269 43.176C94.0562 43.176 93.8749 43.1333 93.6829 43.048C93.4909 42.9733 93.3949 42.872 93.3949 42.744V42.728ZM99.0731 39.128C98.4758 38.9893 98.0278 38.776 97.7291 38.488C97.4305 38.1893 97.2811 37.7947 97.2811 37.304C97.2811 36.888 97.4145 36.5253 97.6811 36.216C97.9478 35.9067 98.3051 35.6667 98.7531 35.496C99.2011 35.3147 99.6865 35.224 100.209 35.224C100.828 35.224 101.334 35.3147 101.729 35.496C102.124 35.6667 102.47 35.912 102.769 36.232C102.79 36.2533 102.801 36.3013 102.801 36.376C102.801 36.5147 102.742 36.6693 102.625 36.84C102.518 37.0107 102.406 37.096 102.289 37.096C102.225 37.096 102.14 37.0267 102.033 36.888C101.873 36.6427 101.67 36.4667 101.425 36.36C101.19 36.2427 100.961 36.1733 100.737 36.152C100.513 36.12 100.337 36.104 100.209 36.104C99.5905 36.104 99.1211 36.2267 98.8011 36.472C98.4811 36.7067 98.3211 36.9947 98.3211 37.336C98.3211 37.5493 98.3905 37.7307 98.5291 37.88C98.6785 38.0293 98.9718 38.1573 99.4091 38.264L100.945 38.632C101.638 38.792 102.182 39.0533 102.577 39.416C102.982 39.7787 103.185 40.2907 103.185 40.952C103.185 41.3787 103.057 41.768 102.801 42.12C102.556 42.472 102.204 42.7547 101.745 42.968C101.286 43.1813 100.742 43.288 100.113 43.288C99.4945 43.288 98.9771 43.2133 98.5611 43.064C98.1558 42.9147 97.8305 42.7387 97.5851 42.536C97.3398 42.3333 97.1638 42.1467 97.0571 41.976C96.9505 41.8053 96.8971 41.6933 96.8971 41.64C96.8971 41.48 96.9718 41.3147 97.1211 41.144C97.2811 40.9627 97.4198 40.872 97.5371 40.872C97.6118 40.872 97.6651 40.9093 97.6971 40.984C97.7825 41.1973 97.8998 41.4107 98.0491 41.624C98.2091 41.8373 98.4491 42.0133 98.7691 42.152C99.0891 42.2907 99.5371 42.36 100.113 42.36C100.764 42.36 101.26 42.2213 101.601 41.944C101.953 41.6667 102.129 41.3467 102.129 40.984C102.129 40.6107 102.033 40.3067 101.841 40.072C101.649 39.8373 101.26 39.6507 100.673 39.512L99.0731 39.128ZM112.109 35.688C112.077 35.88 112.035 36.2853 111.981 36.904C111.939 37.5227 111.917 38.2907 111.917 39.208C111.917 39.2933 111.917 39.464 111.917 39.72C111.928 39.9653 111.949 40.2533 111.981 40.584C112.024 40.9147 112.088 41.2453 112.173 41.576C112.259 41.9067 112.376 42.1947 112.525 42.44C112.536 42.4613 112.541 42.4933 112.541 42.536C112.541 42.6533 112.467 42.7973 112.317 42.968C112.179 43.128 112.019 43.208 111.837 43.208C111.699 43.208 111.581 43.1387 111.485 43C111.389 42.8507 111.309 42.664 111.245 42.44C111.181 42.216 111.128 41.992 111.085 41.768C111.053 41.5333 111.032 41.336 111.021 41.176C110.733 41.7627 110.317 42.264 109.773 42.68C109.24 43.0853 108.643 43.288 107.981 43.288C107.363 43.288 106.877 43.144 106.525 42.856C106.184 42.568 105.939 42.1947 105.789 41.736C105.651 41.2773 105.581 40.7867 105.581 40.264V37.112C105.581 37.048 105.576 36.904 105.565 36.68C105.555 36.456 105.544 36.2213 105.533 35.976C105.533 35.72 105.533 35.5333 105.533 35.416C105.533 35.3093 105.64 35.256 105.853 35.256C106.024 35.256 106.205 35.2987 106.397 35.384C106.6 35.4587 106.701 35.5653 106.701 35.704C106.701 35.7893 106.696 35.9227 106.685 36.104C106.685 36.2747 106.68 36.456 106.669 36.648C106.669 36.8293 106.669 36.984 106.669 37.112V40.2C106.669 40.8187 106.781 41.3307 107.005 41.736C107.229 42.1307 107.555 42.328 107.981 42.328C108.419 42.328 108.851 42.152 109.277 41.8C109.715 41.448 110.083 40.9627 110.381 40.344C110.691 39.7147 110.867 38.9947 110.909 38.184C110.92 38.0133 110.925 37.7947 110.925 37.528C110.925 37.2507 110.925 36.968 110.925 36.68V35.4C110.925 35.2933 111.037 35.24 111.261 35.24C111.443 35.24 111.629 35.2773 111.821 35.352C112.013 35.4267 112.109 35.528 112.109 35.656V35.688ZM115.099 33.56C115.099 33.4533 115.094 33.288 115.083 33.064C115.072 32.84 115.062 32.6107 115.051 32.376C115.051 32.1413 115.051 31.9653 115.051 31.848C115.051 31.7947 115.083 31.7573 115.147 31.736C115.211 31.704 115.286 31.688 115.371 31.688C115.552 31.688 115.739 31.7307 115.931 31.816C116.134 31.8907 116.235 31.9973 116.235 32.136C116.235 32.2213 116.23 32.3547 116.219 32.536C116.219 32.7067 116.214 32.888 116.203 33.08C116.203 33.272 116.203 33.432 116.203 33.56V41.32C116.203 41.384 116.208 41.528 116.219 41.752C116.23 41.976 116.235 42.2107 116.235 42.456C116.246 42.7013 116.251 42.888 116.251 43.016C116.251 43.0693 116.219 43.1067 116.155 43.128C116.091 43.16 116.016 43.176 115.931 43.176C115.76 43.176 115.574 43.1333 115.371 43.048C115.168 42.9733 115.067 42.8667 115.067 42.728C115.067 42.6427 115.067 42.504 115.067 42.312C115.078 42.1093 115.083 41.912 115.083 41.72C115.094 41.528 115.099 41.3947 115.099 41.32V33.56ZM119.558 36.216H119.478C119.243 36.216 119.062 36.2267 118.934 36.248C118.806 36.2587 118.662 36.2693 118.502 36.28H118.486C118.347 36.28 118.23 36.2 118.134 36.04C118.038 35.88 117.99 35.7307 117.99 35.592C117.99 35.4427 118.049 35.368 118.166 35.368H119.558V34.552C119.558 34.4453 119.553 34.28 119.542 34.056C119.542 33.832 119.537 33.6027 119.526 33.368C119.526 33.1333 119.526 32.9573 119.526 32.84C119.526 32.7867 119.558 32.7493 119.622 32.728C119.686 32.696 119.761 32.68 119.846 32.68C120.017 32.68 120.198 32.7227 120.39 32.808C120.582 32.8827 120.678 32.9893 120.678 33.128C120.678 33.2133 120.673 33.3467 120.662 33.528C120.662 33.6987 120.657 33.88 120.646 34.072C120.646 34.264 120.646 34.424 120.646 34.552V35.32L121.094 35.304C121.286 35.2933 121.51 35.2773 121.766 35.256C122.022 35.2347 122.203 35.2187 122.31 35.208H122.326C122.465 35.208 122.582 35.288 122.678 35.448C122.785 35.608 122.838 35.7573 122.838 35.896C122.838 36.056 122.774 36.136 122.646 36.136C122.539 36.136 122.337 36.136 122.038 36.136C121.739 36.136 121.483 36.1413 121.27 36.152L120.646 36.168V41.272C120.646 41.6987 120.683 41.9707 120.758 42.088C120.833 42.2053 120.987 42.264 121.222 42.264C121.403 42.264 121.627 42.2053 121.894 42.088C122.171 41.9707 122.443 41.8107 122.71 41.608C122.891 41.4693 123.035 41.4 123.142 41.4C123.249 41.4 123.302 41.4587 123.302 41.576C123.302 41.672 123.233 41.816 123.094 42.008C122.966 42.1893 122.79 42.3813 122.566 42.584C122.353 42.776 122.113 42.9413 121.846 43.08C121.59 43.2187 121.334 43.288 121.078 43.288C120.523 43.288 120.129 43.1173 119.894 42.776C119.67 42.4347 119.558 41.9227 119.558 41.24V36.216ZM125.548 39.864V40.024C125.548 40.7173 125.724 41.2773 126.076 41.704C126.438 42.1307 126.886 42.344 127.42 42.344C128.102 42.344 128.726 42.2373 129.292 42.024C129.868 41.8 130.369 41.4587 130.796 41C130.87 40.9147 130.94 40.856 131.004 40.824C131.068 40.7813 131.121 40.76 131.164 40.76C131.27 40.76 131.324 40.824 131.324 40.952C131.324 41.048 131.244 41.2187 131.084 41.464C130.934 41.7093 130.7 41.976 130.38 42.264C130.06 42.5413 129.654 42.7813 129.164 42.984C128.673 43.1867 128.092 43.288 127.42 43.288C126.876 43.288 126.38 43.1547 125.932 42.888C125.494 42.6107 125.148 42.216 124.892 41.704C124.636 41.192 124.508 40.584 124.508 39.88V39.656C124.412 39.5813 124.332 39.496 124.268 39.4C124.204 39.304 124.172 39.2187 124.172 39.144C124.172 39.0053 124.273 38.936 124.476 38.936C124.486 38.936 124.508 38.936 124.54 38.936C124.582 38.9253 124.609 38.92 124.62 38.92C124.694 38.536 124.844 38.1307 125.068 37.704C125.302 37.2773 125.596 36.8773 125.948 36.504C126.3 36.12 126.7 35.8107 127.148 35.576C127.606 35.3413 128.097 35.224 128.62 35.224C129.281 35.224 129.804 35.3413 130.188 35.576C130.582 35.8 130.86 36.0933 131.02 36.456C131.19 36.808 131.276 37.176 131.276 37.56C131.276 37.9227 131.244 38.2107 131.18 38.424C131.126 38.6373 130.993 38.8133 130.78 38.952C130.566 39.08 130.22 39.2187 129.74 39.368C129.26 39.5173 128.684 39.64 128.012 39.736C127.35 39.8213 126.598 39.864 125.756 39.864H125.548ZM125.996 38.968C126.785 38.968 127.446 38.9253 127.98 38.84C128.513 38.744 128.956 38.648 129.308 38.552C129.692 38.4347 129.937 38.3067 130.044 38.168C130.161 38.0293 130.22 37.8213 130.22 37.544C130.22 36.616 129.681 36.152 128.604 36.152C128.209 36.152 127.846 36.2427 127.516 36.424C127.185 36.6053 126.892 36.84 126.636 37.128C126.39 37.416 126.182 37.7253 126.012 38.056C125.852 38.376 125.74 38.68 125.676 38.968H125.996ZM133.707 37.128C133.707 37.0213 133.702 36.856 133.691 36.632C133.68 36.408 133.67 36.1787 133.659 35.944C133.659 35.7093 133.659 35.5333 133.659 35.416C133.659 35.3093 133.766 35.256 133.979 35.256C134.15 35.256 134.331 35.2987 134.523 35.384C134.726 35.4587 134.827 35.5653 134.827 35.704C134.827 35.8107 134.816 35.928 134.795 36.056C134.784 36.184 134.779 36.3387 134.779 36.52C134.992 36.168 135.296 35.864 135.691 35.608C136.086 35.352 136.56 35.224 137.115 35.224C137.435 35.224 137.734 35.2773 138.011 35.384C138.288 35.4907 138.512 35.6187 138.683 35.768C138.864 35.9173 138.955 36.056 138.955 36.184C138.955 36.3547 138.891 36.536 138.763 36.728C138.646 36.92 138.518 37.016 138.379 37.016C138.294 37.016 138.219 36.9627 138.155 36.856C138.048 36.6533 137.878 36.504 137.643 36.408C137.419 36.312 137.227 36.264 137.067 36.264C136.619 36.264 136.203 36.4027 135.819 36.68C135.446 36.9573 135.168 37.384 134.987 37.96C134.912 38.1947 134.859 38.456 134.827 38.744C134.795 39.032 134.774 39.3787 134.763 39.784C134.763 40.1893 134.763 40.696 134.763 41.304C134.763 41.6347 134.774 41.9547 134.795 42.264C134.827 42.5733 134.843 42.8187 134.843 43C134.843 43.1067 134.736 43.16 134.523 43.16C134.352 43.16 134.166 43.1173 133.963 43.032C133.771 42.9573 133.675 42.8507 133.675 42.712C133.675 42.6267 133.675 42.488 133.675 42.296C133.686 42.0933 133.691 41.896 133.691 41.704C133.702 41.512 133.707 41.3787 133.707 41.304V37.128ZM146.224 33.56C146.224 33.4533 146.219 33.288 146.208 33.064C146.197 32.84 146.187 32.6107 146.176 32.376C146.176 32.1413 146.176 31.9653 146.176 31.848C146.176 31.7947 146.208 31.7573 146.272 31.736C146.336 31.704 146.411 31.688 146.496 31.688C146.677 31.688 146.864 31.7307 147.056 31.816C147.259 31.8907 147.36 31.9973 147.36 32.136C147.36 32.2213 147.355 32.3547 147.344 32.536C147.344 32.7067 147.339 32.888 147.328 33.08C147.328 33.272 147.328 33.432 147.328 33.56V41.32C147.328 41.384 147.333 41.528 147.344 41.752C147.355 41.976 147.36 42.2107 147.36 42.456C147.371 42.7013 147.376 42.888 147.376 43.016C147.376 43.0693 147.344 43.1067 147.28 43.128C147.216 43.16 147.141 43.176 147.056 43.176C146.885 43.176 146.699 43.1333 146.496 43.048C146.293 42.9733 146.192 42.8667 146.192 42.728C146.192 42.6427 146.192 42.504 146.192 42.312C146.203 42.1093 146.208 41.912 146.208 41.72C146.219 41.528 146.224 41.3947 146.224 41.32V33.56ZM156.699 35.688C156.667 35.9227 156.635 36.2373 156.603 36.632C156.582 37.016 156.56 37.4267 156.539 37.864C156.528 38.2907 156.518 38.6907 156.507 39.064C156.496 39.4373 156.491 39.72 156.491 39.912C156.491 40.0613 156.496 40.2853 156.507 40.584C156.528 40.872 156.576 41.1813 156.651 41.512C156.736 41.8427 156.87 42.152 157.051 42.44C157.072 42.4827 157.083 42.5147 157.083 42.536C157.083 42.6533 157.008 42.7973 156.859 42.968C156.72 43.128 156.56 43.208 156.379 43.208C156.219 43.208 156.075 43.096 155.947 42.872C155.83 42.6373 155.734 42.36 155.659 42.04C155.595 41.7093 155.547 41.4 155.515 41.112C155.12 41.8587 154.64 42.408 154.075 42.76C153.52 43.112 152.944 43.288 152.347 43.288C151.568 43.288 150.944 43.0267 150.475 42.504C150.006 41.9707 149.771 41.2027 149.771 40.2C149.771 39.5173 149.883 38.8773 150.107 38.28C150.331 37.6827 150.63 37.1547 151.003 36.696C151.387 36.2373 151.814 35.88 152.283 35.624C152.752 35.3573 153.232 35.224 153.723 35.224C154.096 35.224 154.438 35.3093 154.747 35.48C155.056 35.64 155.302 35.9067 155.483 36.28V35.4C155.483 35.2933 155.595 35.24 155.819 35.24C156 35.24 156.192 35.2773 156.395 35.352C156.598 35.4267 156.699 35.528 156.699 35.656V35.688ZM155.467 36.92C155.371 37.016 155.28 37.064 155.195 37.064C155.152 37.064 155.115 37.0427 155.083 37C154.902 36.6907 154.688 36.472 154.443 36.344C154.208 36.216 153.968 36.152 153.723 36.152C153.392 36.152 153.056 36.2533 152.715 36.456C152.384 36.648 152.075 36.9253 151.787 37.288C151.51 37.64 151.286 38.0613 151.115 38.552C150.944 39.032 150.859 39.5547 150.859 40.12C150.859 40.9307 150.998 41.5013 151.275 41.832C151.552 42.1627 151.904 42.328 152.331 42.328C152.843 42.328 153.328 42.1627 153.787 41.832C154.246 41.4907 154.624 41.0213 154.923 40.424C155.232 39.8267 155.403 39.1333 155.435 38.344C155.446 38.1947 155.451 37.9867 155.451 37.72C155.451 37.4533 155.456 37.1867 155.467 36.92ZM171.448 40.712C171.448 40.776 171.373 40.9467 171.224 41.224C171.075 41.4907 170.845 41.784 170.536 42.104C170.227 42.424 169.832 42.7013 169.352 42.936C168.883 43.1707 168.323 43.288 167.672 43.288C167.117 43.288 166.6 43.16 166.12 42.904C165.651 42.6373 165.272 42.2533 164.984 41.752C164.707 41.24 164.568 40.6213 164.568 39.896C164.568 39.256 164.685 38.6533 164.92 38.088C165.165 37.5227 165.485 37.0267 165.88 36.6C166.275 36.1733 166.717 35.8373 167.208 35.592C167.699 35.3467 168.189 35.224 168.68 35.224C169.117 35.224 169.485 35.288 169.784 35.416C170.083 35.5333 170.317 35.6773 170.488 35.848C170.669 36.0187 170.797 36.1787 170.872 36.328C170.957 36.4667 171 36.552 171 36.584C171 36.7547 170.92 36.92 170.76 37.08C170.6 37.24 170.456 37.32 170.328 37.32C170.264 37.32 170.216 37.2933 170.184 37.24C170.109 37.0907 170.035 36.9467 169.96 36.808C169.885 36.6693 169.789 36.5627 169.672 36.488C169.363 36.2747 169.043 36.168 168.712 36.168C168.381 36.168 168.035 36.264 167.672 36.456C167.32 36.648 166.989 36.9147 166.68 37.256C166.381 37.5867 166.136 37.9707 165.944 38.408C165.752 38.8453 165.656 39.3147 165.656 39.816C165.656 40.3707 165.757 40.84 165.96 41.224C166.173 41.5973 166.435 41.88 166.744 42.072C167.053 42.264 167.363 42.36 167.672 42.36C168.131 42.36 168.557 42.28 168.952 42.12C169.347 41.96 169.709 41.7573 170.04 41.512C170.381 41.256 170.675 41.0053 170.92 40.76C171.08 40.6 171.208 40.52 171.304 40.52C171.4 40.52 171.448 40.584 171.448 40.712ZM179.98 35.688C179.948 35.9227 179.916 36.2373 179.884 36.632C179.863 37.016 179.842 37.4267 179.82 37.864C179.81 38.2907 179.799 38.6907 179.788 39.064C179.778 39.4373 179.772 39.72 179.772 39.912C179.772 40.0613 179.778 40.2853 179.788 40.584C179.81 40.872 179.858 41.1813 179.932 41.512C180.018 41.8427 180.151 42.152 180.332 42.44C180.354 42.4827 180.364 42.5147 180.364 42.536C180.364 42.6533 180.29 42.7973 180.14 42.968C180.002 43.128 179.842 43.208 179.66 43.208C179.5 43.208 179.356 43.096 179.228 42.872C179.111 42.6373 179.015 42.36 178.94 42.04C178.876 41.7093 178.828 41.4 178.796 41.112C178.402 41.8587 177.922 42.408 177.356 42.76C176.802 43.112 176.226 43.288 175.628 43.288C174.85 43.288 174.226 43.0267 173.756 42.504C173.287 41.9707 173.052 41.2027 173.052 40.2C173.052 39.5173 173.164 38.8773 173.388 38.28C173.612 37.6827 173.911 37.1547 174.284 36.696C174.668 36.2373 175.095 35.88 175.564 35.624C176.034 35.3573 176.514 35.224 177.004 35.224C177.378 35.224 177.719 35.3093 178.028 35.48C178.338 35.64 178.583 35.9067 178.764 36.28V35.4C178.764 35.2933 178.876 35.24 179.1 35.24C179.282 35.24 179.474 35.2773 179.676 35.352C179.879 35.4267 179.98 35.528 179.98 35.656V35.688ZM178.748 36.92C178.652 37.016 178.562 37.064 178.476 37.064C178.434 37.064 178.396 37.0427 178.364 37C178.183 36.6907 177.97 36.472 177.724 36.344C177.49 36.216 177.25 36.152 177.004 36.152C176.674 36.152 176.338 36.2533 175.996 36.456C175.666 36.648 175.356 36.9253 175.068 37.288C174.791 37.64 174.567 38.0613 174.396 38.552C174.226 39.032 174.14 39.5547 174.14 40.12C174.14 40.9307 174.279 41.5013 174.556 41.832C174.834 42.1627 175.186 42.328 175.612 42.328C176.124 42.328 176.61 42.1627 177.068 41.832C177.527 41.4907 177.906 41.0213 178.204 40.424C178.514 39.8267 178.684 39.1333 178.716 38.344C178.727 38.1947 178.732 37.9867 178.732 37.72C178.732 37.4533 178.738 37.1867 178.748 36.92ZM182.863 37.128C182.863 37.0213 182.858 36.856 182.847 36.632C182.837 36.408 182.826 36.1787 182.815 35.944C182.815 35.7093 182.815 35.5333 182.815 35.416C182.815 35.3093 182.922 35.256 183.135 35.256C183.306 35.256 183.487 35.2987 183.679 35.384C183.882 35.4587 183.983 35.5653 183.983 35.704C183.983 35.8107 183.973 35.928 183.951 36.056C183.941 36.184 183.935 36.3387 183.935 36.52C184.149 36.168 184.453 35.864 184.847 35.608C185.242 35.352 185.717 35.224 186.271 35.224C186.591 35.224 186.89 35.2773 187.167 35.384C187.445 35.4907 187.669 35.6187 187.839 35.768C188.021 35.9173 188.111 36.056 188.111 36.184C188.111 36.3547 188.047 36.536 187.919 36.728C187.802 36.92 187.674 37.016 187.535 37.016C187.45 37.016 187.375 36.9627 187.311 36.856C187.205 36.6533 187.034 36.504 186.799 36.408C186.575 36.312 186.383 36.264 186.223 36.264C185.775 36.264 185.359 36.4027 184.975 36.68C184.602 36.9573 184.325 37.384 184.143 37.96C184.069 38.1947 184.015 38.456 183.983 38.744C183.951 39.032 183.93 39.3787 183.919 39.784C183.919 40.1893 183.919 40.696 183.919 41.304C183.919 41.6347 183.93 41.9547 183.951 42.264C183.983 42.5733 183.999 42.8187 183.999 43C183.999 43.1067 183.893 43.16 183.679 43.16C183.509 43.16 183.322 43.1173 183.119 43.032C182.927 42.9573 182.831 42.8507 182.831 42.712C182.831 42.6267 182.831 42.488 182.831 42.296C182.842 42.0933 182.847 41.896 182.847 41.704C182.858 41.512 182.863 41.3787 182.863 41.304V37.128ZM190.042 36.216H189.962C189.728 36.216 189.546 36.2267 189.418 36.248C189.29 36.2587 189.146 36.2693 188.986 36.28H188.97C188.832 36.28 188.714 36.2 188.618 36.04C188.522 35.88 188.474 35.7307 188.474 35.592C188.474 35.4427 188.533 35.368 188.65 35.368H190.042V34.552C190.042 34.4453 190.037 34.28 190.026 34.056C190.026 33.832 190.021 33.6027 190.01 33.368C190.01 33.1333 190.01 32.9573 190.01 32.84C190.01 32.7867 190.042 32.7493 190.106 32.728C190.17 32.696 190.245 32.68 190.33 32.68C190.501 32.68 190.682 32.7227 190.874 32.808C191.066 32.8827 191.162 32.9893 191.162 33.128C191.162 33.2133 191.157 33.3467 191.146 33.528C191.146 33.6987 191.141 33.88 191.13 34.072C191.13 34.264 191.13 34.424 191.13 34.552V35.32L191.578 35.304C191.77 35.2933 191.994 35.2773 192.25 35.256C192.506 35.2347 192.688 35.2187 192.794 35.208H192.81C192.949 35.208 193.066 35.288 193.162 35.448C193.269 35.608 193.322 35.7573 193.322 35.896C193.322 36.056 193.258 36.136 193.13 36.136C193.024 36.136 192.821 36.136 192.522 36.136C192.224 36.136 191.968 36.1413 191.754 36.152L191.13 36.168V41.272C191.13 41.6987 191.168 41.9707 191.242 42.088C191.317 42.2053 191.472 42.264 191.706 42.264C191.888 42.264 192.112 42.2053 192.378 42.088C192.656 41.9707 192.928 41.8107 193.194 41.608C193.376 41.4693 193.52 41.4 193.626 41.4C193.733 41.4 193.786 41.4587 193.786 41.576C193.786 41.672 193.717 41.816 193.578 42.008C193.45 42.1893 193.274 42.3813 193.05 42.584C192.837 42.776 192.597 42.9413 192.33 43.08C192.074 43.2187 191.818 43.288 191.562 43.288C191.008 43.288 190.613 43.1173 190.378 42.776C190.154 42.4347 190.042 41.9227 190.042 41.24V36.216ZM196.032 39.864V40.024C196.032 40.7173 196.208 41.2773 196.56 41.704C196.923 42.1307 197.371 42.344 197.904 42.344C198.587 42.344 199.211 42.2373 199.776 42.024C200.352 41.8 200.853 41.4587 201.28 41C201.355 40.9147 201.424 40.856 201.488 40.824C201.552 40.7813 201.605 40.76 201.648 40.76C201.755 40.76 201.808 40.824 201.808 40.952C201.808 41.048 201.728 41.2187 201.568 41.464C201.419 41.7093 201.184 41.976 200.864 42.264C200.544 42.5413 200.139 42.7813 199.648 42.984C199.157 43.1867 198.576 43.288 197.904 43.288C197.36 43.288 196.864 43.1547 196.416 42.888C195.979 42.6107 195.632 42.216 195.376 41.704C195.12 41.192 194.992 40.584 194.992 39.88V39.656C194.896 39.5813 194.816 39.496 194.752 39.4C194.688 39.304 194.656 39.2187 194.656 39.144C194.656 39.0053 194.757 38.936 194.96 38.936C194.971 38.936 194.992 38.936 195.024 38.936C195.067 38.9253 195.093 38.92 195.104 38.92C195.179 38.536 195.328 38.1307 195.552 37.704C195.787 37.2773 196.08 36.8773 196.432 36.504C196.784 36.12 197.184 35.8107 197.632 35.576C198.091 35.3413 198.581 35.224 199.104 35.224C199.765 35.224 200.288 35.3413 200.672 35.576C201.067 35.8 201.344 36.0933 201.504 36.456C201.675 36.808 201.76 37.176 201.76 37.56C201.76 37.9227 201.728 38.2107 201.664 38.424C201.611 38.6373 201.477 38.8133 201.264 38.952C201.051 39.08 200.704 39.2187 200.224 39.368C199.744 39.5173 199.168 39.64 198.496 39.736C197.835 39.8213 197.083 39.864 196.24 39.864H196.032ZM196.48 38.968C197.269 38.968 197.931 38.9253 198.464 38.84C198.997 38.744 199.44 38.648 199.792 38.552C200.176 38.4347 200.421 38.3067 200.528 38.168C200.645 38.0293 200.704 37.8213 200.704 37.544C200.704 36.616 200.165 36.152 199.088 36.152C198.693 36.152 198.331 36.2427 198 36.424C197.669 36.6053 197.376 36.84 197.12 37.128C196.875 37.416 196.667 37.7253 196.496 38.056C196.336 38.376 196.224 38.68 196.16 38.968H196.48Z" fill="black"/>
</svg>
