<svg width="270" height="73" viewBox="0 0 270 73" fill="none" xmlns="http://www.w3.org/2000/svg">
<path d="M24.4344 73H245.566L270 36.5L245.566 -2.98023e-06H24.4344L0 36.5L24.4344 73Z" fill="#5B9097"/>
<path d="M7.87576 36.5L30.398 68.2881H239.602L262.124 36.5L239.602 4.71182H30.398L7.87576 36.5Z" fill="#8FBEB0" stroke="black" stroke-width="2"/>
<mask id="path-3-inside-1_2098_513" fill="white">
<path d="M22.1798 36.4075L13.8985 25.8925L5.64577 36.3711L13.9271 46.8861L22.1798 36.4075Z"/>
</mask>
<path d="M22.1798 36.4075L13.8985 25.8925L5.64577 36.3711L13.9271 46.8861L22.1798 36.4075Z" fill="#5B9097"/>
<path d="M22.1798 36.4075L23.4173 34.8363L24.6547 36.4075L23.4173 37.9787L22.1798 36.4075ZM20.9424 37.9787L12.661 27.4637L15.1359 24.3213L23.4173 34.8363L20.9424 37.9787ZM12.6897 45.3149L20.9424 34.8363L23.4173 37.9787L15.1646 48.4573L12.6897 45.3149Z" fill="black" mask="url(#path-3-inside-1_2098_513)"/>
<path d="M17.6413 36.7227L12.0371 29.6069L6.45232 36.698L12.0565 43.8138L17.6413 36.7227Z" fill="black"/>
<mask id="path-6-inside-2_2098_513" fill="white">
<path d="M247.607 36.3711L255.889 46.8861L264.141 36.4075L255.86 25.8925L247.607 36.3711Z"/>
</mask>
<path d="M247.607 36.3711L255.889 46.8861L264.141 36.4075L255.86 25.8925L247.607 36.3711Z" fill="#5B9097"/>
<path d="M247.607 36.3711L246.37 37.9423L245.132 36.3711L246.37 34.7999L247.607 36.3711ZM248.845 34.7999L257.126 45.3149L254.651 48.4573L246.37 37.9423L248.845 34.7999ZM257.097 27.4637L248.845 37.9423L246.37 34.7999L254.623 24.3213L257.097 27.4637Z" fill="black" mask="url(#path-6-inside-2_2098_513)"/>
<path d="M263.232 36.7227L257.628 29.6069L252.043 36.698L257.648 43.8138L263.232 36.7227Z" fill="black"/>
<path d="M77.0965 26.056C77.0965 26.1627 77.0218 26.344 76.8725 26.6C76.7338 26.8453 76.5258 27.1227 76.2485 27.432C75.9712 27.7307 75.6245 28.024 75.2085 28.312C74.8032 28.5893 74.3338 28.8187 73.8005 29C73.2672 29.192 72.6752 29.288 72.0245 29.288C71.0965 29.288 70.2592 29.1173 69.5125 28.776C68.7765 28.4347 68.1952 27.9013 67.7685 27.176C67.3418 26.44 67.1285 25.4853 67.1285 24.312C67.1285 23.3733 67.2725 22.4987 67.5605 21.688C67.8485 20.8667 68.2485 20.152 68.7605 19.544C69.2832 18.9253 69.8912 18.4453 70.5845 18.104C71.2778 17.7627 72.0298 17.592 72.8405 17.592C72.9898 17.592 73.2032 17.6027 73.4805 17.624C73.7685 17.6453 74.0832 17.6987 74.4245 17.784C74.7658 17.8693 75.1072 18.008 75.4485 18.2C75.7898 18.3813 76.0938 18.632 76.3605 18.952C76.3925 18.9947 76.4085 19.0533 76.4085 19.128C76.4085 19.2773 76.3392 19.4427 76.2005 19.624C76.0618 19.8053 75.9178 19.896 75.7685 19.896C75.6725 19.896 75.5925 19.848 75.5285 19.752C75.3472 19.4747 75.1178 19.2613 74.8405 19.112C74.5632 18.952 74.2805 18.84 73.9925 18.776C73.7152 18.7013 73.4645 18.6587 73.2405 18.648C73.0165 18.6267 72.8618 18.616 72.7765 18.616C72.1792 18.616 71.6085 18.7547 71.0645 19.032C70.5312 19.2987 70.0512 19.688 69.6245 20.2C69.2085 20.7013 68.8778 21.2987 68.6325 21.992C68.3978 22.6853 68.2805 23.448 68.2805 24.28C68.2805 25.208 68.4405 25.9653 68.7605 26.552C69.0912 27.1387 69.5445 27.576 70.1205 27.864C70.6965 28.1413 71.3632 28.28 72.1205 28.28C72.6112 28.28 73.1285 28.1893 73.6725 28.008C74.2165 27.816 74.7392 27.5493 75.2405 27.208C75.7418 26.8667 76.1578 26.4773 76.4885 26.04C76.6165 25.88 76.7445 25.8 76.8725 25.8C77.0218 25.8 77.0965 25.8853 77.0965 26.056ZM80.6665 21.88C80.8798 21.72 81.1358 21.5707 81.4345 21.432C81.7332 21.2933 82.1065 21.224 82.5545 21.224C83.1625 21.224 83.7012 21.3787 84.1705 21.688C84.6398 21.9973 85.0025 22.44 85.2585 23.016C85.5252 23.5813 85.6585 24.2693 85.6585 25.08C85.6585 25.592 85.5732 26.0987 85.4025 26.6C85.2425 27.0907 84.9972 27.544 84.6665 27.96C84.3465 28.3653 83.9465 28.6907 83.4665 28.936C82.9972 29.1707 82.4532 29.288 81.8345 29.288C80.7678 29.288 79.9358 28.968 79.3385 28.328C78.7518 27.6773 78.4585 26.7973 78.4585 25.688C78.4585 25.2187 78.5332 24.7547 78.6825 24.296C78.8425 23.8267 79.0292 23.4 79.2425 23.016C79.4665 22.632 79.6852 22.3227 79.8985 22.088C80.1118 21.8533 80.2772 21.736 80.3945 21.736C80.5012 21.736 80.5918 21.784 80.6665 21.88ZM81.8345 28.312C82.3572 28.312 82.8212 28.1733 83.2265 27.896C83.6425 27.608 83.9732 27.2187 84.2185 26.728C84.4638 26.2373 84.5865 25.688 84.5865 25.08C84.5865 24.1947 84.4105 23.4907 84.0585 22.968C83.7172 22.4453 83.1838 22.184 82.4585 22.184C82.0318 22.184 81.6372 22.2853 81.2745 22.488C80.9225 22.6907 80.6132 22.9627 80.3465 23.304C80.0905 23.6453 79.8878 24.024 79.7385 24.44C79.5998 24.8453 79.5305 25.256 79.5305 25.672C79.5305 26.5467 79.7278 27.208 80.1225 27.656C80.5278 28.0933 81.0985 28.312 81.8345 28.312ZM93.3949 28.728C93.4055 28.6427 93.4109 28.4987 93.4109 28.296C93.4109 28.0933 93.4109 27.8853 93.4109 27.672C93.4215 27.448 93.4269 27.2773 93.4269 27.16V24.312C93.4269 23.6827 93.3415 23.1813 93.1709 22.808C93.0002 22.424 92.6482 22.232 92.1149 22.232C91.7522 22.232 91.3842 22.3013 91.0109 22.44C90.6482 22.5787 90.3175 22.808 90.0189 23.128C89.7202 23.448 89.4909 23.8747 89.3309 24.408C89.2562 24.6747 89.1975 24.9893 89.1549 25.352C89.1229 25.704 89.1015 26.056 89.0909 26.408C89.0909 26.76 89.0855 27.064 89.0749 27.32V27.576C89.0749 27.832 89.0802 28.0827 89.0909 28.328C89.1015 28.5733 89.1122 28.8027 89.1229 29.016C89.1229 29.1227 89.0215 29.176 88.8189 29.176C88.6482 29.176 88.4669 29.1333 88.2749 29.048C88.0829 28.9733 87.9869 28.8667 87.9869 28.728C87.9869 28.6427 87.9869 28.488 87.9869 28.264C87.9975 28.04 88.0029 27.8213 88.0029 27.608C88.0135 27.384 88.0189 27.2347 88.0189 27.16V23.176C88.0189 23.0693 88.0135 22.904 88.0029 22.68C87.9922 22.456 87.9815 22.2267 87.9709 21.992C87.9709 21.7573 87.9709 21.5813 87.9709 21.464C87.9709 21.3573 88.0722 21.304 88.2749 21.304C88.4455 21.304 88.6269 21.3467 88.8189 21.432C89.0109 21.5067 89.1069 21.6133 89.1069 21.752C89.1069 21.752 89.1015 21.8267 89.0909 21.976C89.0909 22.1253 89.0855 22.296 89.0749 22.488C89.0749 22.68 89.0749 22.8453 89.0749 22.984C89.4162 22.4187 89.8589 21.9867 90.4029 21.688C90.9575 21.3893 91.5282 21.24 92.1149 21.24C92.6269 21.24 93.0375 21.336 93.3469 21.528C93.6669 21.7093 93.9069 21.9493 94.0669 22.248C94.2375 22.5467 94.3495 22.872 94.4029 23.224C94.4562 23.576 94.4829 23.9173 94.4829 24.248V27.32C94.4829 27.384 94.4882 27.528 94.4989 27.752C94.5095 27.976 94.5149 28.2107 94.5149 28.456C94.5255 28.7013 94.5309 28.888 94.5309 29.016C94.5309 29.1227 94.4295 29.176 94.2269 29.176C94.0562 29.176 93.8749 29.1333 93.6829 29.048C93.4909 28.9733 93.3949 28.872 93.3949 28.744V28.728ZM99.0731 25.128C98.4758 24.9893 98.0278 24.776 97.7291 24.488C97.4305 24.1893 97.2811 23.7947 97.2811 23.304C97.2811 22.888 97.4145 22.5253 97.6811 22.216C97.9478 21.9067 98.3051 21.6667 98.7531 21.496C99.2011 21.3147 99.6865 21.224 100.209 21.224C100.828 21.224 101.334 21.3147 101.729 21.496C102.124 21.6667 102.47 21.912 102.769 22.232C102.79 22.2533 102.801 22.3013 102.801 22.376C102.801 22.5147 102.742 22.6693 102.625 22.84C102.518 23.0107 102.406 23.096 102.289 23.096C102.225 23.096 102.14 23.0267 102.033 22.888C101.873 22.6427 101.67 22.4667 101.425 22.36C101.19 22.2427 100.961 22.1733 100.737 22.152C100.513 22.12 100.337 22.104 100.209 22.104C99.5905 22.104 99.1211 22.2267 98.8011 22.472C98.4811 22.7067 98.3211 22.9947 98.3211 23.336C98.3211 23.5493 98.3905 23.7307 98.5291 23.88C98.6785 24.0293 98.9718 24.1573 99.4091 24.264L100.945 24.632C101.638 24.792 102.182 25.0533 102.577 25.416C102.982 25.7787 103.185 26.2907 103.185 26.952C103.185 27.3787 103.057 27.768 102.801 28.12C102.556 28.472 102.204 28.7547 101.745 28.968C101.286 29.1813 100.742 29.288 100.113 29.288C99.4945 29.288 98.9771 29.2133 98.5611 29.064C98.1558 28.9147 97.8305 28.7387 97.5851 28.536C97.3398 28.3333 97.1638 28.1467 97.0571 27.976C96.9505 27.8053 96.8971 27.6933 96.8971 27.64C96.8971 27.48 96.9718 27.3147 97.1211 27.144C97.2811 26.9627 97.4198 26.872 97.5371 26.872C97.6118 26.872 97.6651 26.9093 97.6971 26.984C97.7825 27.1973 97.8998 27.4107 98.0491 27.624C98.2091 27.8373 98.4491 28.0133 98.7691 28.152C99.0891 28.2907 99.5371 28.36 100.113 28.36C100.764 28.36 101.26 28.2213 101.601 27.944C101.953 27.6667 102.129 27.3467 102.129 26.984C102.129 26.6107 102.033 26.3067 101.841 26.072C101.649 25.8373 101.26 25.6507 100.673 25.512L99.0731 25.128ZM112.109 21.688C112.077 21.88 112.035 22.2853 111.981 22.904C111.939 23.5227 111.917 24.2907 111.917 25.208C111.917 25.2933 111.917 25.464 111.917 25.72C111.928 25.9653 111.949 26.2533 111.981 26.584C112.024 26.9147 112.088 27.2453 112.173 27.576C112.259 27.9067 112.376 28.1947 112.525 28.44C112.536 28.4613 112.541 28.4933 112.541 28.536C112.541 28.6533 112.467 28.7973 112.317 28.968C112.179 29.128 112.019 29.208 111.837 29.208C111.699 29.208 111.581 29.1387 111.485 29C111.389 28.8507 111.309 28.664 111.245 28.44C111.181 28.216 111.128 27.992 111.085 27.768C111.053 27.5333 111.032 27.336 111.021 27.176C110.733 27.7627 110.317 28.264 109.773 28.68C109.24 29.0853 108.643 29.288 107.981 29.288C107.363 29.288 106.877 29.144 106.525 28.856C106.184 28.568 105.939 28.1947 105.789 27.736C105.651 27.2773 105.581 26.7867 105.581 26.264V23.112C105.581 23.048 105.576 22.904 105.565 22.68C105.555 22.456 105.544 22.2213 105.533 21.976C105.533 21.72 105.533 21.5333 105.533 21.416C105.533 21.3093 105.64 21.256 105.853 21.256C106.024 21.256 106.205 21.2987 106.397 21.384C106.6 21.4587 106.701 21.5653 106.701 21.704C106.701 21.7893 106.696 21.9227 106.685 22.104C106.685 22.2747 106.68 22.456 106.669 22.648C106.669 22.8293 106.669 22.984 106.669 23.112V26.2C106.669 26.8187 106.781 27.3307 107.005 27.736C107.229 28.1307 107.555 28.328 107.981 28.328C108.419 28.328 108.851 28.152 109.277 27.8C109.715 27.448 110.083 26.9627 110.381 26.344C110.691 25.7147 110.867 24.9947 110.909 24.184C110.92 24.0133 110.925 23.7947 110.925 23.528C110.925 23.2507 110.925 22.968 110.925 22.68V21.4C110.925 21.2933 111.037 21.24 111.261 21.24C111.443 21.24 111.629 21.2773 111.821 21.352C112.013 21.4267 112.109 21.528 112.109 21.656V21.688ZM115.099 19.56C115.099 19.4533 115.094 19.288 115.083 19.064C115.072 18.84 115.062 18.6107 115.051 18.376C115.051 18.1413 115.051 17.9653 115.051 17.848C115.051 17.7947 115.083 17.7573 115.147 17.736C115.211 17.704 115.286 17.688 115.371 17.688C115.552 17.688 115.739 17.7307 115.931 17.816C116.134 17.8907 116.235 17.9973 116.235 18.136C116.235 18.2213 116.23 18.3547 116.219 18.536C116.219 18.7067 116.214 18.888 116.203 19.08C116.203 19.272 116.203 19.432 116.203 19.56V27.32C116.203 27.384 116.208 27.528 116.219 27.752C116.23 27.976 116.235 28.2107 116.235 28.456C116.246 28.7013 116.251 28.888 116.251 29.016C116.251 29.0693 116.219 29.1067 116.155 29.128C116.091 29.16 116.016 29.176 115.931 29.176C115.76 29.176 115.574 29.1333 115.371 29.048C115.168 28.9733 115.067 28.8667 115.067 28.728C115.067 28.6427 115.067 28.504 115.067 28.312C115.078 28.1093 115.083 27.912 115.083 27.72C115.094 27.528 115.099 27.3947 115.099 27.32V19.56ZM119.558 22.216H119.478C119.243 22.216 119.062 22.2267 118.934 22.248C118.806 22.2587 118.662 22.2693 118.502 22.28H118.486C118.347 22.28 118.23 22.2 118.134 22.04C118.038 21.88 117.99 21.7307 117.99 21.592C117.99 21.4427 118.049 21.368 118.166 21.368H119.558V20.552C119.558 20.4453 119.553 20.28 119.542 20.056C119.542 19.832 119.537 19.6027 119.526 19.368C119.526 19.1333 119.526 18.9573 119.526 18.84C119.526 18.7867 119.558 18.7493 119.622 18.728C119.686 18.696 119.761 18.68 119.846 18.68C120.017 18.68 120.198 18.7227 120.39 18.808C120.582 18.8827 120.678 18.9893 120.678 19.128C120.678 19.2133 120.673 19.3467 120.662 19.528C120.662 19.6987 120.657 19.88 120.646 20.072C120.646 20.264 120.646 20.424 120.646 20.552V21.32L121.094 21.304C121.286 21.2933 121.51 21.2773 121.766 21.256C122.022 21.2347 122.203 21.2187 122.31 21.208H122.326C122.465 21.208 122.582 21.288 122.678 21.448C122.785 21.608 122.838 21.7573 122.838 21.896C122.838 22.056 122.774 22.136 122.646 22.136C122.539 22.136 122.337 22.136 122.038 22.136C121.739 22.136 121.483 22.1413 121.27 22.152L120.646 22.168V27.272C120.646 27.6987 120.683 27.9707 120.758 28.088C120.833 28.2053 120.987 28.264 121.222 28.264C121.403 28.264 121.627 28.2053 121.894 28.088C122.171 27.9707 122.443 27.8107 122.71 27.608C122.891 27.4693 123.035 27.4 123.142 27.4C123.249 27.4 123.302 27.4587 123.302 27.576C123.302 27.672 123.233 27.816 123.094 28.008C122.966 28.1893 122.79 28.3813 122.566 28.584C122.353 28.776 122.113 28.9413 121.846 29.08C121.59 29.2187 121.334 29.288 121.078 29.288C120.523 29.288 120.129 29.1173 119.894 28.776C119.67 28.4347 119.558 27.9227 119.558 27.24V22.216ZM125.548 25.864V26.024C125.548 26.7173 125.724 27.2773 126.076 27.704C126.438 28.1307 126.886 28.344 127.42 28.344C128.102 28.344 128.726 28.2373 129.292 28.024C129.868 27.8 130.369 27.4587 130.796 27C130.87 26.9147 130.94 26.856 131.004 26.824C131.068 26.7813 131.121 26.76 131.164 26.76C131.27 26.76 131.324 26.824 131.324 26.952C131.324 27.048 131.244 27.2187 131.084 27.464C130.934 27.7093 130.7 27.976 130.38 28.264C130.06 28.5413 129.654 28.7813 129.164 28.984C128.673 29.1867 128.092 29.288 127.42 29.288C126.876 29.288 126.38 29.1547 125.932 28.888C125.494 28.6107 125.148 28.216 124.892 27.704C124.636 27.192 124.508 26.584 124.508 25.88V25.656C124.412 25.5813 124.332 25.496 124.268 25.4C124.204 25.304 124.172 25.2187 124.172 25.144C124.172 25.0053 124.273 24.936 124.476 24.936C124.486 24.936 124.508 24.936 124.54 24.936C124.582 24.9253 124.609 24.92 124.62 24.92C124.694 24.536 124.844 24.1307 125.068 23.704C125.302 23.2773 125.596 22.8773 125.948 22.504C126.3 22.12 126.7 21.8107 127.148 21.576C127.606 21.3413 128.097 21.224 128.62 21.224C129.281 21.224 129.804 21.3413 130.188 21.576C130.582 21.8 130.86 22.0933 131.02 22.456C131.19 22.808 131.276 23.176 131.276 23.56C131.276 23.9227 131.244 24.2107 131.18 24.424C131.126 24.6373 130.993 24.8133 130.78 24.952C130.566 25.08 130.22 25.2187 129.74 25.368C129.26 25.5173 128.684 25.64 128.012 25.736C127.35 25.8213 126.598 25.864 125.756 25.864H125.548ZM125.996 24.968C126.785 24.968 127.446 24.9253 127.98 24.84C128.513 24.744 128.956 24.648 129.308 24.552C129.692 24.4347 129.937 24.3067 130.044 24.168C130.161 24.0293 130.22 23.8213 130.22 23.544C130.22 22.616 129.681 22.152 128.604 22.152C128.209 22.152 127.846 22.2427 127.516 22.424C127.185 22.6053 126.892 22.84 126.636 23.128C126.39 23.416 126.182 23.7253 126.012 24.056C125.852 24.376 125.74 24.68 125.676 24.968H125.996ZM133.707 23.128C133.707 23.0213 133.702 22.856 133.691 22.632C133.68 22.408 133.67 22.1787 133.659 21.944C133.659 21.7093 133.659 21.5333 133.659 21.416C133.659 21.3093 133.766 21.256 133.979 21.256C134.15 21.256 134.331 21.2987 134.523 21.384C134.726 21.4587 134.827 21.5653 134.827 21.704C134.827 21.8107 134.816 21.928 134.795 22.056C134.784 22.184 134.779 22.3387 134.779 22.52C134.992 22.168 135.296 21.864 135.691 21.608C136.086 21.352 136.56 21.224 137.115 21.224C137.435 21.224 137.734 21.2773 138.011 21.384C138.288 21.4907 138.512 21.6187 138.683 21.768C138.864 21.9173 138.955 22.056 138.955 22.184C138.955 22.3547 138.891 22.536 138.763 22.728C138.646 22.92 138.518 23.016 138.379 23.016C138.294 23.016 138.219 22.9627 138.155 22.856C138.048 22.6533 137.878 22.504 137.643 22.408C137.419 22.312 137.227 22.264 137.067 22.264C136.619 22.264 136.203 22.4027 135.819 22.68C135.446 22.9573 135.168 23.384 134.987 23.96C134.912 24.1947 134.859 24.456 134.827 24.744C134.795 25.032 134.774 25.3787 134.763 25.784C134.763 26.1893 134.763 26.696 134.763 27.304C134.763 27.6347 134.774 27.9547 134.795 28.264C134.827 28.5733 134.843 28.8187 134.843 29C134.843 29.1067 134.736 29.16 134.523 29.16C134.352 29.16 134.166 29.1173 133.963 29.032C133.771 28.9573 133.675 28.8507 133.675 28.712C133.675 28.6267 133.675 28.488 133.675 28.296C133.686 28.0933 133.691 27.896 133.691 27.704C133.702 27.512 133.707 27.3787 133.707 27.304V23.128ZM146.224 19.56C146.224 19.4533 146.219 19.288 146.208 19.064C146.197 18.84 146.187 18.6107 146.176 18.376C146.176 18.1413 146.176 17.9653 146.176 17.848C146.176 17.7947 146.208 17.7573 146.272 17.736C146.336 17.704 146.411 17.688 146.496 17.688C146.677 17.688 146.864 17.7307 147.056 17.816C147.259 17.8907 147.36 17.9973 147.36 18.136C147.36 18.2213 147.355 18.3547 147.344 18.536C147.344 18.7067 147.339 18.888 147.328 19.08C147.328 19.272 147.328 19.432 147.328 19.56V27.32C147.328 27.384 147.333 27.528 147.344 27.752C147.355 27.976 147.36 28.2107 147.36 28.456C147.371 28.7013 147.376 28.888 147.376 29.016C147.376 29.0693 147.344 29.1067 147.28 29.128C147.216 29.16 147.141 29.176 147.056 29.176C146.885 29.176 146.699 29.1333 146.496 29.048C146.293 28.9733 146.192 28.8667 146.192 28.728C146.192 28.6427 146.192 28.504 146.192 28.312C146.203 28.1093 146.208 27.912 146.208 27.72C146.219 27.528 146.224 27.3947 146.224 27.32V19.56ZM156.699 21.688C156.667 21.9227 156.635 22.2373 156.603 22.632C156.582 23.016 156.56 23.4267 156.539 23.864C156.528 24.2907 156.518 24.6907 156.507 25.064C156.496 25.4373 156.491 25.72 156.491 25.912C156.491 26.0613 156.496 26.2853 156.507 26.584C156.528 26.872 156.576 27.1813 156.651 27.512C156.736 27.8427 156.87 28.152 157.051 28.44C157.072 28.4827 157.083 28.5147 157.083 28.536C157.083 28.6533 157.008 28.7973 156.859 28.968C156.72 29.128 156.56 29.208 156.379 29.208C156.219 29.208 156.075 29.096 155.947 28.872C155.83 28.6373 155.734 28.36 155.659 28.04C155.595 27.7093 155.547 27.4 155.515 27.112C155.12 27.8587 154.64 28.408 154.075 28.76C153.52 29.112 152.944 29.288 152.347 29.288C151.568 29.288 150.944 29.0267 150.475 28.504C150.006 27.9707 149.771 27.2027 149.771 26.2C149.771 25.5173 149.883 24.8773 150.107 24.28C150.331 23.6827 150.63 23.1547 151.003 22.696C151.387 22.2373 151.814 21.88 152.283 21.624C152.752 21.3573 153.232 21.224 153.723 21.224C154.096 21.224 154.438 21.3093 154.747 21.48C155.056 21.64 155.302 21.9067 155.483 22.28V21.4C155.483 21.2933 155.595 21.24 155.819 21.24C156 21.24 156.192 21.2773 156.395 21.352C156.598 21.4267 156.699 21.528 156.699 21.656V21.688ZM155.467 22.92C155.371 23.016 155.28 23.064 155.195 23.064C155.152 23.064 155.115 23.0427 155.083 23C154.902 22.6907 154.688 22.472 154.443 22.344C154.208 22.216 153.968 22.152 153.723 22.152C153.392 22.152 153.056 22.2533 152.715 22.456C152.384 22.648 152.075 22.9253 151.787 23.288C151.51 23.64 151.286 24.0613 151.115 24.552C150.944 25.032 150.859 25.5547 150.859 26.12C150.859 26.9307 150.998 27.5013 151.275 27.832C151.552 28.1627 151.904 28.328 152.331 28.328C152.843 28.328 153.328 28.1627 153.787 27.832C154.246 27.4907 154.624 27.0213 154.923 26.424C155.232 25.8267 155.403 25.1333 155.435 24.344C155.446 24.1947 155.451 23.9867 155.451 23.72C155.451 23.4533 155.456 23.1867 155.467 22.92ZM171.448 26.712C171.448 26.776 171.373 26.9467 171.224 27.224C171.075 27.4907 170.845 27.784 170.536 28.104C170.227 28.424 169.832 28.7013 169.352 28.936C168.883 29.1707 168.323 29.288 167.672 29.288C167.117 29.288 166.6 29.16 166.12 28.904C165.651 28.6373 165.272 28.2533 164.984 27.752C164.707 27.24 164.568 26.6213 164.568 25.896C164.568 25.256 164.685 24.6533 164.92 24.088C165.165 23.5227 165.485 23.0267 165.88 22.6C166.275 22.1733 166.717 21.8373 167.208 21.592C167.699 21.3467 168.189 21.224 168.68 21.224C169.117 21.224 169.485 21.288 169.784 21.416C170.083 21.5333 170.317 21.6773 170.488 21.848C170.669 22.0187 170.797 22.1787 170.872 22.328C170.957 22.4667 171 22.552 171 22.584C171 22.7547 170.92 22.92 170.76 23.08C170.6 23.24 170.456 23.32 170.328 23.32C170.264 23.32 170.216 23.2933 170.184 23.24C170.109 23.0907 170.035 22.9467 169.96 22.808C169.885 22.6693 169.789 22.5627 169.672 22.488C169.363 22.2747 169.043 22.168 168.712 22.168C168.381 22.168 168.035 22.264 167.672 22.456C167.32 22.648 166.989 22.9147 166.68 23.256C166.381 23.5867 166.136 23.9707 165.944 24.408C165.752 24.8453 165.656 25.3147 165.656 25.816C165.656 26.3707 165.757 26.84 165.96 27.224C166.173 27.5973 166.435 27.88 166.744 28.072C167.053 28.264 167.363 28.36 167.672 28.36C168.131 28.36 168.557 28.28 168.952 28.12C169.347 27.96 169.709 27.7573 170.04 27.512C170.381 27.256 170.675 27.0053 170.92 26.76C171.08 26.6 171.208 26.52 171.304 26.52C171.4 26.52 171.448 26.584 171.448 26.712ZM179.98 21.688C179.948 21.9227 179.916 22.2373 179.884 22.632C179.863 23.016 179.842 23.4267 179.82 23.864C179.81 24.2907 179.799 24.6907 179.788 25.064C179.778 25.4373 179.772 25.72 179.772 25.912C179.772 26.0613 179.778 26.2853 179.788 26.584C179.81 26.872 179.858 27.1813 179.932 27.512C180.018 27.8427 180.151 28.152 180.332 28.44C180.354 28.4827 180.364 28.5147 180.364 28.536C180.364 28.6533 180.29 28.7973 180.14 28.968C180.002 29.128 179.842 29.208 179.66 29.208C179.5 29.208 179.356 29.096 179.228 28.872C179.111 28.6373 179.015 28.36 178.94 28.04C178.876 27.7093 178.828 27.4 178.796 27.112C178.402 27.8587 177.922 28.408 177.356 28.76C176.802 29.112 176.226 29.288 175.628 29.288C174.85 29.288 174.226 29.0267 173.756 28.504C173.287 27.9707 173.052 27.2027 173.052 26.2C173.052 25.5173 173.164 24.8773 173.388 24.28C173.612 23.6827 173.911 23.1547 174.284 22.696C174.668 22.2373 175.095 21.88 175.564 21.624C176.034 21.3573 176.514 21.224 177.004 21.224C177.378 21.224 177.719 21.3093 178.028 21.48C178.338 21.64 178.583 21.9067 178.764 22.28V21.4C178.764 21.2933 178.876 21.24 179.1 21.24C179.282 21.24 179.474 21.2773 179.676 21.352C179.879 21.4267 179.98 21.528 179.98 21.656V21.688ZM178.748 22.92C178.652 23.016 178.562 23.064 178.476 23.064C178.434 23.064 178.396 23.0427 178.364 23C178.183 22.6907 177.97 22.472 177.724 22.344C177.49 22.216 177.25 22.152 177.004 22.152C176.674 22.152 176.338 22.2533 175.996 22.456C175.666 22.648 175.356 22.9253 175.068 23.288C174.791 23.64 174.567 24.0613 174.396 24.552C174.226 25.032 174.14 25.5547 174.14 26.12C174.14 26.9307 174.279 27.5013 174.556 27.832C174.834 28.1627 175.186 28.328 175.612 28.328C176.124 28.328 176.61 28.1627 177.068 27.832C177.527 27.4907 177.906 27.0213 178.204 26.424C178.514 25.8267 178.684 25.1333 178.716 24.344C178.727 24.1947 178.732 23.9867 178.732 23.72C178.732 23.4533 178.738 23.1867 178.748 22.92ZM182.863 23.128C182.863 23.0213 182.858 22.856 182.847 22.632C182.837 22.408 182.826 22.1787 182.815 21.944C182.815 21.7093 182.815 21.5333 182.815 21.416C182.815 21.3093 182.922 21.256 183.135 21.256C183.306 21.256 183.487 21.2987 183.679 21.384C183.882 21.4587 183.983 21.5653 183.983 21.704C183.983 21.8107 183.973 21.928 183.951 22.056C183.941 22.184 183.935 22.3387 183.935 22.52C184.149 22.168 184.453 21.864 184.847 21.608C185.242 21.352 185.717 21.224 186.271 21.224C186.591 21.224 186.89 21.2773 187.167 21.384C187.445 21.4907 187.669 21.6187 187.839 21.768C188.021 21.9173 188.111 22.056 188.111 22.184C188.111 22.3547 188.047 22.536 187.919 22.728C187.802 22.92 187.674 23.016 187.535 23.016C187.45 23.016 187.375 22.9627 187.311 22.856C187.205 22.6533 187.034 22.504 186.799 22.408C186.575 22.312 186.383 22.264 186.223 22.264C185.775 22.264 185.359 22.4027 184.975 22.68C184.602 22.9573 184.325 23.384 184.143 23.96C184.069 24.1947 184.015 24.456 183.983 24.744C183.951 25.032 183.93 25.3787 183.919 25.784C183.919 26.1893 183.919 26.696 183.919 27.304C183.919 27.6347 183.93 27.9547 183.951 28.264C183.983 28.5733 183.999 28.8187 183.999 29C183.999 29.1067 183.893 29.16 183.679 29.16C183.509 29.16 183.322 29.1173 183.119 29.032C182.927 28.9573 182.831 28.8507 182.831 28.712C182.831 28.6267 182.831 28.488 182.831 28.296C182.842 28.0933 182.847 27.896 182.847 27.704C182.858 27.512 182.863 27.3787 182.863 27.304V23.128ZM190.042 22.216H189.962C189.728 22.216 189.546 22.2267 189.418 22.248C189.29 22.2587 189.146 22.2693 188.986 22.28H188.97C188.832 22.28 188.714 22.2 188.618 22.04C188.522 21.88 188.474 21.7307 188.474 21.592C188.474 21.4427 188.533 21.368 188.65 21.368H190.042V20.552C190.042 20.4453 190.037 20.28 190.026 20.056C190.026 19.832 190.021 19.6027 190.01 19.368C190.01 19.1333 190.01 18.9573 190.01 18.84C190.01 18.7867 190.042 18.7493 190.106 18.728C190.17 18.696 190.245 18.68 190.33 18.68C190.501 18.68 190.682 18.7227 190.874 18.808C191.066 18.8827 191.162 18.9893 191.162 19.128C191.162 19.2133 191.157 19.3467 191.146 19.528C191.146 19.6987 191.141 19.88 191.13 20.072C191.13 20.264 191.13 20.424 191.13 20.552V21.32L191.578 21.304C191.77 21.2933 191.994 21.2773 192.25 21.256C192.506 21.2347 192.688 21.2187 192.794 21.208H192.81C192.949 21.208 193.066 21.288 193.162 21.448C193.269 21.608 193.322 21.7573 193.322 21.896C193.322 22.056 193.258 22.136 193.13 22.136C193.024 22.136 192.821 22.136 192.522 22.136C192.224 22.136 191.968 22.1413 191.754 22.152L191.13 22.168V27.272C191.13 27.6987 191.168 27.9707 191.242 28.088C191.317 28.2053 191.472 28.264 191.706 28.264C191.888 28.264 192.112 28.2053 192.378 28.088C192.656 27.9707 192.928 27.8107 193.194 27.608C193.376 27.4693 193.52 27.4 193.626 27.4C193.733 27.4 193.786 27.4587 193.786 27.576C193.786 27.672 193.717 27.816 193.578 28.008C193.45 28.1893 193.274 28.3813 193.05 28.584C192.837 28.776 192.597 28.9413 192.33 29.08C192.074 29.2187 191.818 29.288 191.562 29.288C191.008 29.288 190.613 29.1173 190.378 28.776C190.154 28.4347 190.042 27.9227 190.042 27.24V22.216ZM196.032 25.864V26.024C196.032 26.7173 196.208 27.2773 196.56 27.704C196.923 28.1307 197.371 28.344 197.904 28.344C198.587 28.344 199.211 28.2373 199.776 28.024C200.352 27.8 200.853 27.4587 201.28 27C201.355 26.9147 201.424 26.856 201.488 26.824C201.552 26.7813 201.605 26.76 201.648 26.76C201.755 26.76 201.808 26.824 201.808 26.952C201.808 27.048 201.728 27.2187 201.568 27.464C201.419 27.7093 201.184 27.976 200.864 28.264C200.544 28.5413 200.139 28.7813 199.648 28.984C199.157 29.1867 198.576 29.288 197.904 29.288C197.36 29.288 196.864 29.1547 196.416 28.888C195.979 28.6107 195.632 28.216 195.376 27.704C195.12 27.192 194.992 26.584 194.992 25.88V25.656C194.896 25.5813 194.816 25.496 194.752 25.4C194.688 25.304 194.656 25.2187 194.656 25.144C194.656 25.0053 194.757 24.936 194.96 24.936C194.971 24.936 194.992 24.936 195.024 24.936C195.067 24.9253 195.093 24.92 195.104 24.92C195.179 24.536 195.328 24.1307 195.552 23.704C195.787 23.2773 196.08 22.8773 196.432 22.504C196.784 22.12 197.184 21.8107 197.632 21.576C198.091 21.3413 198.581 21.224 199.104 21.224C199.765 21.224 200.288 21.3413 200.672 21.576C201.067 21.8 201.344 22.0933 201.504 22.456C201.675 22.808 201.76 23.176 201.76 23.56C201.76 23.9227 201.728 24.2107 201.664 24.424C201.611 24.6373 201.477 24.8133 201.264 24.952C201.051 25.08 200.704 25.2187 200.224 25.368C199.744 25.5173 199.168 25.64 198.496 25.736C197.835 25.8213 197.083 25.864 196.24 25.864H196.032ZM196.48 24.968C197.269 24.968 197.931 24.9253 198.464 24.84C198.997 24.744 199.44 24.648 199.792 24.552C200.176 24.4347 200.421 24.3067 200.528 24.168C200.645 24.0293 200.704 23.8213 200.704 23.544C200.704 22.616 200.165 22.152 199.088 22.152C198.693 22.152 198.331 22.2427 198 22.424C197.669 22.6053 197.376 22.84 197.12 23.128C196.875 23.416 196.667 23.7253 196.496 24.056C196.336 24.376 196.224 24.68 196.16 24.968H196.48Z" fill="black"/>
</svg>
