<svg width="473" height="145" viewBox="0 0 473 145" fill="none" xmlns="http://www.w3.org/2000/svg">
<path d="M42.8054 0H430.195L473 72.5L430.195 145H42.8054L0 72.5L42.8054 0Z" fill="#F7B539"/>
<path d="M420.098 8.3728L460.17 72.4998L420.098 136.627H52.9012L12.8289 72.4998L52.9012 8.3728H420.098Z" fill="#F5DCAC" stroke="black" stroke-width="2"/>
<mask id="path-3-inside-1_51_114" fill="white">
<path d="M38.8558 72.6841L24.3481 93.57L9.89057 72.7563L24.3983 51.8704L38.8558 72.6841Z"/>
</mask>
<path d="M38.8558 72.6841L24.3481 93.57L9.89057 72.7563L24.3983 51.8704L38.8558 72.6841Z" fill="#F7B539"/>
<path d="M38.8558 72.6841L39.9967 74.3267L41.1377 72.6841L39.9967 71.0415L38.8558 72.6841ZM37.7148 71.0415L23.2071 91.9274L25.489 95.2126L39.9967 74.3267L37.7148 71.0415ZM23.2573 53.513L37.7148 74.3267L39.9967 71.0415L25.5392 50.2278L23.2573 53.513Z" fill="black" mask="url(#path-3-inside-1_51_114)"/>
<path d="M30.9049 72.0576L21.0872 86.1916L11.3035 72.1065L21.1212 57.9725L30.9049 72.0576Z" fill="black"/>
<mask id="path-6-inside-2_51_114" fill="white">
<path d="M433.771 72.7561L448.279 51.8702L462.737 72.6838L448.229 93.5698L433.771 72.7561Z"/>
</mask>
<path d="M433.771 72.7561L448.279 51.8702L462.737 72.6838L448.229 93.5698L433.771 72.7561Z" fill="#F7B539"/>
<path d="M433.771 72.7561L432.63 71.1135L431.489 72.7561L432.63 74.3987L433.771 72.7561ZM434.912 74.3987L449.42 53.5128L447.138 50.2276L432.63 71.1135L434.912 74.3987ZM449.37 91.9272L434.912 71.1135L432.63 74.3987L447.088 95.2124L449.37 91.9272Z" fill="black" mask="url(#path-6-inside-2_51_114)"/>
<path d="M461.144 72.0576L451.326 86.1916L441.543 72.1065L451.36 57.9725L461.144 72.0576Z" fill="black"/>
<path d="M103.77 53.3237C103.77 54.1237 103.79 54.8637 103.83 55.5437C103.89 56.2037 103.96 56.6537 104.04 56.8937L98.2796 64.2137L97.1396 63.3137C98.2796 61.8737 99.0396 60.6537 99.4196 59.6537C99.8196 58.6537 100.02 57.4237 100.02 55.9637V35.0837L96.2996 33.9137L96.8996 32.7137H106.62V33.6437L103.77 35.8637V53.3237ZM119.244 40.0637C120.564 40.0637 121.744 40.4137 122.784 41.1137C123.844 41.7937 124.664 42.7237 125.244 43.9037C125.844 45.0837 126.144 46.3837 126.144 47.8037C126.144 49.3437 125.674 50.7937 124.734 52.1537C123.794 53.4937 122.614 54.5737 121.194 55.3937C119.794 56.1937 118.434 56.5937 117.114 56.5937C115.794 56.5937 114.604 56.2537 113.544 55.5737C112.504 54.8737 111.684 53.9337 111.084 52.7537C110.504 51.5737 110.214 50.2737 110.214 48.8537C110.214 47.3137 110.684 45.8737 111.624 44.5337C112.564 43.1737 113.734 42.0937 115.134 41.2937C116.554 40.4737 117.924 40.0637 119.244 40.0637ZM117.504 42.5837C115.244 42.5837 114.114 44.1937 114.114 47.4137C114.114 49.3137 114.524 50.9037 115.344 52.1837C116.164 53.4437 117.334 54.0737 118.854 54.0737C121.114 54.0737 122.244 52.4537 122.244 49.2137C122.244 47.3337 121.834 45.7637 121.014 44.5037C120.194 43.2237 119.024 42.5837 117.504 42.5837ZM146.975 56.2937H141.275V53.1737L137.465 56.3537C137.045 56.5137 136.495 56.5937 135.815 56.5937C134.455 56.5937 133.375 56.1837 132.575 55.3637C131.775 54.5237 131.375 53.3937 131.375 51.9737V44.8037L128.705 43.2437V42.3137L133.835 39.7937H134.975V50.4737C134.975 51.5737 135.145 52.3437 135.485 52.7837C135.825 53.2237 136.435 53.4437 137.315 53.4437C137.935 53.4437 138.545 53.3337 139.145 53.1137C139.745 52.8737 140.455 52.4137 141.275 51.7337V44.8037L138.605 43.2437V42.3137L143.735 39.7937H144.875V54.0437L147.575 55.0937L146.975 56.2937ZM160.512 56.3537C159.712 56.5137 158.752 56.5937 157.632 56.5937C156.312 56.5937 155.122 56.2537 154.062 55.5737C153.022 54.8737 152.202 53.9337 151.602 52.7537C151.022 51.5737 150.732 50.2737 150.732 48.8537C150.732 47.3137 151.202 45.8737 152.142 44.5337C153.082 43.1737 154.252 42.0937 155.652 41.2937C157.072 40.4737 158.442 40.0637 159.762 40.0637C161.662 40.0637 163.132 40.8137 164.172 42.3137C165.232 43.8137 165.762 45.7937 165.762 48.2537H154.662C154.782 49.9537 155.242 51.3437 156.042 52.4237C156.862 53.5037 157.972 54.0437 159.372 54.0437C160.672 54.0437 162.522 53.0337 164.922 51.0137L165.822 52.1537L160.512 56.3537ZM158.022 42.5837C155.862 42.5837 154.732 44.0637 154.632 47.0237H161.652C161.472 45.9437 161.282 45.1237 161.082 44.5637C160.902 43.9837 160.572 43.5137 160.092 43.1537C159.632 42.7737 158.942 42.5837 158.022 42.5837ZM180.389 40.0937C181.049 40.0937 181.629 40.2737 182.129 40.6337C182.629 40.9937 183.019 41.4937 183.299 42.1337L181.319 44.6237H180.179C180.099 44.1237 179.949 43.7737 179.729 43.5737C179.529 43.3537 179.249 43.2437 178.889 43.2437C178.449 43.2437 177.979 43.3637 177.479 43.6037C176.999 43.8237 176.449 44.2537 175.829 44.8937V53.8337L180.029 55.1237L179.429 56.3237H169.559V55.3937L172.229 53.2937V44.8037L169.559 43.2437V42.3137L174.689 39.7937L175.619 43.4837L178.739 40.3037C179.159 40.1437 179.709 40.0637 180.389 40.0637V40.0937ZM209.125 56.2937H203.425V53.6837L200.035 56.3537C199.635 56.5137 199.135 56.5937 198.535 56.5937C196.815 56.5937 195.565 56.1637 194.785 55.3037C194.025 54.4437 193.645 53.4137 193.645 52.2137C193.645 51.4937 193.905 50.7837 194.425 50.0837C194.945 49.3837 195.685 48.7237 196.645 48.1037H203.425V46.1837C203.425 44.8837 203.075 43.9637 202.375 43.4237C201.695 42.8837 200.755 42.6137 199.555 42.6137C198.315 42.6137 196.795 43.3637 194.995 44.8637L194.095 43.7237L198.415 40.3037C199.215 40.1437 200.175 40.0637 201.295 40.0637C203.115 40.0637 204.525 40.5137 205.525 41.4137C206.525 42.2937 207.025 43.5837 207.025 45.2837V54.0437L209.725 55.0937L209.125 56.2937ZM199.495 54.0437C200.715 54.0437 202.025 53.4837 203.425 52.3637V49.3337H198.115C197.855 49.6537 197.665 49.9737 197.545 50.2937C197.445 50.6137 197.395 50.9637 197.395 51.3437C197.395 52.0837 197.585 52.7237 197.965 53.2637C198.345 53.7837 198.855 54.0437 199.495 54.0437ZM201.445 36.0137L194.845 30.8237L195.415 30.1037L199.435 29.5337L202.645 35.4137L201.445 36.0137ZM228.277 56.2937H219.907V55.3637L222.577 53.2637V34.8137L219.907 32.9537V32.0237L225.037 30.1037H226.177V54.0437L228.877 55.0937L228.277 56.2937ZM247.211 56.2937H241.511V53.6837L238.121 56.3537C237.721 56.5137 237.221 56.5937 236.621 56.5937C234.901 56.5937 233.651 56.1637 232.871 55.3037C232.111 54.4437 231.731 53.4137 231.731 52.2137C231.731 51.4937 231.991 50.7837 232.511 50.0837C233.031 49.3837 233.771 48.7237 234.731 48.1037H241.511V46.1837C241.511 44.8837 241.161 43.9637 240.461 43.4237C239.781 42.8837 238.841 42.6137 237.641 42.6137C236.401 42.6137 234.881 43.3637 233.081 44.8637L232.181 43.7237L236.501 40.3037C237.301 40.1437 238.261 40.0637 239.381 40.0637C241.201 40.0637 242.611 40.5137 243.611 41.4137C244.611 42.2937 245.111 43.5837 245.111 45.2837V54.0437L247.811 55.0937L247.211 56.2937ZM237.581 54.0437C238.801 54.0437 240.111 53.4837 241.511 52.3637V49.3337H236.201C235.941 49.6537 235.751 49.9737 235.631 50.2937C235.531 50.6137 235.481 50.9637 235.481 51.3437C235.481 52.0837 235.671 52.7237 236.051 53.2637C236.431 53.7837 236.941 54.0437 237.581 54.0437ZM267.473 40.0637C268.293 40.0637 269.243 40.1837 270.323 40.4237C271.423 40.6437 272.213 40.8937 272.693 41.1737V45.7937H271.553C270.773 44.7937 269.873 44.0137 268.853 43.4537C267.853 42.8737 266.813 42.5837 265.733 42.5837C264.813 42.5837 264.113 42.9937 263.633 43.8137C263.173 44.6337 262.943 45.8337 262.943 47.4137C262.943 49.2937 263.353 50.8737 264.173 52.1537C264.993 53.4137 266.163 54.0437 267.683 54.0437C268.823 54.0437 270.443 53.2237 272.543 51.5837L273.443 52.7237L268.823 56.3537C268.023 56.5137 267.063 56.5937 265.943 56.5937C264.623 56.5937 263.433 56.2537 262.373 55.5737C261.333 54.8737 260.513 53.9337 259.913 52.7537C259.333 51.5737 259.043 50.2737 259.043 48.8537C259.043 47.3137 259.473 45.8637 260.333 44.5037C261.213 43.1437 262.313 42.0637 263.633 41.2637C264.953 40.4637 266.233 40.0637 267.473 40.0637ZM294.961 56.2937H289.261V46.1837C289.261 45.0837 289.091 44.3137 288.751 43.8737C288.411 43.4337 287.801 43.2137 286.921 43.2137C286.261 43.2137 285.601 43.3337 284.941 43.5737C284.301 43.8137 283.541 44.2737 282.661 44.9537V54.0437L285.361 55.0937L284.761 56.2937H276.391V55.3637L279.061 53.2637V34.8137L276.391 32.9537V32.0237L281.521 30.1037H282.661V43.5437L286.771 40.3037C287.191 40.1437 287.741 40.0637 288.421 40.0637C289.781 40.0637 290.861 40.4837 291.661 41.3237C292.461 42.1437 292.861 43.2637 292.861 44.6837V54.0437L295.561 55.0937L294.961 56.2937ZM313.598 56.2937H307.898V53.6837L304.508 56.3537C304.108 56.5137 303.608 56.5937 303.008 56.5937C301.288 56.5937 300.038 56.1637 299.258 55.3037C298.498 54.4437 298.118 53.4137 298.118 52.2137C298.118 51.4937 298.378 50.7837 298.898 50.0837C299.418 49.3837 300.158 48.7237 301.118 48.1037H307.898V46.1837C307.898 44.8837 307.548 43.9637 306.848 43.4237C306.168 42.8837 305.228 42.6137 304.028 42.6137C302.788 42.6137 301.268 43.3637 299.468 44.8637L298.568 43.7237L302.888 40.3037C303.688 40.1437 304.648 40.0637 305.768 40.0637C307.588 40.0637 308.998 40.5137 309.998 41.4137C310.998 42.2937 311.498 43.5837 311.498 45.2837V54.0437L314.198 55.0937L313.598 56.2937ZM303.968 54.0437C305.188 54.0437 306.498 53.4837 307.898 52.3637V49.3337H302.588C302.328 49.6537 302.138 49.9737 302.018 50.2937C301.918 50.6137 301.868 50.9637 301.868 51.3437C301.868 52.0837 302.058 52.7237 302.438 53.2637C302.818 53.7837 303.328 54.0437 303.968 54.0437ZM326.26 53.0537C326.26 52.4937 325.95 51.9837 325.33 51.5237C324.71 51.0437 323.76 50.4737 322.48 49.8137C321.44 49.2737 320.6 48.8037 319.96 48.4037C319.32 48.0037 318.77 47.5437 318.31 47.0237C317.87 46.4837 317.65 45.9037 317.65 45.2837C317.65 44.5637 317.95 43.7937 318.55 42.9737C319.15 42.1537 319.89 41.4637 320.77 40.9037C321.65 40.3437 322.47 40.0637 323.23 40.0637C324.15 40.0637 325.21 40.1837 326.41 40.4237C327.63 40.6437 328.51 40.8937 329.05 41.1737V45.7937H327.91C327.27 44.5537 326.53 43.5937 325.69 42.9137C324.85 42.2137 323.99 41.8637 323.11 41.8637C322.49 41.8637 321.99 42.0337 321.61 42.3737C321.23 42.6937 321.04 43.1037 321.04 43.6037C321.04 44.2237 321.36 44.7837 322 45.2837C322.66 45.7637 323.65 46.3337 324.97 46.9937C325.99 47.5137 326.81 47.9637 327.43 48.3437C328.05 48.7237 328.57 49.1737 328.99 49.6937C329.43 50.1937 329.65 50.7537 329.65 51.3737C329.65 52.1137 329.33 52.8937 328.69 53.7137C328.07 54.5137 327.3 55.1937 326.38 55.7537C325.48 56.3137 324.65 56.5937 323.89 56.5937C322.91 56.5937 321.74 56.4837 320.38 56.2637C319.04 56.0237 318.08 55.7637 317.5 55.4837V50.8637H318.64C319.34 52.1037 320.17 53.0737 321.13 53.7737C322.09 54.4537 323.06 54.7937 324.04 54.7937C324.7 54.7937 325.23 54.6237 325.63 54.2837C326.05 53.9437 326.26 53.5337 326.26 53.0537ZM343.018 53.0537C343.018 52.4937 342.708 51.9837 342.088 51.5237C341.468 51.0437 340.518 50.4737 339.238 49.8137C338.198 49.2737 337.358 48.8037 336.718 48.4037C336.078 48.0037 335.528 47.5437 335.068 47.0237C334.628 46.4837 334.408 45.9037 334.408 45.2837C334.408 44.5637 334.708 43.7937 335.308 42.9737C335.908 42.1537 336.648 41.4637 337.528 40.9037C338.408 40.3437 339.228 40.0637 339.988 40.0637C340.908 40.0637 341.968 40.1837 343.168 40.4237C344.388 40.6437 345.268 40.8937 345.808 41.1737V45.7937H344.668C344.028 44.5537 343.288 43.5937 342.448 42.9137C341.608 42.2137 340.748 41.8637 339.868 41.8637C339.248 41.8637 338.748 42.0337 338.368 42.3737C337.988 42.6937 337.798 43.1037 337.798 43.6037C337.798 44.2237 338.118 44.7837 338.758 45.2837C339.418 45.7637 340.408 46.3337 341.728 46.9937C342.748 47.5137 343.568 47.9637 344.188 48.3437C344.808 48.7237 345.328 49.1737 345.748 49.6937C346.188 50.1937 346.408 50.7537 346.408 51.3737C346.408 52.1137 346.088 52.8937 345.448 53.7137C344.828 54.5137 344.058 55.1937 343.138 55.7537C342.238 56.3137 341.408 56.5937 340.648 56.5937C339.668 56.5937 338.498 56.4837 337.138 56.2637C335.798 56.0237 334.838 55.7637 334.258 55.4837V50.8637H335.398C336.098 52.1037 336.928 53.0737 337.888 53.7737C338.848 54.4537 339.818 54.7937 340.798 54.7937C341.458 54.7937 341.988 54.6237 342.388 54.2837C342.808 53.9437 343.018 53.5337 343.018 53.0537ZM360.346 56.3537C359.546 56.5137 358.586 56.5937 357.466 56.5937C356.146 56.5937 354.956 56.2537 353.896 55.5737C352.856 54.8737 352.036 53.9337 351.436 52.7537C350.856 51.5737 350.566 50.2737 350.566 48.8537C350.566 47.3137 351.036 45.8737 351.976 44.5337C352.916 43.1737 354.086 42.0937 355.486 41.2937C356.906 40.4737 358.276 40.0637 359.596 40.0637C361.496 40.0637 362.966 40.8137 364.006 42.3137C365.066 43.8137 365.596 45.7937 365.596 48.2537H354.496C354.616 49.9537 355.076 51.3437 355.876 52.4237C356.696 53.5037 357.806 54.0437 359.206 54.0437C360.506 54.0437 362.356 53.0337 364.756 51.0137L365.656 52.1537L360.346 56.3537ZM357.856 42.5837C355.696 42.5837 354.566 44.0637 354.466 47.0237H361.486C361.306 45.9437 361.116 45.1237 360.916 44.5637C360.736 43.9837 360.406 43.5137 359.926 43.1537C359.466 42.7737 358.776 42.5837 357.856 42.5837ZM127.196 101.294H121.496V98.6837L118.106 101.354C117.706 101.514 117.206 101.594 116.606 101.594C114.886 101.594 113.636 101.164 112.856 100.304C112.096 99.4437 111.716 98.4137 111.716 97.2137C111.716 96.4937 111.976 95.7837 112.496 95.0837C113.016 94.3837 113.756 93.7237 114.716 93.1037H121.496V91.1837C121.496 89.8837 121.146 88.9637 120.446 88.4237C119.766 87.8837 118.826 87.6137 117.626 87.6137C116.386 87.6137 114.866 88.3637 113.066 89.8637L112.166 88.7237L116.486 85.3037C117.286 85.1437 118.246 85.0637 119.366 85.0637C121.186 85.0637 122.596 85.5137 123.596 86.4137C124.596 87.2937 125.096 88.5837 125.096 90.2837V99.0437L127.796 100.094L127.196 101.294ZM117.566 99.0437C118.786 99.0437 120.096 98.4837 121.496 97.3637V94.3337H116.186C115.926 94.6537 115.736 94.9737 115.616 95.2937C115.516 95.6137 115.466 95.9637 115.466 96.3437C115.466 97.0837 115.656 97.7237 116.036 98.2637C116.416 98.7837 116.926 99.0437 117.566 99.0437ZM147.869 101.294H142.169V98.1737L138.359 101.354C137.939 101.514 137.389 101.594 136.709 101.594C135.349 101.594 134.269 101.184 133.469 100.364C132.669 99.5237 132.269 98.3937 132.269 96.9737V89.8037L129.599 88.2437V87.3137L134.729 84.7937H135.869V95.4737C135.869 96.5737 136.039 97.3437 136.379 97.7837C136.719 98.2237 137.329 98.4437 138.209 98.4437C138.829 98.4437 139.439 98.3337 140.039 98.1137C140.639 97.8737 141.349 97.4137 142.169 96.7337V89.8037L139.499 88.2437V87.3137L144.629 84.7937H145.769V99.0437L148.469 100.094L147.869 101.294ZM166.986 101.294H162.516L157.806 94.9937L154.476 98.1137L157.266 100.124L156.666 101.324H150.096V100.394L156.966 93.8537L152.616 88.2137L149.976 86.5637L150.576 85.3637H155.046L159.696 91.5737L162.906 88.5737L160.116 86.5637L160.716 85.3637H167.286V86.2937L160.536 92.7137L164.916 98.4137L167.586 100.094L166.986 101.294ZM188.329 101.354C187.529 101.514 186.569 101.594 185.449 101.594C184.129 101.594 182.939 101.254 181.879 100.574C180.839 99.8737 180.019 98.9337 179.419 97.7537C178.839 96.5737 178.549 95.2737 178.549 93.8537C178.549 92.3137 179.019 90.8737 179.959 89.5337C180.899 88.1737 182.069 87.0937 183.469 86.2937C184.889 85.4737 186.259 85.0637 187.579 85.0637C189.479 85.0637 190.949 85.8137 191.989 87.3137C193.049 88.8137 193.579 90.7937 193.579 93.2537H182.479C182.599 94.9537 183.059 96.3437 183.859 97.4237C184.679 98.5037 185.789 99.0437 187.189 99.0437C188.489 99.0437 190.339 98.0337 192.739 96.0137L193.639 97.1537L188.329 101.354ZM185.839 87.5837C183.679 87.5837 182.549 89.0637 182.449 92.0237H189.469C189.289 90.9437 189.099 90.1237 188.899 89.5637C188.719 88.9837 188.389 88.5137 187.909 88.1537C187.449 87.7737 186.759 87.5837 185.839 87.5837ZM192.109 75.8237L185.509 81.0137L184.309 80.4137L187.519 74.5337L191.539 75.1037L192.109 75.8237ZM206.647 101.624C205.567 101.624 204.567 101.294 203.647 100.634V106.454L207.847 107.744L207.247 108.944H197.377V108.014L200.047 105.914V89.8037L197.377 88.2437V87.3137L202.507 84.7937L203.497 88.6937L207.787 85.3037C208.427 85.1437 209.157 85.0637 209.977 85.0637C211.057 85.0637 212.027 85.4137 212.887 86.1137C213.767 86.7937 214.447 87.7237 214.927 88.9037C215.427 90.0837 215.677 91.3837 215.677 92.8037C215.677 94.3437 215.207 95.7937 214.267 97.1537C213.327 98.4937 212.147 99.5737 210.727 100.394C209.327 101.194 207.967 101.594 206.647 101.594V101.624ZM208.447 87.9437C207.687 87.9437 206.947 88.0937 206.227 88.3937C205.507 88.6937 204.647 89.2837 203.647 90.1637V95.2337C203.647 96.3337 204.057 97.2537 204.877 97.9937C205.697 98.7337 206.867 99.1037 208.387 99.1037C210.647 99.1037 211.777 97.4937 211.777 94.2737C211.777 92.4937 211.487 90.9937 210.907 89.7737C210.327 88.5537 209.507 87.9437 208.447 87.9437ZM227.807 101.294H219.437V100.364L222.107 98.2637V89.5037L219.437 87.6437V86.7137L224.567 84.7937H225.707V99.0437L228.407 100.094L227.807 101.294ZM223.787 75.7937C224.387 75.7937 224.877 76.0137 225.257 76.4537C225.657 76.8937 225.857 77.4437 225.857 78.1037C225.857 78.5637 225.717 79.0037 225.437 79.4237C225.157 79.8237 224.807 80.1437 224.387 80.3837C223.967 80.6237 223.557 80.7437 223.157 80.7437C222.557 80.7437 222.057 80.5237 221.657 80.0837C221.277 79.6437 221.087 79.0937 221.087 78.4337C221.087 77.9737 221.227 77.5437 221.507 77.1437C221.787 76.7237 222.137 76.3937 222.557 76.1537C222.977 75.9137 223.387 75.7937 223.787 75.7937ZM244.237 87.4337C244.797 88.2337 245.077 89.1337 245.077 90.1337C245.077 91.0137 244.827 91.8837 244.327 92.7437C243.827 93.5837 243.157 94.3237 242.317 94.9637C241.477 95.6037 240.557 96.0837 239.557 96.4037C239.017 96.9437 238.747 97.5137 238.747 98.1137C238.747 98.4537 239.007 98.7737 239.527 99.0737C240.067 99.3537 240.857 99.6937 241.897 100.094C243.317 100.654 244.407 101.164 245.167 101.624C245.947 102.104 246.337 102.684 246.337 103.364C246.337 103.964 245.947 104.734 245.167 105.674C244.407 106.614 243.457 107.434 242.317 108.134C241.177 108.834 240.077 109.184 239.017 109.184C237.897 109.184 236.567 108.994 235.027 108.614C233.507 108.234 232.237 107.854 231.217 107.474V102.854H232.357C233.477 104.234 234.617 105.284 235.777 106.004C236.937 106.724 238.247 107.084 239.707 107.084C240.247 107.084 240.737 106.974 241.177 106.754C241.637 106.534 241.987 106.254 242.227 105.914C242.487 105.594 242.617 105.284 242.617 104.984C242.617 104.444 242.307 103.974 241.687 103.574C241.067 103.194 240.097 102.724 238.777 102.164C237.517 101.644 236.577 101.194 235.957 100.814C235.357 100.434 235.057 99.9937 235.057 99.4937C235.057 99.0137 235.377 98.5237 236.017 98.0237C236.657 97.5237 237.417 97.0837 238.297 96.7037C237.977 96.7637 237.647 96.7937 237.307 96.7937C236.247 96.7937 235.277 96.5637 234.397 96.1037C233.517 95.6237 232.817 94.9937 232.297 94.2137C231.797 93.4337 231.547 92.5837 231.547 91.6637C231.547 90.5637 231.927 89.5037 232.687 88.4837C233.447 87.4637 234.427 86.6437 235.627 86.0237C236.847 85.3837 238.087 85.0637 239.347 85.0637C240.747 85.0637 241.977 85.4637 243.037 86.2637H247.747L247.777 87.4337H244.237ZM239.047 94.2137C239.947 94.2137 240.627 93.9937 241.087 93.5537C241.567 93.0937 241.807 92.4237 241.807 91.5437C241.807 90.3437 241.417 89.3737 240.637 88.6337C239.877 87.8937 238.867 87.5237 237.607 87.5237C236.727 87.5237 236.047 87.7437 235.567 88.1837C235.107 88.6037 234.877 89.2537 234.877 90.1337C234.877 91.3537 235.257 92.3437 236.017 93.1037C236.797 93.8437 237.807 94.2137 239.047 94.2137ZM261.117 85.0937C261.777 85.0937 262.357 85.2737 262.857 85.6337C263.357 85.9937 263.747 86.4937 264.027 87.1337L262.047 89.6237H260.907C260.827 89.1237 260.677 88.7737 260.457 88.5737C260.257 88.3537 259.977 88.2437 259.617 88.2437C259.177 88.2437 258.707 88.3637 258.207 88.6037C257.727 88.8237 257.177 89.2537 256.557 89.8937V98.8337L260.757 100.124L260.157 101.324H250.287V100.394L252.957 98.2937V89.8037L250.287 88.2437V87.3137L255.417 84.7937L256.347 88.4837L259.467 85.3037C259.887 85.1437 260.437 85.0637 261.117 85.0637V85.0937ZM281.181 101.294H275.481V98.6837L272.091 101.354C271.691 101.514 271.191 101.594 270.591 101.594C268.871 101.594 267.621 101.164 266.841 100.304C266.081 99.4437 265.701 98.4137 265.701 97.2137C265.701 96.4937 265.961 95.7837 266.481 95.0837C267.001 94.3837 267.741 93.7237 268.701 93.1037H275.481V91.1837C275.481 89.8837 275.131 88.9637 274.431 88.4237C273.751 87.8837 272.811 87.6137 271.611 87.6137C270.371 87.6137 268.851 88.3637 267.051 89.8637L266.151 88.7237L270.471 85.3037C271.271 85.1437 272.231 85.0637 273.351 85.0637C275.171 85.0637 276.581 85.5137 277.581 86.4137C278.581 87.2937 279.081 88.5837 279.081 90.2837V99.0437L281.781 100.094L281.181 101.294ZM271.551 99.0437C272.771 99.0437 274.081 98.4837 275.481 97.3637V94.3337H270.171C269.911 94.6537 269.721 94.9737 269.601 95.2937C269.501 95.6137 269.451 95.9637 269.451 96.3437C269.451 97.0837 269.641 97.7237 270.021 98.2637C270.401 98.7837 270.911 99.0437 271.551 99.0437ZM293.453 101.624C292.373 101.624 291.373 101.294 290.453 100.634V106.454L294.653 107.744L294.053 108.944H284.183V108.014L286.853 105.914V89.8037L284.183 88.2437V87.3137L289.313 84.7937L290.303 88.6937L294.593 85.3037C295.233 85.1437 295.963 85.0637 296.783 85.0637C297.863 85.0637 298.833 85.4137 299.693 86.1137C300.573 86.7937 301.253 87.7237 301.733 88.9037C302.233 90.0837 302.483 91.3837 302.483 92.8037C302.483 94.3437 302.013 95.7937 301.073 97.1537C300.133 98.4937 298.953 99.5737 297.533 100.394C296.133 101.194 294.773 101.594 293.453 101.594V101.624ZM295.253 87.9437C294.493 87.9437 293.753 88.0937 293.033 88.3937C292.313 88.6937 291.453 89.2837 290.453 90.1637V95.2337C290.453 96.3337 290.863 97.2537 291.683 97.9937C292.503 98.7337 293.673 99.1037 295.193 99.1037C297.453 99.1037 298.583 97.4937 298.583 94.2737C298.583 92.4937 298.293 90.9937 297.713 89.7737C297.133 88.5537 296.313 87.9437 295.253 87.9437ZM324.214 101.294H318.514V91.1837C318.514 90.0837 318.344 89.3137 318.004 88.8737C317.664 88.4337 317.054 88.2137 316.174 88.2137C315.514 88.2137 314.854 88.3337 314.194 88.5737C313.554 88.8137 312.794 89.2737 311.914 89.9537V99.0437L314.614 100.094L314.014 101.294H305.644V100.364L308.314 98.2637V79.8137L305.644 77.9537V77.0237L310.774 75.1037H311.914V88.5437L316.024 85.3037C316.444 85.1437 316.994 85.0637 317.674 85.0637C319.034 85.0637 320.114 85.4837 320.914 86.3237C321.714 87.1437 322.114 88.2637 322.114 89.6837V99.0437L324.814 100.094L324.214 101.294ZM337.45 101.354C336.65 101.514 335.69 101.594 334.57 101.594C333.25 101.594 332.06 101.254 331 100.574C329.96 99.8737 329.14 98.9337 328.54 97.7537C327.96 96.5737 327.67 95.2737 327.67 93.8537C327.67 92.3137 328.14 90.8737 329.08 89.5337C330.02 88.1737 331.19 87.0937 332.59 86.2937C334.01 85.4737 335.38 85.0637 336.7 85.0637C338.6 85.0637 340.07 85.8137 341.11 87.3137C342.17 88.8137 342.7 90.7937 342.7 93.2537H331.6C331.72 94.9537 332.18 96.3437 332.98 97.4237C333.8 98.5037 334.91 99.0437 336.31 99.0437C337.61 99.0437 339.46 98.0337 341.86 96.0137L342.76 97.1537L337.45 101.354ZM334.96 87.5837C332.8 87.5837 331.67 89.0637 331.57 92.0237H338.59C338.41 90.9437 338.22 90.1237 338.02 89.5637C337.84 88.9837 337.51 88.5137 337.03 88.1537C336.57 87.7737 335.88 87.5837 334.96 87.5837ZM356.158 98.0537C356.158 97.4937 355.848 96.9837 355.228 96.5237C354.608 96.0437 353.658 95.4737 352.378 94.8137C351.338 94.2737 350.498 93.8037 349.858 93.4037C349.218 93.0037 348.668 92.5437 348.208 92.0237C347.768 91.4837 347.548 90.9037 347.548 90.2837C347.548 89.5637 347.848 88.7937 348.448 87.9737C349.048 87.1537 349.788 86.4637 350.668 85.9037C351.548 85.3437 352.368 85.0637 353.128 85.0637C354.048 85.0637 355.108 85.1837 356.308 85.4237C357.528 85.6437 358.408 85.8937 358.948 86.1737V90.7937H357.808C357.168 89.5537 356.428 88.5937 355.588 87.9137C354.748 87.2137 353.888 86.8637 353.008 86.8637C352.388 86.8637 351.888 87.0337 351.508 87.3737C351.128 87.6937 350.938 88.1037 350.938 88.6037C350.938 89.2237 351.258 89.7837 351.898 90.2837C352.558 90.7637 353.548 91.3337 354.868 91.9937C355.888 92.5137 356.708 92.9637 357.328 93.3437C357.948 93.7237 358.468 94.1737 358.888 94.6937C359.328 95.1937 359.548 95.7537 359.548 96.3737C359.548 97.1137 359.228 97.8937 358.588 98.7137C357.968 99.5137 357.198 100.194 356.278 100.754C355.378 101.314 354.548 101.594 353.788 101.594C352.808 101.594 351.638 101.484 350.278 101.264C348.938 101.024 347.978 100.764 347.398 100.484V95.8637H348.538C349.238 97.1037 350.068 98.0737 351.028 98.7737C351.988 99.4537 352.958 99.7937 353.938 99.7937C354.598 99.7937 355.128 99.6237 355.528 99.2837C355.948 98.9437 356.158 98.5337 356.158 98.0537Z" fill="black"/>
</svg>
