<svg width="484" height="145" viewBox="0 0 484 145" fill="none" xmlns="http://www.w3.org/2000/svg">
<path d="M43.8009 0H440.199L484 72.5L440.199 145H43.8009L0 72.5L43.8009 0Z" fill="#5B9097"/>
<path d="M429.888 8.3728L470.892 72.4998L429.888 136.627H54.1116L13.1077 72.4998L54.1116 8.3728H429.888Z" fill="#8FBEB0" stroke="black" stroke-width="2"/>
<mask id="path-3-inside-1_2014_210" fill="white">
<path d="M39.7594 72.6841L24.9143 93.57L10.1206 72.7563L24.9657 51.8704L39.7594 72.6841Z"/>
</mask>
<path d="M39.7594 72.6841L24.9143 93.57L10.1206 72.7563L24.9657 51.8704L39.7594 72.6841Z" fill="#5B9097"/>
<path d="M39.7594 72.6841L40.9181 74.3143L42.0768 72.6841L40.9181 71.0539L39.7594 72.6841ZM38.6007 71.0539L23.7556 91.9399L26.073 95.2002L40.9181 74.3143L38.6007 71.0539ZM23.807 53.5006L38.6007 74.3143L40.9181 71.0539L26.1244 50.2402L23.807 53.5006Z" fill="black" mask="url(#path-3-inside-1_2014_210)"/>
<path d="M31.6237 72.0576L21.5776 86.1916L11.5664 72.1065L21.6124 57.9725L31.6237 72.0576Z" fill="black"/>
<mask id="path-6-inside-2_2014_210" fill="white">
<path d="M443.859 72.7561L458.704 51.8702L473.498 72.6839L458.653 93.5698L443.859 72.7561Z"/>
</mask>
<path d="M443.859 72.7561L458.704 51.8702L473.498 72.6839L458.653 93.5698L443.859 72.7561Z" fill="#5B9097"/>
<path d="M443.859 72.7561L442.7 71.1259L441.542 72.7561L442.7 74.3863L443.859 72.7561ZM445.018 74.3863L459.863 53.5003L457.546 50.24L442.7 71.1259L445.018 74.3863ZM459.812 91.9396L445.018 71.1259L442.7 74.3863L457.494 95.2L459.812 91.9396Z" fill="black" mask="url(#path-6-inside-2_2014_210)"/>
<path d="M471.868 72.0576L461.822 86.1916L451.811 72.1065L461.857 57.9725L471.868 72.0576Z" fill="black"/>
<path d="M109.252 53.3237C109.252 54.1237 109.272 54.8637 109.312 55.5437C109.372 56.2037 109.442 56.6537 109.522 56.8937L103.762 64.2137L102.622 63.3137C103.762 61.8737 104.522 60.6537 104.902 59.6537C105.302 58.6537 105.502 57.4237 105.502 55.9637V35.0837L101.782 33.9137L102.382 32.7137H112.102V33.6437L109.252 35.8637V53.3237ZM124.727 40.0637C126.047 40.0637 127.227 40.4137 128.267 41.1137C129.327 41.7937 130.147 42.7237 130.727 43.9037C131.327 45.0837 131.627 46.3837 131.627 47.8037C131.627 49.3437 131.157 50.7937 130.217 52.1537C129.277 53.4937 128.097 54.5737 126.677 55.3937C125.277 56.1937 123.917 56.5937 122.597 56.5937C121.277 56.5937 120.087 56.2537 119.027 55.5737C117.987 54.8737 117.167 53.9337 116.567 52.7537C115.987 51.5737 115.697 50.2737 115.697 48.8537C115.697 47.3137 116.167 45.8737 117.107 44.5337C118.047 43.1737 119.217 42.0937 120.617 41.2937C122.037 40.4737 123.407 40.0637 124.727 40.0637ZM122.987 42.5837C120.727 42.5837 119.597 44.1937 119.597 47.4137C119.597 49.3137 120.007 50.9037 120.827 52.1837C121.647 53.4437 122.817 54.0737 124.337 54.0737C126.597 54.0737 127.727 52.4537 127.727 49.2137C127.727 47.3337 127.317 45.7637 126.497 44.5037C125.677 43.2237 124.507 42.5837 122.987 42.5837ZM152.458 56.2937H146.758V53.1737L142.948 56.3537C142.528 56.5137 141.978 56.5937 141.298 56.5937C139.938 56.5937 138.858 56.1837 138.058 55.3637C137.258 54.5237 136.858 53.3937 136.858 51.9737V44.8037L134.188 43.2437V42.3137L139.318 39.7937H140.458V50.4737C140.458 51.5737 140.628 52.3437 140.968 52.7837C141.308 53.2237 141.918 53.4437 142.798 53.4437C143.418 53.4437 144.028 53.3337 144.628 53.1137C145.228 52.8737 145.938 52.4137 146.758 51.7337V44.8037L144.088 43.2437V42.3137L149.218 39.7937H150.358V54.0437L153.058 55.0937L152.458 56.2937ZM165.995 56.3537C165.195 56.5137 164.235 56.5937 163.115 56.5937C161.795 56.5937 160.605 56.2537 159.545 55.5737C158.505 54.8737 157.685 53.9337 157.085 52.7537C156.505 51.5737 156.215 50.2737 156.215 48.8537C156.215 47.3137 156.685 45.8737 157.625 44.5337C158.565 43.1737 159.735 42.0937 161.135 41.2937C162.555 40.4737 163.925 40.0637 165.245 40.0637C167.145 40.0637 168.615 40.8137 169.655 42.3137C170.715 43.8137 171.245 45.7937 171.245 48.2537H160.145C160.265 49.9537 160.725 51.3437 161.525 52.4237C162.345 53.5037 163.455 54.0437 164.855 54.0437C166.155 54.0437 168.005 53.0337 170.405 51.0137L171.305 52.1537L165.995 56.3537ZM163.505 42.5837C161.345 42.5837 160.215 44.0637 160.115 47.0237H167.135C166.955 45.9437 166.765 45.1237 166.565 44.5637C166.385 43.9837 166.055 43.5137 165.575 43.1537C165.115 42.7737 164.425 42.5837 163.505 42.5837ZM185.872 40.0937C186.532 40.0937 187.112 40.2737 187.612 40.6337C188.112 40.9937 188.502 41.4937 188.782 42.1337L186.802 44.6237H185.662C185.582 44.1237 185.432 43.7737 185.212 43.5737C185.012 43.3537 184.732 43.2437 184.372 43.2437C183.932 43.2437 183.462 43.3637 182.962 43.6037C182.482 43.8237 181.932 44.2537 181.312 44.8937V53.8337L185.512 55.1237L184.912 56.3237H175.042V55.3937L177.712 53.2937V44.8037L175.042 43.2437V42.3137L180.172 39.7937L181.102 43.4837L184.222 40.3037C184.642 40.1437 185.192 40.0637 185.872 40.0637V40.0937ZM214.608 56.2937H208.908V53.6837L205.518 56.3537C205.118 56.5137 204.618 56.5937 204.018 56.5937C202.298 56.5937 201.048 56.1637 200.268 55.3037C199.508 54.4437 199.128 53.4137 199.128 52.2137C199.128 51.4937 199.388 50.7837 199.908 50.0837C200.428 49.3837 201.168 48.7237 202.128 48.1037H208.908V46.1837C208.908 44.8837 208.558 43.9637 207.858 43.4237C207.178 42.8837 206.238 42.6137 205.038 42.6137C203.798 42.6137 202.278 43.3637 200.478 44.8637L199.578 43.7237L203.898 40.3037C204.698 40.1437 205.658 40.0637 206.778 40.0637C208.598 40.0637 210.008 40.5137 211.008 41.4137C212.008 42.2937 212.508 43.5837 212.508 45.2837V54.0437L215.208 55.0937L214.608 56.2937ZM204.978 54.0437C206.198 54.0437 207.508 53.4837 208.908 52.3637V49.3337H203.598C203.338 49.6537 203.148 49.9737 203.028 50.2937C202.928 50.6137 202.878 50.9637 202.878 51.3437C202.878 52.0837 203.068 52.7237 203.448 53.2637C203.828 53.7837 204.338 54.0437 204.978 54.0437ZM206.928 36.0137L200.328 30.8237L200.898 30.1037L204.918 29.5337L208.128 35.4137L206.928 36.0137ZM233.759 56.2937H225.389V55.3637L228.059 53.2637V34.8137L225.389 32.9537V32.0237L230.519 30.1037H231.659V54.0437L234.359 55.0937L233.759 56.2937ZM252.694 56.2937H246.994V53.6837L243.604 56.3537C243.204 56.5137 242.704 56.5937 242.104 56.5937C240.384 56.5937 239.134 56.1637 238.354 55.3037C237.594 54.4437 237.214 53.4137 237.214 52.2137C237.214 51.4937 237.474 50.7837 237.994 50.0837C238.514 49.3837 239.254 48.7237 240.214 48.1037H246.994V46.1837C246.994 44.8837 246.644 43.9637 245.944 43.4237C245.264 42.8837 244.324 42.6137 243.124 42.6137C241.884 42.6137 240.364 43.3637 238.564 44.8637L237.664 43.7237L241.984 40.3037C242.784 40.1437 243.744 40.0637 244.864 40.0637C246.684 40.0637 248.094 40.5137 249.094 41.4137C250.094 42.2937 250.594 43.5837 250.594 45.2837V54.0437L253.294 55.0937L252.694 56.2937ZM243.064 54.0437C244.284 54.0437 245.594 53.4837 246.994 52.3637V49.3337H241.684C241.424 49.6537 241.234 49.9737 241.114 50.2937C241.014 50.6137 240.964 50.9637 240.964 51.3437C240.964 52.0837 241.154 52.7237 241.534 53.2637C241.914 53.7837 242.424 54.0437 243.064 54.0437ZM272.955 40.0637C273.775 40.0637 274.725 40.1837 275.805 40.4237C276.905 40.6437 277.695 40.8937 278.175 41.1737V45.7937H277.035C276.255 44.7937 275.355 44.0137 274.335 43.4537C273.335 42.8737 272.295 42.5837 271.215 42.5837C270.295 42.5837 269.595 42.9937 269.115 43.8137C268.655 44.6337 268.425 45.8337 268.425 47.4137C268.425 49.2937 268.835 50.8737 269.655 52.1537C270.475 53.4137 271.645 54.0437 273.165 54.0437C274.305 54.0437 275.925 53.2237 278.025 51.5837L278.925 52.7237L274.305 56.3537C273.505 56.5137 272.545 56.5937 271.425 56.5937C270.105 56.5937 268.915 56.2537 267.855 55.5737C266.815 54.8737 265.995 53.9337 265.395 52.7537C264.815 51.5737 264.525 50.2737 264.525 48.8537C264.525 47.3137 264.955 45.8637 265.815 44.5037C266.695 43.1437 267.795 42.0637 269.115 41.2637C270.435 40.4637 271.715 40.0637 272.955 40.0637ZM300.444 56.2937H294.744V46.1837C294.744 45.0837 294.574 44.3137 294.234 43.8737C293.894 43.4337 293.284 43.2137 292.404 43.2137C291.744 43.2137 291.084 43.3337 290.424 43.5737C289.784 43.8137 289.024 44.2737 288.144 44.9537V54.0437L290.844 55.0937L290.244 56.2937H281.874V55.3637L284.544 53.2637V34.8137L281.874 32.9537V32.0237L287.004 30.1037H288.144V43.5437L292.254 40.3037C292.674 40.1437 293.224 40.0637 293.904 40.0637C295.264 40.0637 296.344 40.4837 297.144 41.3237C297.944 42.1437 298.344 43.2637 298.344 44.6837V54.0437L301.044 55.0937L300.444 56.2937ZM319.08 56.2937H313.38V53.6837L309.99 56.3537C309.59 56.5137 309.09 56.5937 308.49 56.5937C306.77 56.5937 305.52 56.1637 304.74 55.3037C303.98 54.4437 303.6 53.4137 303.6 52.2137C303.6 51.4937 303.86 50.7837 304.38 50.0837C304.9 49.3837 305.64 48.7237 306.6 48.1037H313.38V46.1837C313.38 44.8837 313.03 43.9637 312.33 43.4237C311.65 42.8837 310.71 42.6137 309.51 42.6137C308.27 42.6137 306.75 43.3637 304.95 44.8637L304.05 43.7237L308.37 40.3037C309.17 40.1437 310.13 40.0637 311.25 40.0637C313.07 40.0637 314.48 40.5137 315.48 41.4137C316.48 42.2937 316.98 43.5837 316.98 45.2837V54.0437L319.68 55.0937L319.08 56.2937ZM309.45 54.0437C310.67 54.0437 311.98 53.4837 313.38 52.3637V49.3337H308.07C307.81 49.6537 307.62 49.9737 307.5 50.2937C307.4 50.6137 307.35 50.9637 307.35 51.3437C307.35 52.0837 307.54 52.7237 307.92 53.2637C308.3 53.7837 308.81 54.0437 309.45 54.0437ZM331.743 53.0537C331.743 52.4937 331.433 51.9837 330.813 51.5237C330.193 51.0437 329.243 50.4737 327.963 49.8137C326.923 49.2737 326.083 48.8037 325.443 48.4037C324.803 48.0037 324.253 47.5437 323.793 47.0237C323.353 46.4837 323.133 45.9037 323.133 45.2837C323.133 44.5637 323.433 43.7937 324.033 42.9737C324.633 42.1537 325.373 41.4637 326.253 40.9037C327.133 40.3437 327.953 40.0637 328.713 40.0637C329.633 40.0637 330.693 40.1837 331.893 40.4237C333.113 40.6437 333.993 40.8937 334.533 41.1737V45.7937H333.393C332.753 44.5537 332.013 43.5937 331.173 42.9137C330.333 42.2137 329.473 41.8637 328.593 41.8637C327.973 41.8637 327.473 42.0337 327.093 42.3737C326.713 42.6937 326.523 43.1037 326.523 43.6037C326.523 44.2237 326.843 44.7837 327.483 45.2837C328.143 45.7637 329.133 46.3337 330.453 46.9937C331.473 47.5137 332.293 47.9637 332.913 48.3437C333.533 48.7237 334.053 49.1737 334.473 49.6937C334.913 50.1937 335.133 50.7537 335.133 51.3737C335.133 52.1137 334.813 52.8937 334.173 53.7137C333.553 54.5137 332.783 55.1937 331.863 55.7537C330.963 56.3137 330.133 56.5937 329.373 56.5937C328.393 56.5937 327.223 56.4837 325.863 56.2637C324.523 56.0237 323.563 55.7637 322.983 55.4837V50.8637H324.123C324.823 52.1037 325.653 53.0737 326.613 53.7737C327.573 54.4537 328.543 54.7937 329.523 54.7937C330.183 54.7937 330.713 54.6237 331.113 54.2837C331.533 53.9437 331.743 53.5337 331.743 53.0537ZM348.501 53.0537C348.501 52.4937 348.191 51.9837 347.571 51.5237C346.951 51.0437 346.001 50.4737 344.721 49.8137C343.681 49.2737 342.841 48.8037 342.201 48.4037C341.561 48.0037 341.011 47.5437 340.551 47.0237C340.111 46.4837 339.891 45.9037 339.891 45.2837C339.891 44.5637 340.191 43.7937 340.791 42.9737C341.391 42.1537 342.131 41.4637 343.011 40.9037C343.891 40.3437 344.711 40.0637 345.471 40.0637C346.391 40.0637 347.451 40.1837 348.651 40.4237C349.871 40.6437 350.751 40.8937 351.291 41.1737V45.7937H350.151C349.511 44.5537 348.771 43.5937 347.931 42.9137C347.091 42.2137 346.231 41.8637 345.351 41.8637C344.731 41.8637 344.231 42.0337 343.851 42.3737C343.471 42.6937 343.281 43.1037 343.281 43.6037C343.281 44.2237 343.601 44.7837 344.241 45.2837C344.901 45.7637 345.891 46.3337 347.211 46.9937C348.231 47.5137 349.051 47.9637 349.671 48.3437C350.291 48.7237 350.811 49.1737 351.231 49.6937C351.671 50.1937 351.891 50.7537 351.891 51.3737C351.891 52.1137 351.571 52.8937 350.931 53.7137C350.311 54.5137 349.541 55.1937 348.621 55.7537C347.721 56.3137 346.891 56.5937 346.131 56.5937C345.151 56.5937 343.981 56.4837 342.621 56.2637C341.281 56.0237 340.321 55.7637 339.741 55.4837V50.8637H340.881C341.581 52.1037 342.411 53.0737 343.371 53.7737C344.331 54.4537 345.301 54.7937 346.281 54.7937C346.941 54.7937 347.471 54.6237 347.871 54.2837C348.291 53.9437 348.501 53.5337 348.501 53.0537ZM365.829 56.3537C365.029 56.5137 364.069 56.5937 362.949 56.5937C361.629 56.5937 360.439 56.2537 359.379 55.5737C358.339 54.8737 357.519 53.9337 356.919 52.7537C356.339 51.5737 356.049 50.2737 356.049 48.8537C356.049 47.3137 356.519 45.8737 357.459 44.5337C358.399 43.1737 359.569 42.0937 360.969 41.2937C362.389 40.4737 363.759 40.0637 365.079 40.0637C366.979 40.0637 368.449 40.8137 369.489 42.3137C370.549 43.8137 371.079 45.7937 371.079 48.2537H359.979C360.099 49.9537 360.559 51.3437 361.359 52.4237C362.179 53.5037 363.289 54.0437 364.689 54.0437C365.989 54.0437 367.839 53.0337 370.239 51.0137L371.139 52.1537L365.829 56.3537ZM363.339 42.5837C361.179 42.5837 360.049 44.0637 359.949 47.0237H366.969C366.789 45.9437 366.599 45.1237 366.399 44.5637C366.219 43.9837 365.889 43.5137 365.409 43.1537C364.949 42.7737 364.259 42.5837 363.339 42.5837ZM132.679 101.294H126.979V98.6837L123.589 101.354C123.189 101.514 122.689 101.594 122.089 101.594C120.369 101.594 119.119 101.164 118.339 100.304C117.579 99.4437 117.199 98.4137 117.199 97.2137C117.199 96.4937 117.459 95.7837 117.979 95.0837C118.499 94.3837 119.239 93.7237 120.199 93.1037H126.979V91.1837C126.979 89.8837 126.629 88.9637 125.929 88.4237C125.249 87.8837 124.309 87.6137 123.109 87.6137C121.869 87.6137 120.349 88.3637 118.549 89.8637L117.649 88.7237L121.969 85.3037C122.769 85.1437 123.729 85.0637 124.849 85.0637C126.669 85.0637 128.079 85.5137 129.079 86.4137C130.079 87.2937 130.579 88.5837 130.579 90.2837V99.0437L133.279 100.094L132.679 101.294ZM123.049 99.0437C124.269 99.0437 125.579 98.4837 126.979 97.3637V94.3337H121.669C121.409 94.6537 121.219 94.9737 121.099 95.2937C120.999 95.6137 120.949 95.9637 120.949 96.3437C120.949 97.0837 121.139 97.7237 121.519 98.2637C121.899 98.7837 122.409 99.0437 123.049 99.0437ZM153.352 101.294H147.652V98.1737L143.842 101.354C143.422 101.514 142.872 101.594 142.192 101.594C140.832 101.594 139.752 101.184 138.952 100.364C138.152 99.5237 137.752 98.3937 137.752 96.9737V89.8037L135.082 88.2437V87.3137L140.212 84.7937H141.352V95.4737C141.352 96.5737 141.522 97.3437 141.862 97.7837C142.202 98.2237 142.812 98.4437 143.692 98.4437C144.312 98.4437 144.922 98.3337 145.522 98.1137C146.122 97.8737 146.832 97.4137 147.652 96.7337V89.8037L144.982 88.2437V87.3137L150.112 84.7937H151.252V99.0437L153.952 100.094L153.352 101.294ZM172.468 101.294H167.998L163.288 94.9937L159.958 98.1137L162.748 100.124L162.148 101.324H155.578V100.394L162.448 93.8537L158.098 88.2137L155.458 86.5637L156.058 85.3637H160.528L165.178 91.5737L168.388 88.5737L165.598 86.5637L166.198 85.3637H172.768V86.2937L166.018 92.7137L170.398 98.4137L173.068 100.094L172.468 101.294ZM193.812 101.354C193.012 101.514 192.052 101.594 190.932 101.594C189.612 101.594 188.422 101.254 187.362 100.574C186.322 99.8737 185.502 98.9337 184.902 97.7537C184.322 96.5737 184.032 95.2737 184.032 93.8537C184.032 92.3137 184.502 90.8737 185.442 89.5337C186.382 88.1737 187.552 87.0937 188.952 86.2937C190.372 85.4737 191.742 85.0637 193.062 85.0637C194.962 85.0637 196.432 85.8137 197.472 87.3137C198.532 88.8137 199.062 90.7937 199.062 93.2537H187.962C188.082 94.9537 188.542 96.3437 189.342 97.4237C190.162 98.5037 191.272 99.0437 192.672 99.0437C193.972 99.0437 195.822 98.0337 198.222 96.0137L199.122 97.1537L193.812 101.354ZM191.322 87.5837C189.162 87.5837 188.032 89.0637 187.932 92.0237H194.952C194.772 90.9437 194.582 90.1237 194.382 89.5637C194.202 88.9837 193.872 88.5137 193.392 88.1537C192.932 87.7737 192.242 87.5837 191.322 87.5837ZM197.592 75.8237L190.992 81.0137L189.792 80.4137L193.002 74.5337L197.022 75.1037L197.592 75.8237ZM212.13 101.624C211.05 101.624 210.05 101.294 209.13 100.634V106.454L213.33 107.744L212.73 108.944H202.86V108.014L205.53 105.914V89.8037L202.86 88.2437V87.3137L207.99 84.7937L208.98 88.6937L213.27 85.3037C213.91 85.1437 214.64 85.0637 215.46 85.0637C216.54 85.0637 217.51 85.4137 218.37 86.1137C219.25 86.7937 219.93 87.7237 220.41 88.9037C220.91 90.0837 221.16 91.3837 221.16 92.8037C221.16 94.3437 220.69 95.7937 219.75 97.1537C218.81 98.4937 217.63 99.5737 216.21 100.394C214.81 101.194 213.45 101.594 212.13 101.594V101.624ZM213.93 87.9437C213.17 87.9437 212.43 88.0937 211.71 88.3937C210.99 88.6937 210.13 89.2837 209.13 90.1637V95.2337C209.13 96.3337 209.54 97.2537 210.36 97.9937C211.18 98.7337 212.35 99.1037 213.87 99.1037C216.13 99.1037 217.26 97.4937 217.26 94.2737C217.26 92.4937 216.97 90.9937 216.39 89.7737C215.81 88.5537 214.99 87.9437 213.93 87.9437ZM233.29 101.294H224.92V100.364L227.59 98.2637V89.5037L224.92 87.6437V86.7137L230.05 84.7937H231.19V99.0437L233.89 100.094L233.29 101.294ZM229.27 75.7937C229.87 75.7937 230.36 76.0137 230.74 76.4537C231.14 76.8937 231.34 77.4437 231.34 78.1037C231.34 78.5637 231.2 79.0037 230.92 79.4237C230.64 79.8237 230.29 80.1437 229.87 80.3837C229.45 80.6237 229.04 80.7437 228.64 80.7437C228.04 80.7437 227.54 80.5237 227.14 80.0837C226.76 79.6437 226.57 79.0937 226.57 78.4337C226.57 77.9737 226.71 77.5437 226.99 77.1437C227.27 76.7237 227.62 76.3937 228.04 76.1537C228.46 75.9137 228.87 75.7937 229.27 75.7937ZM249.72 87.4337C250.28 88.2337 250.56 89.1337 250.56 90.1337C250.56 91.0137 250.31 91.8837 249.81 92.7437C249.31 93.5837 248.64 94.3237 247.8 94.9637C246.96 95.6037 246.04 96.0837 245.04 96.4037C244.5 96.9437 244.23 97.5137 244.23 98.1137C244.23 98.4537 244.49 98.7737 245.01 99.0737C245.55 99.3537 246.34 99.6937 247.38 100.094C248.8 100.654 249.89 101.164 250.65 101.624C251.43 102.104 251.82 102.684 251.82 103.364C251.82 103.964 251.43 104.734 250.65 105.674C249.89 106.614 248.94 107.434 247.8 108.134C246.66 108.834 245.56 109.184 244.5 109.184C243.38 109.184 242.05 108.994 240.51 108.614C238.99 108.234 237.72 107.854 236.7 107.474V102.854H237.84C238.96 104.234 240.1 105.284 241.26 106.004C242.42 106.724 243.73 107.084 245.19 107.084C245.73 107.084 246.22 106.974 246.66 106.754C247.12 106.534 247.47 106.254 247.71 105.914C247.97 105.594 248.1 105.284 248.1 104.984C248.1 104.444 247.79 103.974 247.17 103.574C246.55 103.194 245.58 102.724 244.26 102.164C243 101.644 242.06 101.194 241.44 100.814C240.84 100.434 240.54 99.9937 240.54 99.4937C240.54 99.0137 240.86 98.5237 241.5 98.0237C242.14 97.5237 242.9 97.0837 243.78 96.7037C243.46 96.7637 243.13 96.7937 242.79 96.7937C241.73 96.7937 240.76 96.5637 239.88 96.1037C239 95.6237 238.3 94.9937 237.78 94.2137C237.28 93.4337 237.03 92.5837 237.03 91.6637C237.03 90.5637 237.41 89.5037 238.17 88.4837C238.93 87.4637 239.91 86.6437 241.11 86.0237C242.33 85.3837 243.57 85.0637 244.83 85.0637C246.23 85.0637 247.46 85.4637 248.52 86.2637H253.23L253.26 87.4337H249.72ZM244.53 94.2137C245.43 94.2137 246.11 93.9937 246.57 93.5537C247.05 93.0937 247.29 92.4237 247.29 91.5437C247.29 90.3437 246.9 89.3737 246.12 88.6337C245.36 87.8937 244.35 87.5237 243.09 87.5237C242.21 87.5237 241.53 87.7437 241.05 88.1837C240.59 88.6037 240.36 89.2537 240.36 90.1337C240.36 91.3537 240.74 92.3437 241.5 93.1037C242.28 93.8437 243.29 94.2137 244.53 94.2137ZM266.6 85.0937C267.26 85.0937 267.84 85.2737 268.34 85.6337C268.84 85.9937 269.23 86.4937 269.51 87.1337L267.53 89.6237H266.39C266.31 89.1237 266.16 88.7737 265.94 88.5737C265.74 88.3537 265.46 88.2437 265.1 88.2437C264.66 88.2437 264.19 88.3637 263.69 88.6037C263.21 88.8237 262.66 89.2537 262.04 89.8937V98.8337L266.24 100.124L265.64 101.324H255.77V100.394L258.44 98.2937V89.8037L255.77 88.2437V87.3137L260.9 84.7937L261.83 88.4837L264.95 85.3037C265.37 85.1437 265.92 85.0637 266.6 85.0637V85.0937ZM286.663 101.294H280.963V98.6837L277.573 101.354C277.173 101.514 276.673 101.594 276.073 101.594C274.353 101.594 273.103 101.164 272.323 100.304C271.563 99.4437 271.183 98.4137 271.183 97.2137C271.183 96.4937 271.443 95.7837 271.963 95.0837C272.483 94.3837 273.223 93.7237 274.183 93.1037H280.963V91.1837C280.963 89.8837 280.613 88.9637 279.913 88.4237C279.233 87.8837 278.293 87.6137 277.093 87.6137C275.853 87.6137 274.333 88.3637 272.533 89.8637L271.633 88.7237L275.953 85.3037C276.753 85.1437 277.713 85.0637 278.833 85.0637C280.653 85.0637 282.063 85.5137 283.063 86.4137C284.063 87.2937 284.563 88.5837 284.563 90.2837V99.0437L287.263 100.094L286.663 101.294ZM277.033 99.0437C278.253 99.0437 279.563 98.4837 280.963 97.3637V94.3337H275.653C275.393 94.6537 275.203 94.9737 275.083 95.2937C274.983 95.6137 274.933 95.9637 274.933 96.3437C274.933 97.0837 275.123 97.7237 275.503 98.2637C275.883 98.7837 276.393 99.0437 277.033 99.0437ZM298.936 101.624C297.856 101.624 296.856 101.294 295.936 100.634V106.454L300.136 107.744L299.536 108.944H289.666V108.014L292.336 105.914V89.8037L289.666 88.2437V87.3137L294.796 84.7937L295.786 88.6937L300.076 85.3037C300.716 85.1437 301.446 85.0637 302.266 85.0637C303.346 85.0637 304.316 85.4137 305.176 86.1137C306.056 86.7937 306.736 87.7237 307.216 88.9037C307.716 90.0837 307.966 91.3837 307.966 92.8037C307.966 94.3437 307.496 95.7937 306.556 97.1537C305.616 98.4937 304.436 99.5737 303.016 100.394C301.616 101.194 300.256 101.594 298.936 101.594V101.624ZM300.736 87.9437C299.976 87.9437 299.236 88.0937 298.516 88.3937C297.796 88.6937 296.936 89.2837 295.936 90.1637V95.2337C295.936 96.3337 296.346 97.2537 297.166 97.9937C297.986 98.7337 299.156 99.1037 300.676 99.1037C302.936 99.1037 304.066 97.4937 304.066 94.2737C304.066 92.4937 303.776 90.9937 303.196 89.7737C302.616 88.5537 301.796 87.9437 300.736 87.9437ZM329.697 101.294H323.997V91.1837C323.997 90.0837 323.827 89.3137 323.487 88.8737C323.147 88.4337 322.537 88.2137 321.657 88.2137C320.997 88.2137 320.337 88.3337 319.677 88.5737C319.037 88.8137 318.277 89.2737 317.397 89.9537V99.0437L320.097 100.094L319.497 101.294H311.127V100.364L313.797 98.2637V79.8137L311.127 77.9537V77.0237L316.257 75.1037H317.397V88.5437L321.507 85.3037C321.927 85.1437 322.477 85.0637 323.157 85.0637C324.517 85.0637 325.597 85.4837 326.397 86.3237C327.197 87.1437 327.597 88.2637 327.597 89.6837V99.0437L330.297 100.094L329.697 101.294ZM342.933 101.354C342.133 101.514 341.173 101.594 340.053 101.594C338.733 101.594 337.543 101.254 336.483 100.574C335.443 99.8737 334.623 98.9337 334.023 97.7537C333.443 96.5737 333.153 95.2737 333.153 93.8537C333.153 92.3137 333.623 90.8737 334.563 89.5337C335.503 88.1737 336.673 87.0937 338.073 86.2937C339.493 85.4737 340.863 85.0637 342.183 85.0637C344.083 85.0637 345.553 85.8137 346.593 87.3137C347.653 88.8137 348.183 90.7937 348.183 93.2537H337.083C337.203 94.9537 337.663 96.3437 338.463 97.4237C339.283 98.5037 340.393 99.0437 341.793 99.0437C343.093 99.0437 344.943 98.0337 347.343 96.0137L348.243 97.1537L342.933 101.354ZM340.443 87.5837C338.283 87.5837 337.153 89.0637 337.053 92.0237H344.073C343.893 90.9437 343.703 90.1237 343.503 89.5637C343.323 88.9837 342.993 88.5137 342.513 88.1537C342.053 87.7737 341.363 87.5837 340.443 87.5837ZM361.641 98.0537C361.641 97.4937 361.331 96.9837 360.711 96.5237C360.091 96.0437 359.141 95.4737 357.861 94.8137C356.821 94.2737 355.981 93.8037 355.341 93.4037C354.701 93.0037 354.151 92.5437 353.691 92.0237C353.251 91.4837 353.031 90.9037 353.031 90.2837C353.031 89.5637 353.331 88.7937 353.931 87.9737C354.531 87.1537 355.271 86.4637 356.151 85.9037C357.031 85.3437 357.851 85.0637 358.611 85.0637C359.531 85.0637 360.591 85.1837 361.791 85.4237C363.011 85.6437 363.891 85.8937 364.431 86.1737V90.7937H363.291C362.651 89.5537 361.911 88.5937 361.071 87.9137C360.231 87.2137 359.371 86.8637 358.491 86.8637C357.871 86.8637 357.371 87.0337 356.991 87.3737C356.611 87.6937 356.421 88.1037 356.421 88.6037C356.421 89.2237 356.741 89.7837 357.381 90.2837C358.041 90.7637 359.031 91.3337 360.351 91.9937C361.371 92.5137 362.191 92.9637 362.811 93.3437C363.431 93.7237 363.951 94.1737 364.371 94.6937C364.811 95.1937 365.031 95.7537 365.031 96.3737C365.031 97.1137 364.711 97.8937 364.071 98.7137C363.451 99.5137 362.681 100.194 361.761 100.754C360.861 101.314 360.031 101.594 359.271 101.594C358.291 101.594 357.121 101.484 355.761 101.264C354.421 101.024 353.461 100.764 352.881 100.484V95.8637H354.021C354.721 97.1037 355.551 98.0737 356.511 98.7737C357.471 99.4537 358.441 99.7937 359.421 99.7937C360.081 99.7937 360.611 99.6237 361.011 99.2837C361.431 98.9437 361.641 98.5337 361.641 98.0537Z" fill="black"/>
</svg>
