<svg width="484" height="145" viewBox="0 0 484 145" fill="none" xmlns="http://www.w3.org/2000/svg">
<path d="M43.8009 0H440.199L484 72.5L440.199 145H43.8009L0 72.5L43.8009 0Z" fill="#5B9097"/>
<path d="M429.888 8.37305L470.892 72.5L429.888 136.627H54.1116L13.1077 72.5L54.1116 8.37305H429.888Z" fill="#8FBEB0" stroke="black" stroke-width="2"/>
<mask id="path-3-inside-1_2318_234" fill="white">
<path d="M39.7593 72.6841L24.9142 93.57L10.1205 72.7563L24.9656 51.8704L39.7593 72.6841Z"/>
</mask>
<path d="M39.7593 72.6841L24.9142 93.57L10.1205 72.7563L24.9656 51.8704L39.7593 72.6841Z" fill="#5B9097"/>
<path d="M39.7593 72.6841L40.918 74.3143L42.0766 72.6841L40.918 71.0539L39.7593 72.6841ZM39.7593 72.6841L38.6006 71.0539L23.7555 91.9399L24.9142 93.57L26.0729 95.2002L40.918 74.3143L39.7593 72.6841ZM24.9656 51.8704L23.8069 53.5006L38.6006 74.3143L39.7593 72.6841L40.918 71.0539L26.1242 50.2402L24.9656 51.8704Z" fill="black" mask="url(#path-3-inside-1_2318_234)"/>
<path d="M31.6235 72.0576L21.5775 86.1916L11.5663 72.1065L21.6123 57.9725L31.6235 72.0576Z" fill="black"/>
<mask id="path-6-inside-2_2318_234" fill="white">
<path d="M443.859 72.7563L458.704 51.8704L473.498 72.6841L458.653 93.57L443.859 72.7563Z"/>
</mask>
<path d="M443.859 72.7563L458.704 51.8704L473.498 72.6841L458.653 93.57L443.859 72.7563Z" fill="#5B9097"/>
<path d="M443.859 72.7563L442.7 71.1262L441.542 72.7563L442.7 74.3865L443.859 72.7563ZM443.859 72.7563L445.018 74.3865L459.863 53.5006L458.704 51.8704L457.546 50.2402L442.7 71.1262L443.859 72.7563ZM458.653 93.57L459.812 91.9399L445.018 71.1262L443.859 72.7563L442.7 74.3865L457.494 95.2002L458.653 93.57Z" fill="black" mask="url(#path-6-inside-2_2318_234)"/>
<path d="M471.868 72.0576L461.822 86.1916L451.811 72.1065L461.857 57.9725L471.868 72.0576Z" fill="black"/>
<path d="M64.8662 70.51C66.2262 70.51 67.2962 70.14 68.0762 69.4C68.8762 68.66 69.2762 67.64 69.2762 66.34C69.2762 64.5 68.8062 63 67.8662 61.84C66.9462 60.66 65.5962 60.07 63.8162 60.07C62.4562 60.07 61.2162 60.46 60.0962 61.24V79.54L64.7462 80.83L64.1462 82.03H53.5262V81.1L56.3462 78.88V60.64L53.2262 59.62L53.8262 58.42H57.3062C59.2462 58.42 61.1562 58.36 63.0362 58.24C64.4362 58.16 65.4662 58.12 66.1262 58.12C67.5262 58.12 68.7662 58.42 69.8462 59.02C70.9462 59.6 71.7962 60.41 72.3962 61.45C72.9962 62.49 73.2962 63.64 73.2962 64.9C73.2962 66.3 72.7862 67.62 71.7662 68.86C70.7462 70.1 69.4462 71.07 67.8662 71.77C66.2862 72.47 64.7362 72.78 63.2162 72.7L61.8062 71.68L62.4062 70.48H64.8362L64.8662 70.51ZM91.1839 82H85.4839V79.39L82.0939 82.06C81.6939 82.22 81.1939 82.3 80.5939 82.3C78.8739 82.3 77.6239 81.87 76.8439 81.01C76.0839 80.15 75.7039 79.12 75.7039 77.92C75.7039 77.2 75.9639 76.49 76.4839 75.79C77.0039 75.09 77.7439 74.43 78.7039 73.81H85.4839V71.89C85.4839 70.59 85.1339 69.67 84.4339 69.13C83.7539 68.59 82.8139 68.32 81.6139 68.32C80.3739 68.32 78.8539 69.07 77.0539 70.57L76.1539 69.43L80.4739 66.01C81.2739 65.85 82.2339 65.77 83.3539 65.77C85.1739 65.77 86.5839 66.22 87.5839 67.12C88.5839 68 89.0839 69.29 89.0839 70.99V79.75L91.7839 80.8L91.1839 82ZM81.5539 79.75C82.7739 79.75 84.0839 79.19 85.4839 78.07V75.04H80.1739C79.9139 75.36 79.7239 75.68 79.6039 76C79.5039 76.32 79.4539 76.67 79.4539 77.05C79.4539 77.79 79.6439 78.43 80.0239 78.97C80.4039 79.49 80.9139 79.75 81.5539 79.75ZM105.017 65.8C105.677 65.8 106.257 65.98 106.757 66.34C107.257 66.7 107.647 67.2 107.927 67.84L105.947 70.33H104.807C104.727 69.83 104.577 69.48 104.357 69.28C104.157 69.06 103.877 68.95 103.517 68.95C103.077 68.95 102.607 69.07 102.107 69.31C101.627 69.53 101.077 69.96 100.457 70.6V79.54L104.657 80.83L104.057 82.03H94.1867V81.1L96.8567 79V70.51L94.1867 68.95V68.02L99.3167 65.5L100.247 69.19L103.367 66.01C103.787 65.85 104.337 65.77 105.017 65.77V65.8ZM118.293 82.06C117.833 82.22 117.273 82.3 116.613 82.3C114.953 82.3 113.733 81.87 112.953 81.01C112.193 80.13 111.813 78.78 111.813 76.96V68.2H108.573V66.97L114.273 60.34H115.413V66.97H120.813V68.2H115.413V77.32C115.413 78.94 116.193 79.75 117.753 79.75C118.173 79.75 118.573 79.66 118.953 79.48C119.353 79.3 119.843 78.98 120.423 78.52L121.323 79.66L118.293 82.06ZM131.795 82H123.425V81.07L126.095 78.97V70.21L123.425 68.35V67.42L128.555 65.5H129.695V79.75L132.395 80.8L131.795 82ZM127.775 56.5C128.375 56.5 128.865 56.72 129.245 57.16C129.645 57.6 129.845 58.15 129.845 58.81C129.845 59.27 129.705 59.71 129.425 60.13C129.145 60.53 128.795 60.85 128.375 61.09C127.955 61.33 127.545 61.45 127.145 61.45C126.545 61.45 126.045 61.23 125.645 60.79C125.265 60.35 125.075 59.8 125.075 59.14C125.075 58.68 125.215 58.25 125.495 57.85C125.775 57.43 126.125 57.1 126.545 56.86C126.965 56.62 127.375 56.5 127.775 56.5ZM143.965 65.77C144.785 65.77 145.735 65.89 146.815 66.13C147.915 66.35 148.705 66.6 149.185 66.88V71.5H148.045C147.265 70.5 146.365 69.72 145.345 69.16C144.345 68.58 143.305 68.29 142.225 68.29C141.305 68.29 140.605 68.7 140.125 69.52C139.665 70.34 139.435 71.54 139.435 73.12C139.435 75 139.845 76.58 140.665 77.86C141.485 79.12 142.655 79.75 144.175 79.75C145.315 79.75 146.935 78.93 149.035 77.29L149.935 78.43L145.315 82.06C144.515 82.22 143.555 82.3 142.435 82.3C141.115 82.3 139.925 81.96 138.865 81.28C137.825 80.58 137.005 79.64 136.405 78.46C135.825 77.28 135.535 75.98 135.535 74.56C135.535 73.02 135.965 71.57 136.825 70.21C137.705 68.85 138.805 67.77 140.125 66.97C141.445 66.17 142.725 65.77 143.965 65.77ZM161.854 82H153.484V81.07L156.154 78.97V70.21L153.484 68.35V67.42L158.614 65.5H159.754V79.75L162.454 80.8L161.854 82ZM157.834 56.5C158.434 56.5 158.924 56.72 159.304 57.16C159.704 57.6 159.904 58.15 159.904 58.81C159.904 59.27 159.764 59.71 159.484 60.13C159.204 60.53 158.854 60.85 158.434 61.09C158.014 61.33 157.604 61.45 157.204 61.45C156.604 61.45 156.104 61.23 155.704 60.79C155.324 60.35 155.134 59.8 155.134 59.14C155.134 58.68 155.274 58.25 155.554 57.85C155.834 57.43 156.184 57.1 156.604 56.86C157.024 56.62 157.434 56.5 157.834 56.5ZM174.414 82.33C173.334 82.33 172.334 82 171.414 81.34V87.16L175.614 88.45L175.014 89.65H165.144V88.72L167.814 86.62V70.51L165.144 68.95V68.02L170.274 65.5L171.264 69.4L175.554 66.01C176.194 65.85 176.924 65.77 177.744 65.77C178.824 65.77 179.794 66.12 180.654 66.82C181.534 67.5 182.214 68.43 182.694 69.61C183.194 70.79 183.444 72.09 183.444 73.51C183.444 75.05 182.974 76.5 182.034 77.86C181.094 79.2 179.914 80.28 178.494 81.1C177.094 81.9 175.734 82.3 174.414 82.3V82.33ZM176.214 68.65C175.454 68.65 174.714 68.8 173.994 69.1C173.274 69.4 172.414 69.99 171.414 70.87V75.94C171.414 77.04 171.824 77.96 172.644 78.7C173.464 79.44 174.634 79.81 176.154 79.81C178.414 79.81 179.544 78.2 179.544 74.98C179.544 73.2 179.254 71.7 178.674 70.48C178.094 69.26 177.274 68.65 176.214 68.65ZM197.434 82.06C196.634 82.22 195.674 82.3 194.554 82.3C193.234 82.3 192.044 81.96 190.984 81.28C189.944 80.58 189.124 79.64 188.524 78.46C187.944 77.28 187.654 75.98 187.654 74.56C187.654 73.02 188.124 71.58 189.064 70.24C190.004 68.88 191.174 67.8 192.574 67C193.994 66.18 195.364 65.77 196.684 65.77C198.584 65.77 200.054 66.52 201.094 68.02C202.154 69.52 202.684 71.5 202.684 73.96H191.584C191.704 75.66 192.164 77.05 192.964 78.13C193.784 79.21 194.894 79.75 196.294 79.75C197.594 79.75 199.444 78.74 201.844 76.72L202.744 77.86L197.434 82.06ZM194.944 68.29C192.784 68.29 191.654 69.77 191.554 72.73H198.574C198.394 71.65 198.204 70.83 198.004 70.27C197.824 69.69 197.494 69.22 197.014 68.86C196.554 68.48 195.864 68.29 194.944 68.29ZM217.312 65.8C217.972 65.8 218.552 65.98 219.052 66.34C219.552 66.7 219.942 67.2 220.222 67.84L218.242 70.33H217.102C217.022 69.83 216.872 69.48 216.652 69.28C216.452 69.06 216.172 68.95 215.812 68.95C215.372 68.95 214.902 69.07 214.402 69.31C213.922 69.53 213.372 69.96 212.752 70.6V79.54L216.952 80.83L216.352 82.03H206.482V81.1L209.152 79V70.51L206.482 68.95V68.02L211.612 65.5L212.542 69.19L215.662 66.01C216.082 65.85 216.632 65.77 217.312 65.77V65.8ZM246.047 82H240.347V79.39L236.957 82.06C236.557 82.22 236.057 82.3 235.457 82.3C233.737 82.3 232.487 81.87 231.707 81.01C230.947 80.15 230.567 79.12 230.567 77.92C230.567 77.2 230.827 76.49 231.347 75.79C231.867 75.09 232.607 74.43 233.567 73.81H240.347V71.89C240.347 70.59 239.997 69.67 239.297 69.13C238.617 68.59 237.677 68.32 236.477 68.32C235.237 68.32 233.717 69.07 231.917 70.57L231.017 69.43L235.337 66.01C236.137 65.85 237.097 65.77 238.217 65.77C240.037 65.77 241.447 66.22 242.447 67.12C243.447 68 243.947 69.29 243.947 70.99V79.75L246.647 80.8L246.047 82ZM236.417 79.75C237.637 79.75 238.947 79.19 240.347 78.07V75.04H235.037C234.777 75.36 234.587 75.68 234.467 76C234.367 76.32 234.317 76.67 234.317 77.05C234.317 77.79 234.507 78.43 234.887 78.97C235.267 79.49 235.777 79.75 236.417 79.75ZM266.72 82H261.02V78.88L257.21 82.06C256.79 82.22 256.24 82.3 255.56 82.3C254.2 82.3 253.12 81.89 252.32 81.07C251.52 80.23 251.12 79.1 251.12 77.68V70.51L248.45 68.95V68.02L253.58 65.5H254.72V76.18C254.72 77.28 254.89 78.05 255.23 78.49C255.57 78.93 256.18 79.15 257.06 79.15C257.68 79.15 258.29 79.04 258.89 78.82C259.49 78.58 260.2 78.12 261.02 77.44V70.51L258.35 68.95V68.02L263.48 65.5H264.62V79.75L267.32 80.8L266.72 82ZM287.285 65.77C288.105 65.77 289.055 65.89 290.135 66.13C291.235 66.35 292.025 66.6 292.505 66.88V71.5H291.365C290.585 70.5 289.685 69.72 288.665 69.16C287.665 68.58 286.625 68.29 285.545 68.29C284.625 68.29 283.925 68.7 283.445 69.52C282.985 70.34 282.755 71.54 282.755 73.12C282.755 75 283.165 76.58 283.985 77.86C284.805 79.12 285.975 79.75 287.495 79.75C288.635 79.75 290.255 78.93 292.355 77.29L293.255 78.43L288.635 82.06C287.835 82.22 286.875 82.3 285.755 82.3C284.435 82.3 283.245 81.96 282.185 81.28C281.145 80.58 280.325 79.64 279.725 78.46C279.145 77.28 278.855 75.98 278.855 74.56C278.855 73.02 279.285 71.57 280.145 70.21C281.025 68.85 282.125 67.77 283.445 66.97C284.765 66.17 286.045 65.77 287.285 65.77ZM306.284 65.77C307.604 65.77 308.784 66.12 309.824 66.82C310.884 67.5 311.704 68.43 312.284 69.61C312.884 70.79 313.184 72.09 313.184 73.51C313.184 75.05 312.714 76.5 311.774 77.86C310.834 79.2 309.654 80.28 308.234 81.1C306.834 81.9 305.474 82.3 304.154 82.3C302.834 82.3 301.644 81.96 300.584 81.28C299.544 80.58 298.724 79.64 298.124 78.46C297.544 77.28 297.254 75.98 297.254 74.56C297.254 73.02 297.724 71.58 298.664 70.24C299.604 68.88 300.774 67.8 302.174 67C303.594 66.18 304.964 65.77 306.284 65.77ZM304.544 68.29C302.284 68.29 301.154 69.9 301.154 73.12C301.154 75.02 301.564 76.61 302.384 77.89C303.204 79.15 304.374 79.78 305.894 79.78C308.154 79.78 309.284 78.16 309.284 74.92C309.284 73.04 308.874 71.47 308.054 70.21C307.234 68.93 306.064 68.29 304.544 68.29ZM335.501 82.03H329.801V71.92C329.801 70.82 329.631 70.05 329.291 69.61C328.951 69.17 328.341 68.95 327.461 68.95C326.801 68.95 326.141 69.07 325.481 69.31C324.841 69.55 324.081 70.01 323.201 70.69V79.78L325.901 80.83L325.301 82.03H316.931V81.1L319.601 79V70.51L316.931 68.95V68.02L322.061 65.5L323.051 69.4L327.311 66.01C327.731 65.85 328.281 65.77 328.961 65.77C330.321 65.77 331.401 66.19 332.201 67.03C333.001 67.85 333.401 68.97 333.401 70.39V79.75L336.101 80.83L335.501 82.03ZM347.373 65.77C348.193 65.77 349.143 65.89 350.223 66.13C351.323 66.35 352.113 66.6 352.593 66.88V71.5H351.453C350.673 70.5 349.773 69.72 348.753 69.16C347.753 68.58 346.713 68.29 345.633 68.29C344.713 68.29 344.013 68.7 343.533 69.52C343.073 70.34 342.843 71.54 342.843 73.12C342.843 75 343.253 76.58 344.073 77.86C344.893 79.12 346.063 79.75 347.583 79.75C348.723 79.75 350.343 78.93 352.443 77.29L353.343 78.43L348.723 82.06C347.923 82.22 346.963 82.3 345.843 82.3C344.523 82.3 343.333 81.96 342.273 81.28C341.233 80.58 340.413 79.64 339.813 78.46C339.233 77.28 338.943 75.98 338.943 74.56C338.943 73.02 339.373 71.57 340.233 70.21C341.113 68.85 342.213 67.77 343.533 66.97C344.853 66.17 346.133 65.77 347.373 65.77ZM366.372 65.77C367.692 65.77 368.872 66.12 369.912 66.82C370.972 67.5 371.792 68.43 372.372 69.61C372.972 70.79 373.272 72.09 373.272 73.51C373.272 75.05 372.802 76.5 371.862 77.86C370.922 79.2 369.742 80.28 368.322 81.1C366.922 81.9 365.562 82.3 364.242 82.3C362.922 82.3 361.732 81.96 360.672 81.28C359.632 80.58 358.812 79.64 358.212 78.46C357.632 77.28 357.342 75.98 357.342 74.56C357.342 73.02 357.812 71.58 358.752 70.24C359.692 68.88 360.862 67.8 362.262 67C363.682 66.18 365.052 65.77 366.372 65.77ZM364.632 68.29C362.372 68.29 361.242 69.9 361.242 73.12C361.242 75.02 361.652 76.61 362.472 77.89C363.292 79.15 364.462 79.78 365.982 79.78C368.242 79.78 369.372 78.16 369.372 74.92C369.372 73.04 368.962 71.47 368.142 70.21C367.322 68.93 366.152 68.29 364.632 68.29ZM394.103 82H388.403V78.88L384.593 82.06C384.173 82.22 383.623 82.3 382.943 82.3C381.583 82.3 380.503 81.89 379.703 81.07C378.903 80.23 378.503 79.1 378.503 77.68V70.51L375.833 68.95V68.02L380.963 65.5H382.103V76.18C382.103 77.28 382.273 78.05 382.613 78.49C382.953 78.93 383.563 79.15 384.443 79.15C385.063 79.15 385.673 79.04 386.273 78.82C386.873 78.58 387.583 78.12 388.403 77.44V70.51L385.733 68.95V68.02L390.863 65.5H392.003V79.75L394.703 80.8L394.103 82ZM408.239 65.8C408.899 65.8 409.479 65.98 409.979 66.34C410.479 66.7 410.869 67.2 411.149 67.84L409.169 70.33H408.029C407.949 69.83 407.799 69.48 407.579 69.28C407.379 69.06 407.099 68.95 406.739 68.95C406.299 68.95 405.829 69.07 405.329 69.31C404.849 69.53 404.299 69.96 403.679 70.6V79.54L407.879 80.83L407.279 82.03H397.409V81.1L400.079 79V70.51L397.409 68.95V68.02L402.539 65.5L403.469 69.19L406.589 66.01C407.009 65.85 407.559 65.77 408.239 65.77V65.8ZM422.626 78.76C422.626 78.2 422.316 77.69 421.696 77.23C421.076 76.75 420.126 76.18 418.846 75.52C417.806 74.98 416.966 74.51 416.326 74.11C415.686 73.71 415.136 73.25 414.676 72.73C414.236 72.19 414.016 71.61 414.016 70.99C414.016 70.27 414.316 69.5 414.916 68.68C415.516 67.86 416.256 67.17 417.136 66.61C418.016 66.05 418.836 65.77 419.596 65.77C420.516 65.77 421.576 65.89 422.776 66.13C423.996 66.35 424.876 66.6 425.416 66.88V71.5H424.276C423.636 70.26 422.896 69.3 422.056 68.62C421.216 67.92 420.356 67.57 419.476 67.57C418.856 67.57 418.356 67.74 417.976 68.08C417.596 68.4 417.406 68.81 417.406 69.31C417.406 69.93 417.726 70.49 418.366 70.99C419.026 71.47 420.016 72.04 421.336 72.7C422.356 73.22 423.176 73.67 423.796 74.05C424.416 74.43 424.936 74.88 425.356 75.4C425.796 75.9 426.016 76.46 426.016 77.08C426.016 77.82 425.696 78.6 425.056 79.42C424.436 80.22 423.666 80.9 422.746 81.46C421.846 82.02 421.016 82.3 420.256 82.3C419.276 82.3 418.106 82.19 416.746 81.97C415.406 81.73 414.446 81.47 413.866 81.19V76.57H415.006C415.706 77.81 416.536 78.78 417.496 79.48C418.456 80.16 419.426 80.5 420.406 80.5C421.066 80.5 421.596 80.33 421.996 79.99C422.416 79.65 422.626 79.24 422.626 78.76Z" fill="black"/>
</svg>
