<svg width="484" height="145" viewBox="0 0 484 145" fill="none" xmlns="http://www.w3.org/2000/svg">
<path d="M43.8009 0H440.199L484 72.5L440.199 145H43.8009L0 72.5L43.8009 0Z" fill="#F7B539"/>
<path d="M429.888 8.37305L470.892 72.5L429.888 136.627H54.1116L13.1077 72.5L54.1116 8.37305H429.888Z" fill="#F5DCAC" stroke="black" stroke-width="2"/>
<mask id="path-3-inside-1_2307_259" fill="white">
<path d="M39.7593 72.6841L24.9142 93.57L10.1205 72.7563L24.9656 51.8704L39.7593 72.6841Z"/>
</mask>
<path d="M39.7593 72.6841L24.9142 93.57L10.1205 72.7563L24.9656 51.8704L39.7593 72.6841Z" fill="#F7B539"/>
<path d="M39.7593 72.6841L40.918 74.3143L42.0766 72.6841L40.918 71.0539L39.7593 72.6841ZM39.7593 72.6841L38.6006 71.0539L23.7555 91.9399L24.9142 93.57L26.0729 95.2002L40.918 74.3143L39.7593 72.6841ZM24.9656 51.8704L23.8069 53.5006L38.6006 74.3143L39.7593 72.6841L40.918 71.0539L26.1242 50.2402L24.9656 51.8704Z" fill="black" mask="url(#path-3-inside-1_2307_259)"/>
<path d="M31.6235 72.0576L21.5775 86.1916L11.5663 72.1065L21.6123 57.9725L31.6235 72.0576Z" fill="black"/>
<mask id="path-6-inside-2_2307_259" fill="white">
<path d="M443.859 72.7563L458.704 51.8704L473.498 72.6841L458.653 93.57L443.859 72.7563Z"/>
</mask>
<path d="M443.859 72.7563L458.704 51.8704L473.498 72.6841L458.653 93.57L443.859 72.7563Z" fill="#F7B539"/>
<path d="M443.859 72.7563L442.7 71.1262L441.542 72.7563L442.7 74.3865L443.859 72.7563ZM443.859 72.7563L445.018 74.3865L459.863 53.5006L458.704 51.8704L457.546 50.2402L442.7 71.1262L443.859 72.7563ZM458.653 93.57L459.812 91.9399L445.018 71.1262L443.859 72.7563L442.7 74.3865L457.494 95.2002L458.653 93.57Z" fill="black" mask="url(#path-6-inside-2_2307_259)"/>
<path d="M471.868 72.0576L461.822 86.1916L451.811 72.1065L461.857 57.9725L471.868 72.0576Z" fill="black"/>
<path d="M114.114 70.51C115.474 70.51 116.544 70.14 117.324 69.4C118.124 68.66 118.524 67.64 118.524 66.34C118.524 64.5 118.054 63 117.114 61.84C116.194 60.66 114.844 60.07 113.064 60.07C111.704 60.07 110.464 60.46 109.344 61.24V79.54L113.994 80.83L113.394 82.03H102.774V81.1L105.594 78.88V60.64L102.474 59.62L103.074 58.42H106.554C108.494 58.42 110.404 58.36 112.284 58.24C113.684 58.16 114.714 58.12 115.374 58.12C116.774 58.12 118.014 58.42 119.094 59.02C120.194 59.6 121.044 60.41 121.644 61.45C122.244 62.49 122.544 63.64 122.544 64.9C122.544 66.3 122.034 67.62 121.014 68.86C119.994 70.1 118.694 71.07 117.114 71.77C115.534 72.47 113.984 72.78 112.464 72.7L111.054 71.68L111.654 70.48H114.084L114.114 70.51ZM134.373 82H126.003V81.07L128.673 78.97V70.21L126.003 68.35V67.42L131.133 65.5H132.273V79.75L134.973 80.8L134.373 82ZM130.353 56.5C130.953 56.5 131.443 56.72 131.823 57.16C132.223 57.6 132.423 58.15 132.423 58.81C132.423 59.27 132.283 59.71 132.003 60.13C131.723 60.53 131.373 60.85 130.953 61.09C130.533 61.33 130.123 61.45 129.723 61.45C129.123 61.45 128.623 61.23 128.223 60.79C127.843 60.35 127.653 59.8 127.653 59.14C127.653 58.68 127.793 58.25 128.073 57.85C128.353 57.43 128.703 57.1 129.123 56.86C129.543 56.62 129.953 56.5 130.353 56.5ZM150.803 68.14C151.363 68.94 151.643 69.84 151.643 70.84C151.643 71.72 151.393 72.59 150.893 73.45C150.393 74.29 149.723 75.03 148.883 75.67C148.043 76.31 147.123 76.79 146.123 77.11C145.583 77.65 145.313 78.22 145.313 78.82C145.313 79.16 145.573 79.48 146.093 79.78C146.633 80.06 147.423 80.4 148.463 80.8C149.883 81.36 150.973 81.87 151.733 82.33C152.513 82.81 152.903 83.39 152.903 84.07C152.903 84.67 152.513 85.44 151.733 86.38C150.973 87.32 150.023 88.14 148.883 88.84C147.743 89.54 146.643 89.89 145.583 89.89C144.463 89.89 143.133 89.7 141.593 89.32C140.073 88.94 138.803 88.56 137.783 88.18V83.56H138.923C140.043 84.94 141.183 85.99 142.343 86.71C143.503 87.43 144.813 87.79 146.273 87.79C146.813 87.79 147.303 87.68 147.743 87.46C148.203 87.24 148.553 86.96 148.793 86.62C149.053 86.3 149.183 85.99 149.183 85.69C149.183 85.15 148.873 84.68 148.253 84.28C147.633 83.9 146.663 83.43 145.343 82.87C144.083 82.35 143.143 81.9 142.523 81.52C141.923 81.14 141.623 80.7 141.623 80.2C141.623 79.72 141.943 79.23 142.583 78.73C143.223 78.23 143.983 77.79 144.863 77.41C144.543 77.47 144.213 77.5 143.873 77.5C142.813 77.5 141.843 77.27 140.963 76.81C140.083 76.33 139.383 75.7 138.863 74.92C138.363 74.14 138.113 73.29 138.113 72.37C138.113 71.27 138.493 70.21 139.253 69.19C140.013 68.17 140.993 67.35 142.193 66.73C143.413 66.09 144.653 65.77 145.913 65.77C147.313 65.77 148.543 66.17 149.603 66.97H154.313L154.343 68.14H150.803ZM145.613 74.92C146.513 74.92 147.193 74.7 147.653 74.26C148.133 73.8 148.373 73.13 148.373 72.25C148.373 71.05 147.983 70.08 147.203 69.34C146.443 68.6 145.433 68.23 144.173 68.23C143.293 68.23 142.613 68.45 142.133 68.89C141.673 69.31 141.443 69.96 141.443 70.84C141.443 72.06 141.823 73.05 142.583 73.81C143.363 74.55 144.373 74.92 145.613 74.92ZM166.497 82.06C165.697 82.22 164.737 82.3 163.617 82.3C162.297 82.3 161.107 81.96 160.047 81.28C159.007 80.58 158.187 79.64 157.587 78.46C157.007 77.28 156.717 75.98 156.717 74.56C156.717 73.02 157.187 71.58 158.127 70.24C159.067 68.88 160.237 67.8 161.637 67C163.057 66.18 164.427 65.77 165.747 65.77C167.647 65.77 169.117 66.52 170.157 68.02C171.217 69.52 171.747 71.5 171.747 73.96H160.647C160.767 75.66 161.227 77.05 162.027 78.13C162.847 79.21 163.957 79.75 165.357 79.75C166.657 79.75 168.507 78.74 170.907 76.72L171.807 77.86L166.497 82.06ZM164.007 68.29C161.847 68.29 160.717 69.77 160.617 72.73H167.637C167.457 71.65 167.267 70.83 167.067 70.27C166.887 69.69 166.557 69.22 166.077 68.86C165.617 68.48 164.927 68.29 164.007 68.29ZM186.374 65.8C187.034 65.8 187.614 65.98 188.114 66.34C188.614 66.7 189.004 67.2 189.284 67.84L187.304 70.33H186.164C186.084 69.83 185.934 69.48 185.714 69.28C185.514 69.06 185.234 68.95 184.874 68.95C184.434 68.95 183.964 69.07 183.464 69.31C182.984 69.53 182.434 69.96 181.814 70.6V79.54L186.014 80.83L185.414 82.03H175.544V81.1L178.214 79V70.51L175.544 68.95V68.02L180.674 65.5L181.604 69.19L184.724 66.01C185.144 65.85 185.694 65.77 186.374 65.77V65.8ZM217.15 82H211.45V78.88L207.64 82.06C207.22 82.22 206.67 82.3 205.99 82.3C204.63 82.3 203.55 81.89 202.75 81.07C201.95 80.23 201.55 79.1 201.55 77.68V70.51L198.88 68.95V68.02L204.01 65.5H205.15V76.18C205.15 77.28 205.32 78.05 205.66 78.49C206 78.93 206.61 79.15 207.49 79.15C208.11 79.15 208.72 79.04 209.32 78.82C209.92 78.58 210.63 78.12 211.45 77.44V70.51L208.78 68.95V68.02L213.91 65.5H215.05V79.75L217.75 80.8L217.15 82ZM239.026 82.03H233.326V71.92C233.326 70.82 233.156 70.05 232.816 69.61C232.476 69.17 231.866 68.95 230.986 68.95C230.326 68.95 229.666 69.07 229.006 69.31C228.366 69.55 227.606 70.01 226.726 70.69V79.78L229.426 80.83L228.826 82.03H220.456V81.1L223.126 79V70.51L220.456 68.95V68.02L225.586 65.5L226.576 69.4L230.836 66.01C231.256 65.85 231.806 65.77 232.486 65.77C233.846 65.77 234.926 66.19 235.726 67.03C236.526 67.85 236.926 68.97 236.926 70.39V79.75L239.626 80.83L239.026 82.03ZM252.249 82.06C251.449 82.22 250.489 82.3 249.369 82.3C248.049 82.3 246.859 81.96 245.799 81.28C244.759 80.58 243.939 79.64 243.339 78.46C242.759 77.28 242.469 75.98 242.469 74.56C242.469 73.02 242.939 71.58 243.879 70.24C244.819 68.88 245.989 67.8 247.389 67C248.809 66.18 250.179 65.77 251.499 65.77C253.399 65.77 254.869 66.52 255.909 68.02C256.969 69.52 257.499 71.5 257.499 73.96H246.399C246.519 75.66 246.979 77.05 247.779 78.13C248.599 79.21 249.709 79.75 251.109 79.75C252.409 79.75 254.259 78.74 256.659 76.72L257.559 77.86L252.249 82.06ZM249.759 68.29C247.599 68.29 246.469 69.77 246.369 72.73H253.389C253.209 71.65 253.019 70.83 252.819 70.27C252.639 69.69 252.309 69.22 251.829 68.86C251.369 68.48 250.679 68.29 249.759 68.29ZM278.555 65.77C279.375 65.77 280.325 65.89 281.405 66.13C282.505 66.35 283.295 66.6 283.775 66.88V71.5H282.635C281.855 70.5 280.955 69.72 279.935 69.16C278.935 68.58 277.895 68.29 276.815 68.29C275.895 68.29 275.195 68.7 274.715 69.52C274.255 70.34 274.025 71.54 274.025 73.12C274.025 75 274.435 76.58 275.255 77.86C276.075 79.12 277.245 79.75 278.765 79.75C279.905 79.75 281.525 78.93 283.625 77.29L284.525 78.43L279.905 82.06C279.105 82.22 278.145 82.3 277.025 82.3C275.705 82.3 274.515 81.96 273.455 81.28C272.415 80.58 271.595 79.64 270.995 78.46C270.415 77.28 270.125 75.98 270.125 74.56C270.125 73.02 270.555 71.57 271.415 70.21C272.295 68.85 273.395 67.77 274.715 66.97C276.035 66.17 277.315 65.77 278.555 65.77ZM306.043 82H300.343V71.89C300.343 70.79 300.173 70.02 299.833 69.58C299.493 69.14 298.883 68.92 298.003 68.92C297.343 68.92 296.683 69.04 296.023 69.28C295.383 69.52 294.623 69.98 293.743 70.66V79.75L296.443 80.8L295.843 82H287.473V81.07L290.143 78.97V60.52L287.473 58.66V57.73L292.603 55.81H293.743V69.25L297.853 66.01C298.273 65.85 298.823 65.77 299.503 65.77C300.863 65.77 301.943 66.19 302.743 67.03C303.543 67.85 303.943 68.97 303.943 70.39V79.75L306.643 80.8L306.043 82ZM324.68 82H318.98V79.39L315.59 82.06C315.19 82.22 314.69 82.3 314.09 82.3C312.37 82.3 311.12 81.87 310.34 81.01C309.58 80.15 309.2 79.12 309.2 77.92C309.2 77.2 309.46 76.49 309.98 75.79C310.5 75.09 311.24 74.43 312.2 73.81H318.98V71.89C318.98 70.59 318.63 69.67 317.93 69.13C317.25 68.59 316.31 68.32 315.11 68.32C313.87 68.32 312.35 69.07 310.55 70.57L309.65 69.43L313.97 66.01C314.77 65.85 315.73 65.77 316.85 65.77C318.67 65.77 320.08 66.22 321.08 67.12C322.08 68 322.58 69.29 322.58 70.99V79.75L325.28 80.8L324.68 82ZM315.05 79.75C316.27 79.75 317.58 79.19 318.98 78.07V75.04H313.67C313.41 75.36 313.22 75.68 313.1 76C313 76.32 312.95 76.67 312.95 77.05C312.95 77.79 313.14 78.43 313.52 78.97C313.9 79.49 314.41 79.75 315.05 79.75ZM337.343 78.76C337.343 78.2 337.033 77.69 336.413 77.23C335.793 76.75 334.843 76.18 333.563 75.52C332.523 74.98 331.683 74.51 331.043 74.11C330.403 73.71 329.853 73.25 329.393 72.73C328.953 72.19 328.733 71.61 328.733 70.99C328.733 70.27 329.033 69.5 329.633 68.68C330.233 67.86 330.973 67.17 331.853 66.61C332.733 66.05 333.553 65.77 334.313 65.77C335.233 65.77 336.293 65.89 337.493 66.13C338.713 66.35 339.593 66.6 340.133 66.88V71.5H338.993C338.353 70.26 337.613 69.3 336.773 68.62C335.933 67.92 335.073 67.57 334.193 67.57C333.573 67.57 333.073 67.74 332.693 68.08C332.313 68.4 332.123 68.81 332.123 69.31C332.123 69.93 332.443 70.49 333.083 70.99C333.743 71.47 334.733 72.04 336.053 72.7C337.073 73.22 337.893 73.67 338.513 74.05C339.133 74.43 339.653 74.88 340.073 75.4C340.513 75.9 340.733 76.46 340.733 77.08C340.733 77.82 340.413 78.6 339.773 79.42C339.153 80.22 338.383 80.9 337.463 81.46C336.563 82.02 335.733 82.3 334.973 82.3C333.993 82.3 332.823 82.19 331.463 81.97C330.123 81.73 329.163 81.47 328.583 81.19V76.57H329.723C330.423 77.81 331.253 78.78 332.213 79.48C333.173 80.16 334.143 80.5 335.123 80.5C335.783 80.5 336.313 80.33 336.713 79.99C337.133 79.65 337.343 79.24 337.343 78.76ZM354.101 78.76C354.101 78.2 353.791 77.69 353.171 77.23C352.551 76.75 351.601 76.18 350.321 75.52C349.281 74.98 348.441 74.51 347.801 74.11C347.161 73.71 346.611 73.25 346.151 72.73C345.711 72.19 345.491 71.61 345.491 70.99C345.491 70.27 345.791 69.5 346.391 68.68C346.991 67.86 347.731 67.17 348.611 66.61C349.491 66.05 350.311 65.77 351.071 65.77C351.991 65.77 353.051 65.89 354.251 66.13C355.471 66.35 356.351 66.6 356.891 66.88V71.5H355.751C355.111 70.26 354.371 69.3 353.531 68.62C352.691 67.92 351.831 67.57 350.951 67.57C350.331 67.57 349.831 67.74 349.451 68.08C349.071 68.4 348.881 68.81 348.881 69.31C348.881 69.93 349.201 70.49 349.841 70.99C350.501 71.47 351.491 72.04 352.811 72.7C353.831 73.22 354.651 73.67 355.271 74.05C355.891 74.43 356.411 74.88 356.831 75.4C357.271 75.9 357.491 76.46 357.491 77.08C357.491 77.82 357.171 78.6 356.531 79.42C355.911 80.22 355.141 80.9 354.221 81.46C353.321 82.02 352.491 82.3 351.731 82.3C350.751 82.3 349.581 82.19 348.221 81.97C346.881 81.73 345.921 81.47 345.341 81.19V76.57H346.481C347.181 77.81 348.011 78.78 348.971 79.48C349.931 80.16 350.901 80.5 351.881 80.5C352.541 80.5 353.071 80.33 353.471 79.99C353.891 79.65 354.101 79.24 354.101 78.76ZM371.428 82.06C370.628 82.22 369.668 82.3 368.548 82.3C367.228 82.3 366.038 81.96 364.978 81.28C363.938 80.58 363.118 79.64 362.518 78.46C361.938 77.28 361.648 75.98 361.648 74.56C361.648 73.02 362.118 71.58 363.058 70.24C363.998 68.88 365.168 67.8 366.568 67C367.988 66.18 369.358 65.77 370.678 65.77C372.578 65.77 374.048 66.52 375.088 68.02C376.148 69.52 376.678 71.5 376.678 73.96H365.578C365.698 75.66 366.158 77.05 366.958 78.13C367.778 79.21 368.888 79.75 370.288 79.75C371.588 79.75 373.438 78.74 375.838 76.72L376.738 77.86L371.428 82.06ZM368.938 68.29C366.778 68.29 365.648 69.77 365.548 72.73H372.568C372.388 71.65 372.198 70.83 371.998 70.27C371.818 69.69 371.488 69.22 371.008 68.86C370.548 68.48 369.858 68.29 368.938 68.29Z" fill="black"/>
</svg>
