<svg width="270" height="73" viewBox="0 0 270 73" fill="none" xmlns="http://www.w3.org/2000/svg">
<path d="M24.4344 73H245.566L270 36.5L245.566 -2.98023e-06H24.4344L0 36.5L24.4344 73Z" fill="#F5DCAC"/>
<path d="M239.601 68.2881L262.124 36.5L239.601 4.71191H30.3983L7.87585 36.5L30.3983 68.2881H239.601Z" fill="#F5DCAC" stroke="black" stroke-width="2"/>
<mask id="path-3-inside-1_2307_186" fill="white">
<path d="M22.1798 36.4072L13.8985 25.8922L5.64577 36.3708L13.9271 46.8858L22.1798 36.4072Z"/>
</mask>
<path d="M22.1798 36.4072L13.8985 25.8922L5.64577 36.3708L13.9271 46.8858L22.1798 36.4072Z" fill="#F5DCAC"/>
<path d="M22.1798 36.4072L23.4173 34.836L24.6547 36.4072L23.4173 37.9784L22.1798 36.4072ZM22.1798 36.4072L20.9424 37.9784L12.661 27.4634L13.8985 25.8922L15.1359 24.321L23.4173 34.836L22.1798 36.4072ZM13.9271 46.8858L12.6897 45.3146L20.9424 34.836L22.1798 36.4072L23.4173 37.9784L15.1646 48.4571L13.9271 46.8858Z" fill="black" mask="url(#path-3-inside-1_2307_186)"/>
<path d="M17.6414 36.7227L12.0372 29.6069L6.45238 36.698L12.0566 43.8138L17.6414 36.7227Z" fill="black"/>
<mask id="path-6-inside-2_2307_186" fill="white">
<path d="M247.607 36.3711L255.889 46.8861L264.141 36.4075L255.86 25.8925L247.607 36.3711Z"/>
</mask>
<path d="M247.607 36.3711L255.889 46.8861L264.141 36.4075L255.86 25.8925L247.607 36.3711Z" fill="#F5DCAC"/>
<path d="M247.607 36.3711L246.37 37.9423L245.132 36.3711L246.37 34.7999L247.607 36.3711ZM247.607 36.3711L248.845 34.7999L257.126 45.3149L255.889 46.8861L254.651 48.4573L246.37 37.9423L247.607 36.3711ZM255.86 25.8925L257.097 27.4637L248.845 37.9423L247.607 36.3711L246.37 34.7999L254.623 24.3213L255.86 25.8925Z" fill="black" mask="url(#path-6-inside-2_2307_186)"/>
<path d="M263.232 36.7227L257.628 29.6069L252.043 36.698L257.648 43.8138L263.232 36.7227Z" fill="black"/>
<path d="M97.3679 24.112H97.3519C97.1919 24.112 97.0319 24.016 96.8719 23.824C96.7119 23.632 96.6319 23.4667 96.6319 23.328C96.6319 23.2213 96.6799 23.1627 96.7759 23.152C97.4479 23.024 97.9812 22.928 98.3759 22.864C98.7705 22.7893 99.0905 22.736 99.3359 22.704C99.5919 22.6613 99.8265 22.64 100.04 22.64C100.253 22.6293 100.504 22.624 100.792 22.624C102.189 22.624 103.219 22.8587 103.88 23.328C104.541 23.7867 104.872 24.4267 104.872 25.248C104.872 26.1867 104.573 26.9333 103.976 27.488C103.389 28.0427 102.605 28.4213 101.624 28.624C101.325 28.688 100.931 28.7467 100.44 28.8C99.9599 28.8533 99.5172 28.88 99.1119 28.88C99.0265 28.88 98.9412 28.88 98.8559 28.88C98.7812 28.88 98.7119 28.8747 98.6479 28.864C98.5839 28.8427 98.5305 28.8213 98.4879 28.8V32.16C98.4879 32.5227 98.4932 32.88 98.5039 33.232C98.5252 33.5733 98.5359 33.8347 98.5359 34.016C98.5359 34.1227 98.4239 34.176 98.1999 34.176C98.0292 34.176 97.8425 34.1333 97.6399 34.048C97.4372 33.9733 97.3359 33.8667 97.3359 33.728C97.3359 33.6 97.3412 33.3813 97.3519 33.072C97.3625 32.7627 97.3679 32.4533 97.3679 32.144V24.112ZM98.4879 28.208C98.5199 28.1867 98.5519 28.1707 98.5839 28.16C98.6159 28.1493 98.6532 28.144 98.6959 28.144C99.6772 28.08 100.483 27.9573 101.112 27.776C101.741 27.5947 102.232 27.3867 102.584 27.152C102.947 26.9067 103.208 26.6667 103.368 26.432C103.528 26.1867 103.624 25.968 103.656 25.776C103.699 25.5733 103.72 25.4293 103.72 25.344C103.72 24.7467 103.459 24.3147 102.936 24.048C102.424 23.7707 101.699 23.632 100.76 23.632C100.376 23.632 99.9865 23.664 99.5919 23.728C99.1972 23.7813 98.8292 23.856 98.4879 23.952V28.208ZM108.443 23.824C108.443 24.0267 108.373 24.2027 108.235 24.352C108.096 24.4907 107.904 24.56 107.659 24.56C107.456 24.56 107.269 24.4587 107.099 24.256C106.939 24.0427 106.859 23.824 106.859 23.6C106.859 23.3867 106.923 23.2053 107.051 23.056C107.189 22.9067 107.392 22.832 107.659 22.832C107.851 22.832 108.027 22.9387 108.187 23.152C108.357 23.3653 108.443 23.5893 108.443 23.824ZM107.115 28.112C107.115 28.0053 107.109 27.84 107.099 27.616C107.088 27.392 107.077 27.1627 107.067 26.928C107.067 26.6933 107.067 26.5173 107.067 26.4C107.067 26.304 107.168 26.256 107.371 26.256C107.552 26.256 107.744 26.2987 107.947 26.384C108.149 26.4587 108.251 26.56 108.251 26.688C108.251 26.7733 108.245 26.9067 108.235 27.088C108.235 27.2587 108.229 27.44 108.219 27.632C108.219 27.824 108.219 27.984 108.219 28.112V32.32C108.219 32.384 108.224 32.528 108.235 32.752C108.245 32.976 108.251 33.2107 108.251 33.456C108.261 33.7013 108.267 33.888 108.267 34.016C108.267 34.112 108.165 34.16 107.963 34.16C107.792 34.16 107.6 34.1173 107.387 34.032C107.184 33.9573 107.083 33.856 107.083 33.728C107.083 33.6427 107.083 33.504 107.083 33.312C107.093 33.1093 107.099 32.912 107.099 32.72C107.109 32.528 107.115 32.3947 107.115 32.32V28.112ZM116.55 32.112C116.155 32.752 115.68 33.2107 115.126 33.488C114.571 33.7547 114.011 33.888 113.446 33.888C112.603 33.888 111.931 33.6107 111.43 33.056C110.928 32.5013 110.678 31.6907 110.678 30.624C110.678 30.08 110.779 29.5467 110.982 29.024C111.184 28.5013 111.462 28.032 111.814 27.616C112.176 27.1893 112.587 26.8533 113.046 26.608C113.515 26.352 114.011 26.224 114.534 26.224C114.971 26.224 115.366 26.3093 115.718 26.48C116.08 26.64 116.363 26.896 116.566 27.248C116.566 27.0453 116.555 26.88 116.534 26.752C116.523 26.624 116.518 26.5067 116.518 26.4C116.518 26.2933 116.619 26.24 116.822 26.24C116.992 26.24 117.174 26.2827 117.366 26.368C117.558 26.4427 117.654 26.544 117.654 26.672V26.688C117.643 26.8907 117.627 27.136 117.606 27.424C117.595 27.712 117.59 27.9947 117.59 28.272V33.2C117.59 33.9787 117.408 34.6347 117.046 35.168C116.683 35.7013 116.203 36.1067 115.606 36.384C115.019 36.6613 114.368 36.8 113.654 36.8C112.918 36.8 112.326 36.672 111.878 36.416C111.44 36.1707 111.078 35.8187 110.79 35.36C110.758 35.3067 110.742 35.2587 110.742 35.216C110.742 35.056 110.822 34.8853 110.982 34.704C111.152 34.5333 111.307 34.448 111.446 34.448C111.552 34.448 111.627 34.5013 111.67 34.608C111.862 35.0453 112.102 35.3547 112.39 35.536C112.688 35.728 113.11 35.824 113.654 35.824C114.208 35.824 114.699 35.7173 115.126 35.504C115.563 35.2907 115.91 34.9867 116.166 34.592C116.422 34.1973 116.55 33.728 116.55 33.184V32.112ZM116.566 27.76C116.48 27.8773 116.379 27.936 116.262 27.936C116.176 27.936 116.107 27.904 116.054 27.84C115.894 27.6267 115.675 27.4613 115.398 27.344C115.12 27.2267 114.838 27.168 114.55 27.168C114.155 27.168 113.787 27.2693 113.446 27.472C113.115 27.664 112.822 27.9307 112.566 28.272C112.32 28.6027 112.123 28.9707 111.974 29.376C111.835 29.7813 111.766 30.192 111.766 30.608C111.766 31.4507 111.904 32.048 112.182 32.4C112.47 32.752 112.891 32.928 113.446 32.928C113.83 32.928 114.23 32.832 114.646 32.64C115.072 32.448 115.451 32.1653 115.782 31.792C116.123 31.4187 116.358 30.9547 116.486 30.4C116.518 30.2827 116.539 30.08 116.55 29.792C116.56 29.504 116.566 29.1787 116.566 28.816C116.566 28.4533 116.566 28.1013 116.566 27.76ZM121.079 30.864V31.024C121.079 31.7173 121.255 32.2773 121.607 32.704C121.97 33.1307 122.418 33.344 122.951 33.344C123.634 33.344 124.258 33.2373 124.823 33.024C125.399 32.8 125.9 32.4587 126.327 32C126.402 31.9147 126.471 31.856 126.535 31.824C126.599 31.7813 126.652 31.76 126.695 31.76C126.802 31.76 126.855 31.824 126.855 31.952C126.855 32.048 126.775 32.2187 126.615 32.464C126.466 32.7093 126.231 32.976 125.911 33.264C125.591 33.5413 125.186 33.7813 124.695 33.984C124.204 34.1867 123.623 34.288 122.951 34.288C122.407 34.288 121.911 34.1547 121.463 33.888C121.026 33.6107 120.679 33.216 120.423 32.704C120.167 32.192 120.039 31.584 120.039 30.88V30.656C119.943 30.5813 119.863 30.496 119.799 30.4C119.735 30.304 119.703 30.2187 119.703 30.144C119.703 30.0053 119.804 29.936 120.007 29.936C120.018 29.936 120.039 29.936 120.071 29.936C120.114 29.9253 120.14 29.92 120.151 29.92C120.226 29.536 120.375 29.1307 120.599 28.704C120.834 28.2773 121.127 27.8773 121.479 27.504C121.831 27.12 122.231 26.8107 122.679 26.576C123.138 26.3413 123.628 26.224 124.151 26.224C124.812 26.224 125.335 26.3413 125.719 26.576C126.114 26.8 126.391 27.0933 126.551 27.456C126.722 27.808 126.807 28.176 126.807 28.56C126.807 28.9227 126.775 29.2107 126.711 29.424C126.658 29.6373 126.524 29.8133 126.311 29.952C126.098 30.08 125.751 30.2187 125.271 30.368C124.791 30.5173 124.215 30.64 123.543 30.736C122.882 30.8213 122.13 30.864 121.287 30.864H121.079ZM121.527 29.968C122.316 29.968 122.978 29.9253 123.511 29.84C124.044 29.744 124.487 29.648 124.839 29.552C125.223 29.4347 125.468 29.3067 125.575 29.168C125.692 29.0293 125.751 28.8213 125.751 28.544C125.751 27.616 125.212 27.152 124.135 27.152C123.74 27.152 123.378 27.2427 123.047 27.424C122.716 27.6053 122.423 27.84 122.167 28.128C121.922 28.416 121.714 28.7253 121.543 29.056C121.383 29.376 121.271 29.68 121.207 29.968H121.527ZM129.238 28.128C129.238 28.0213 129.233 27.856 129.222 27.632C129.212 27.408 129.201 27.1787 129.19 26.944C129.19 26.7093 129.19 26.5333 129.19 26.416C129.19 26.3093 129.297 26.256 129.51 26.256C129.681 26.256 129.862 26.2987 130.054 26.384C130.257 26.4587 130.358 26.5653 130.358 26.704C130.358 26.8107 130.348 26.928 130.326 27.056C130.316 27.184 130.31 27.3387 130.31 27.52C130.524 27.168 130.828 26.864 131.222 26.608C131.617 26.352 132.092 26.224 132.646 26.224C132.966 26.224 133.265 26.2773 133.542 26.384C133.82 26.4907 134.044 26.6187 134.214 26.768C134.396 26.9173 134.486 27.056 134.486 27.184C134.486 27.3547 134.422 27.536 134.294 27.728C134.177 27.92 134.049 28.016 133.91 28.016C133.825 28.016 133.75 27.9627 133.686 27.856C133.58 27.6533 133.409 27.504 133.174 27.408C132.95 27.312 132.758 27.264 132.598 27.264C132.15 27.264 131.734 27.4027 131.35 27.68C130.977 27.9573 130.7 28.384 130.518 28.96C130.444 29.1947 130.39 29.456 130.358 29.744C130.326 30.032 130.305 30.3787 130.294 30.784C130.294 31.1893 130.294 31.696 130.294 32.304C130.294 32.6347 130.305 32.9547 130.326 33.264C130.358 33.5733 130.374 33.8187 130.374 34C130.374 34.1067 130.268 34.16 130.054 34.16C129.884 34.16 129.697 34.1173 129.494 34.032C129.302 33.9573 129.206 33.8507 129.206 33.712C129.206 33.6267 129.206 33.488 129.206 33.296C129.217 33.0933 129.222 32.896 129.222 32.704C129.233 32.512 129.238 32.3787 129.238 32.304V28.128ZM148.203 26.688C148.171 26.88 148.128 27.2853 148.075 27.904C148.032 28.5227 148.011 29.2907 148.011 30.208C148.011 30.2933 148.011 30.464 148.011 30.72C148.022 30.9653 148.043 31.2533 148.075 31.584C148.118 31.9147 148.182 32.2453 148.267 32.576C148.352 32.9067 148.47 33.1947 148.619 33.44C148.63 33.4613 148.635 33.4933 148.635 33.536C148.635 33.6533 148.56 33.7973 148.411 33.968C148.272 34.128 148.112 34.208 147.931 34.208C147.792 34.208 147.675 34.1387 147.579 34C147.483 33.8507 147.403 33.664 147.339 33.44C147.275 33.216 147.222 32.992 147.179 32.768C147.147 32.5333 147.126 32.336 147.115 32.176C146.827 32.7627 146.411 33.264 145.867 33.68C145.334 34.0853 144.736 34.288 144.075 34.288C143.456 34.288 142.971 34.144 142.619 33.856C142.278 33.568 142.032 33.1947 141.883 32.736C141.744 32.2773 141.675 31.7867 141.675 31.264V28.112C141.675 28.048 141.67 27.904 141.659 27.68C141.648 27.456 141.638 27.2213 141.627 26.976C141.627 26.72 141.627 26.5333 141.627 26.416C141.627 26.3093 141.734 26.256 141.947 26.256C142.118 26.256 142.299 26.2987 142.491 26.384C142.694 26.4587 142.795 26.5653 142.795 26.704C142.795 26.7893 142.79 26.9227 142.779 27.104C142.779 27.2747 142.774 27.456 142.763 27.648C142.763 27.8293 142.763 27.984 142.763 28.112V31.2C142.763 31.8187 142.875 32.3307 143.099 32.736C143.323 33.1307 143.648 33.328 144.075 33.328C144.512 33.328 144.944 33.152 145.371 32.8C145.808 32.448 146.176 31.9627 146.475 31.344C146.784 30.7147 146.96 29.9947 147.003 29.184C147.014 29.0133 147.019 28.7947 147.019 28.528C147.019 28.2507 147.019 27.968 147.019 27.68V26.4C147.019 26.2933 147.131 26.24 147.355 26.24C147.536 26.24 147.723 26.2773 147.915 26.352C148.107 26.4267 148.203 26.528 148.203 26.656V26.688ZM156.489 33.728C156.499 33.6427 156.505 33.4987 156.505 33.296C156.505 33.0933 156.505 32.8853 156.505 32.672C156.515 32.448 156.521 32.2773 156.521 32.16V29.312C156.521 28.6827 156.435 28.1813 156.265 27.808C156.094 27.424 155.742 27.232 155.209 27.232C154.846 27.232 154.478 27.3013 154.105 27.44C153.742 27.5787 153.411 27.808 153.113 28.128C152.814 28.448 152.585 28.8747 152.425 29.408C152.35 29.6747 152.291 29.9893 152.249 30.352C152.217 30.704 152.195 31.056 152.185 31.408C152.185 31.76 152.179 32.064 152.169 32.32V32.576C152.169 32.832 152.174 33.0827 152.185 33.328C152.195 33.5733 152.206 33.8027 152.217 34.016C152.217 34.1227 152.115 34.176 151.913 34.176C151.742 34.176 151.561 34.1333 151.369 34.048C151.177 33.9733 151.081 33.8667 151.081 33.728C151.081 33.6427 151.081 33.488 151.081 33.264C151.091 33.04 151.097 32.8213 151.097 32.608C151.107 32.384 151.113 32.2347 151.113 32.16V28.176C151.113 28.0693 151.107 27.904 151.097 27.68C151.086 27.456 151.075 27.2267 151.065 26.992C151.065 26.7573 151.065 26.5813 151.065 26.464C151.065 26.3573 151.166 26.304 151.369 26.304C151.539 26.304 151.721 26.3467 151.913 26.432C152.105 26.5067 152.201 26.6133 152.201 26.752C152.201 26.752 152.195 26.8267 152.185 26.976C152.185 27.1253 152.179 27.296 152.169 27.488C152.169 27.68 152.169 27.8453 152.169 27.984C152.51 27.4187 152.953 26.9867 153.497 26.688C154.051 26.3893 154.622 26.24 155.209 26.24C155.721 26.24 156.131 26.336 156.441 26.528C156.761 26.7093 157.001 26.9493 157.161 27.248C157.331 27.5467 157.443 27.872 157.497 28.224C157.55 28.576 157.577 28.9173 157.577 29.248V32.32C157.577 32.384 157.582 32.528 157.593 32.752C157.603 32.976 157.609 33.2107 157.609 33.456C157.619 33.7013 157.625 33.888 157.625 34.016C157.625 34.1227 157.523 34.176 157.321 34.176C157.15 34.176 156.969 34.1333 156.777 34.048C156.585 33.9733 156.489 33.872 156.489 33.744V33.728ZM161.079 30.864V31.024C161.079 31.7173 161.255 32.2773 161.607 32.704C161.97 33.1307 162.418 33.344 162.951 33.344C163.634 33.344 164.258 33.2373 164.823 33.024C165.399 32.8 165.9 32.4587 166.327 32C166.402 31.9147 166.471 31.856 166.535 31.824C166.599 31.7813 166.652 31.76 166.695 31.76C166.802 31.76 166.855 31.824 166.855 31.952C166.855 32.048 166.775 32.2187 166.615 32.464C166.466 32.7093 166.231 32.976 165.911 33.264C165.591 33.5413 165.186 33.7813 164.695 33.984C164.204 34.1867 163.623 34.288 162.951 34.288C162.407 34.288 161.911 34.1547 161.463 33.888C161.026 33.6107 160.679 33.216 160.423 32.704C160.167 32.192 160.039 31.584 160.039 30.88V30.656C159.943 30.5813 159.863 30.496 159.799 30.4C159.735 30.304 159.703 30.2187 159.703 30.144C159.703 30.0053 159.804 29.936 160.007 29.936C160.018 29.936 160.039 29.936 160.071 29.936C160.114 29.9253 160.14 29.92 160.151 29.92C160.226 29.536 160.375 29.1307 160.599 28.704C160.834 28.2773 161.127 27.8773 161.479 27.504C161.831 27.12 162.231 26.8107 162.679 26.576C163.138 26.3413 163.628 26.224 164.151 26.224C164.812 26.224 165.335 26.3413 165.719 26.576C166.114 26.8 166.391 27.0933 166.551 27.456C166.722 27.808 166.807 28.176 166.807 28.56C166.807 28.9227 166.775 29.2107 166.711 29.424C166.658 29.6373 166.524 29.8133 166.311 29.952C166.098 30.08 165.751 30.2187 165.271 30.368C164.791 30.5173 164.215 30.64 163.543 30.736C162.882 30.8213 162.13 30.864 161.287 30.864H161.079ZM161.527 29.968C162.316 29.968 162.978 29.9253 163.511 29.84C164.044 29.744 164.487 29.648 164.839 29.552C165.223 29.4347 165.468 29.3067 165.575 29.168C165.692 29.0293 165.751 28.8213 165.751 28.544C165.751 27.616 165.212 27.152 164.135 27.152C163.74 27.152 163.378 27.2427 163.047 27.424C162.716 27.6053 162.423 27.84 162.167 28.128C161.922 28.416 161.714 28.7253 161.543 29.056C161.383 29.376 161.271 29.68 161.207 29.968H161.527ZM81.7777 47.728C81.7884 47.6427 81.7937 47.4987 81.7937 47.296C81.7937 47.0933 81.7937 46.8853 81.7937 46.672C81.8044 46.448 81.8097 46.2773 81.8097 46.16V43.312C81.8097 42.6827 81.7244 42.1813 81.5537 41.808C81.383 41.424 81.031 41.232 80.4977 41.232C80.135 41.232 79.767 41.3013 79.3937 41.44C79.031 41.5787 78.7004 41.808 78.4017 42.128C78.103 42.448 77.8737 42.8747 77.7137 43.408C77.639 43.6747 77.5804 43.9893 77.5377 44.352C77.5057 44.704 77.4844 45.056 77.4737 45.408C77.4737 45.76 77.4684 46.064 77.4577 46.32V46.576C77.4577 46.832 77.463 47.0827 77.4737 47.328C77.4844 47.5733 77.495 47.8027 77.5057 48.016C77.5057 48.1227 77.4044 48.176 77.2017 48.176C77.031 48.176 76.8497 48.1333 76.6577 48.048C76.4657 47.9733 76.3697 47.8667 76.3697 47.728C76.3697 47.6427 76.3697 47.488 76.3697 47.264C76.3804 47.04 76.3857 46.8213 76.3857 46.608C76.3964 46.384 76.4017 46.2347 76.4017 46.16V42.176C76.4017 42.0693 76.3964 41.904 76.3857 41.68C76.375 41.456 76.3644 41.2267 76.3537 40.992C76.3537 40.7573 76.3537 40.5813 76.3537 40.464C76.3537 40.3573 76.455 40.304 76.6577 40.304C76.8284 40.304 77.0097 40.3467 77.2017 40.432C77.3937 40.5067 77.4897 40.6133 77.4897 40.752C77.4897 40.752 77.4844 40.8267 77.4737 40.976C77.4737 41.1253 77.4684 41.296 77.4577 41.488C77.4577 41.68 77.4577 41.8453 77.4577 41.984C77.799 41.4187 78.2417 40.9867 78.7857 40.688C79.3404 40.3893 79.911 40.24 80.4977 40.24C81.0097 40.24 81.4204 40.336 81.7297 40.528C82.0497 40.7093 82.2897 40.9493 82.4497 41.248C82.6204 41.5467 82.7324 41.872 82.7857 42.224C82.839 42.576 82.8657 42.9173 82.8657 43.248V46.32C82.8657 46.384 82.871 46.528 82.8817 46.752C82.8924 46.976 82.8977 47.2107 82.8977 47.456C82.9084 47.7013 82.9137 47.888 82.9137 48.016C82.9137 48.1227 82.8124 48.176 82.6097 48.176C82.439 48.176 82.2577 48.1333 82.0657 48.048C81.8737 47.9733 81.7777 47.872 81.7777 47.744V47.728ZM87.4399 40.88C87.6533 40.72 87.9093 40.5707 88.2079 40.432C88.5066 40.2933 88.8799 40.224 89.3279 40.224C89.9359 40.224 90.4746 40.3787 90.9439 40.688C91.4133 40.9973 91.7759 41.44 92.0319 42.016C92.2986 42.5813 92.4319 43.2693 92.4319 44.08C92.4319 44.592 92.3466 45.0987 92.1759 45.6C92.0159 46.0907 91.7706 46.544 91.4399 46.96C91.1199 47.3653 90.7199 47.6907 90.2399 47.936C89.7706 48.1707 89.2266 48.288 88.6079 48.288C87.5413 48.288 86.7093 47.968 86.1119 47.328C85.5253 46.6773 85.2319 45.7973 85.2319 44.688C85.2319 44.2187 85.3066 43.7547 85.4559 43.296C85.6159 42.8267 85.8026 42.4 86.0159 42.016C86.2399 41.632 86.4586 41.3227 86.6719 41.088C86.8853 40.8533 87.0506 40.736 87.1679 40.736C87.2746 40.736 87.3653 40.784 87.4399 40.88ZM88.6079 47.312C89.1306 47.312 89.5946 47.1733 89.9999 46.896C90.4159 46.608 90.7466 46.2187 90.9919 45.728C91.2373 45.2373 91.3599 44.688 91.3599 44.08C91.3599 43.1947 91.1839 42.4907 90.8319 41.968C90.4906 41.4453 89.9573 41.184 89.2319 41.184C88.8053 41.184 88.4106 41.2853 88.0479 41.488C87.6959 41.6907 87.3866 41.9627 87.1199 42.304C86.8639 42.6453 86.6613 43.024 86.5119 43.44C86.3733 43.8453 86.3039 44.256 86.3039 44.672C86.3039 45.5467 86.5013 46.208 86.8959 46.656C87.3013 47.0933 87.8719 47.312 88.6079 47.312ZM101.32 40.688C101.288 40.88 101.246 41.2853 101.192 41.904C101.15 42.5227 101.128 43.2907 101.128 44.208C101.128 44.2933 101.128 44.464 101.128 44.72C101.139 44.9653 101.16 45.2533 101.192 45.584C101.235 45.9147 101.299 46.2453 101.384 46.576C101.47 46.9067 101.587 47.1947 101.736 47.44C101.747 47.4613 101.752 47.4933 101.752 47.536C101.752 47.6533 101.678 47.7973 101.528 47.968C101.39 48.128 101.23 48.208 101.048 48.208C100.91 48.208 100.792 48.1387 100.696 48C100.6 47.8507 100.52 47.664 100.456 47.44C100.392 47.216 100.339 46.992 100.296 46.768C100.264 46.5333 100.243 46.336 100.232 46.176C99.9443 46.7627 99.5283 47.264 98.9843 47.68C98.451 48.0853 97.8536 48.288 97.1923 48.288C96.5736 48.288 96.0883 48.144 95.7363 47.856C95.395 47.568 95.1496 47.1947 95.0003 46.736C94.8616 46.2773 94.7923 45.7867 94.7923 45.264V42.112C94.7923 42.048 94.787 41.904 94.7763 41.68C94.7656 41.456 94.755 41.2213 94.7443 40.976C94.7443 40.72 94.7443 40.5333 94.7443 40.416C94.7443 40.3093 94.851 40.256 95.0643 40.256C95.235 40.256 95.4163 40.2987 95.6083 40.384C95.811 40.4587 95.9123 40.5653 95.9123 40.704C95.9123 40.7893 95.907 40.9227 95.8963 41.104C95.8963 41.2747 95.891 41.456 95.8803 41.648C95.8803 41.8293 95.8803 41.984 95.8803 42.112V45.2C95.8803 45.8187 95.9923 46.3307 96.2163 46.736C96.4403 47.1307 96.7656 47.328 97.1923 47.328C97.6296 47.328 98.0616 47.152 98.4883 46.8C98.9256 46.448 99.2936 45.9627 99.5923 45.344C99.9016 44.7147 100.078 43.9947 100.12 43.184C100.131 43.0133 100.136 42.7947 100.136 42.528C100.136 42.2507 100.136 41.968 100.136 41.68V40.4C100.136 40.2933 100.248 40.24 100.472 40.24C100.654 40.24 100.84 40.2773 101.032 40.352C101.224 40.4267 101.32 40.528 101.32 40.656V40.688ZM108.646 41.52C108.72 41.3387 108.784 41.1573 108.838 40.976C108.902 40.784 108.96 40.5867 109.014 40.384C109.046 40.2773 109.152 40.224 109.334 40.224C109.515 40.224 109.702 40.272 109.894 40.368C110.096 40.4533 110.198 40.56 110.198 40.688C110.198 40.7093 110.187 40.7413 110.166 40.784C110.091 40.9227 110 41.0987 109.894 41.312C109.787 41.5147 109.707 41.6853 109.654 41.824L107.478 46.96C107.414 47.1093 107.35 47.2693 107.286 47.44C107.232 47.6 107.179 47.76 107.126 47.92C107.051 48.1653 106.918 48.288 106.726 48.288C106.619 48.288 106.507 48.256 106.39 48.192C106.283 48.128 106.198 48.0587 106.134 47.984C106.048 47.8987 105.99 47.808 105.958 47.712C105.926 47.616 105.867 47.4667 105.782 47.264L103.734 41.776C103.67 41.5947 103.595 41.4187 103.51 41.248C103.424 41.0667 103.334 40.8747 103.238 40.672C103.227 40.6507 103.222 40.624 103.222 40.592C103.222 40.496 103.291 40.4267 103.43 40.384C103.579 40.3307 103.734 40.304 103.894 40.304C104.032 40.304 104.155 40.32 104.262 40.352C104.379 40.384 104.448 40.4427 104.47 40.528C104.502 40.6453 104.539 40.8 104.582 40.992C104.635 41.1733 104.694 41.3493 104.758 41.52L106.566 46.56L108.646 41.52ZM112.634 44.864V45.024C112.634 45.7173 112.81 46.2773 113.162 46.704C113.524 47.1307 113.972 47.344 114.506 47.344C115.188 47.344 115.812 47.2373 116.378 47.024C116.954 46.8 117.455 46.4587 117.882 46C117.956 45.9147 118.026 45.856 118.09 45.824C118.154 45.7813 118.207 45.76 118.25 45.76C118.356 45.76 118.41 45.824 118.41 45.952C118.41 46.048 118.33 46.2187 118.17 46.464C118.02 46.7093 117.786 46.976 117.466 47.264C117.146 47.5413 116.74 47.7813 116.25 47.984C115.759 48.1867 115.178 48.288 114.506 48.288C113.962 48.288 113.466 48.1547 113.018 47.888C112.58 47.6107 112.234 47.216 111.978 46.704C111.722 46.192 111.594 45.584 111.594 44.88V44.656C111.498 44.5813 111.418 44.496 111.354 44.4C111.29 44.304 111.258 44.2187 111.258 44.144C111.258 44.0053 111.359 43.936 111.562 43.936C111.572 43.936 111.594 43.936 111.626 43.936C111.668 43.9253 111.695 43.92 111.706 43.92C111.78 43.536 111.93 43.1307 112.154 42.704C112.388 42.2773 112.682 41.8773 113.034 41.504C113.386 41.12 113.786 40.8107 114.234 40.576C114.692 40.3413 115.183 40.224 115.706 40.224C116.367 40.224 116.89 40.3413 117.274 40.576C117.668 40.8 117.946 41.0933 118.106 41.456C118.276 41.808 118.362 42.176 118.362 42.56C118.362 42.9227 118.33 43.2107 118.266 43.424C118.212 43.6373 118.079 43.8133 117.866 43.952C117.652 44.08 117.306 44.2187 116.826 44.368C116.346 44.5173 115.77 44.64 115.098 44.736C114.436 44.8213 113.684 44.864 112.842 44.864H112.634ZM113.082 43.968C113.871 43.968 114.532 43.9253 115.066 43.84C115.599 43.744 116.042 43.648 116.394 43.552C116.778 43.4347 117.023 43.3067 117.13 43.168C117.247 43.0293 117.306 42.8213 117.306 42.544C117.306 41.616 116.767 41.152 115.69 41.152C115.295 41.152 114.932 41.2427 114.602 41.424C114.271 41.6053 113.978 41.84 113.722 42.128C113.476 42.416 113.268 42.7253 113.098 43.056C112.938 43.376 112.826 43.68 112.762 43.968H113.082ZM120.841 38.56C120.841 38.4533 120.836 38.288 120.825 38.064C120.814 37.84 120.804 37.6107 120.793 37.376C120.793 37.1413 120.793 36.9653 120.793 36.848C120.793 36.7947 120.825 36.7573 120.889 36.736C120.953 36.704 121.028 36.688 121.113 36.688C121.294 36.688 121.481 36.7307 121.673 36.816C121.876 36.8907 121.977 36.9973 121.977 37.136C121.977 37.2213 121.972 37.3547 121.961 37.536C121.961 37.7067 121.956 37.888 121.945 38.08C121.945 38.272 121.945 38.432 121.945 38.56V46.32C121.945 46.384 121.95 46.528 121.961 46.752C121.972 46.976 121.977 47.2107 121.977 47.456C121.988 47.7013 121.993 47.888 121.993 48.016C121.993 48.0693 121.961 48.1067 121.897 48.128C121.833 48.16 121.758 48.176 121.673 48.176C121.502 48.176 121.316 48.1333 121.113 48.048C120.91 47.9733 120.809 47.8667 120.809 47.728C120.809 47.6427 120.809 47.504 120.809 47.312C120.82 47.1093 120.825 46.912 120.825 46.72C120.836 46.528 120.841 46.3947 120.841 46.32V38.56ZM125.044 38.56C125.044 38.4533 125.039 38.288 125.028 38.064C125.018 37.84 125.007 37.6107 124.996 37.376C124.996 37.1413 124.996 36.9653 124.996 36.848C124.996 36.7947 125.028 36.7573 125.092 36.736C125.156 36.704 125.231 36.688 125.316 36.688C125.498 36.688 125.684 36.7307 125.876 36.816C126.079 36.8907 126.18 36.9973 126.18 37.136C126.18 37.2213 126.175 37.3547 126.164 37.536C126.164 37.7067 126.159 37.888 126.148 38.08C126.148 38.272 126.148 38.432 126.148 38.56V46.32C126.148 46.384 126.154 46.528 126.164 46.752C126.175 46.976 126.18 47.2107 126.18 47.456C126.191 47.7013 126.196 47.888 126.196 48.016C126.196 48.0693 126.164 48.1067 126.1 48.128C126.036 48.16 125.962 48.176 125.876 48.176C125.706 48.176 125.519 48.1333 125.316 48.048C125.114 47.9733 125.012 47.8667 125.012 47.728C125.012 47.6427 125.012 47.504 125.012 47.312C125.023 47.1093 125.028 46.912 125.028 46.72C125.039 46.528 125.044 46.3947 125.044 46.32V38.56ZM129.727 44.864V45.024C129.727 45.7173 129.903 46.2773 130.255 46.704C130.618 47.1307 131.066 47.344 131.599 47.344C132.282 47.344 132.906 47.2373 133.471 47.024C134.047 46.8 134.549 46.4587 134.975 46C135.05 45.9147 135.119 45.856 135.183 45.824C135.247 45.7813 135.301 45.76 135.343 45.76C135.45 45.76 135.503 45.824 135.503 45.952C135.503 46.048 135.423 46.2187 135.263 46.464C135.114 46.7093 134.879 46.976 134.559 47.264C134.239 47.5413 133.834 47.7813 133.343 47.984C132.853 48.1867 132.271 48.288 131.599 48.288C131.055 48.288 130.559 48.1547 130.111 47.888C129.674 47.6107 129.327 47.216 129.071 46.704C128.815 46.192 128.687 45.584 128.687 44.88V44.656C128.591 44.5813 128.511 44.496 128.447 44.4C128.383 44.304 128.351 44.2187 128.351 44.144C128.351 44.0053 128.453 43.936 128.655 43.936C128.666 43.936 128.687 43.936 128.719 43.936C128.762 43.9253 128.789 43.92 128.799 43.92C128.874 43.536 129.023 43.1307 129.247 42.704C129.482 42.2773 129.775 41.8773 130.127 41.504C130.479 41.12 130.879 40.8107 131.327 40.576C131.786 40.3413 132.277 40.224 132.799 40.224C133.461 40.224 133.983 40.3413 134.367 40.576C134.762 40.8 135.039 41.0933 135.199 41.456C135.37 41.808 135.455 42.176 135.455 42.56C135.455 42.9227 135.423 43.2107 135.359 43.424C135.306 43.6373 135.173 43.8133 134.959 43.952C134.746 44.08 134.399 44.2187 133.919 44.368C133.439 44.5173 132.863 44.64 132.191 44.736C131.53 44.8213 130.778 44.864 129.935 44.864H129.727ZM130.175 43.968C130.965 43.968 131.626 43.9253 132.159 43.84C132.693 43.744 133.135 43.648 133.487 43.552C133.871 43.4347 134.117 43.3067 134.223 43.168C134.341 43.0293 134.399 42.8213 134.399 42.544C134.399 41.616 133.861 41.152 132.783 41.152C132.389 41.152 132.026 41.2427 131.695 41.424C131.365 41.6053 131.071 41.84 130.815 42.128C130.57 42.416 130.362 42.7253 130.191 43.056C130.031 43.376 129.919 43.68 129.855 43.968H130.175ZM149.753 45.712C149.753 45.776 149.678 45.9467 149.529 46.224C149.379 46.4907 149.15 46.784 148.841 47.104C148.531 47.424 148.137 47.7013 147.657 47.936C147.187 48.1707 146.627 48.288 145.977 48.288C145.422 48.288 144.905 48.16 144.425 47.904C143.955 47.6373 143.577 47.2533 143.289 46.752C143.011 46.24 142.873 45.6213 142.873 44.896C142.873 44.256 142.99 43.6533 143.225 43.088C143.47 42.5227 143.79 42.0267 144.185 41.6C144.579 41.1733 145.022 40.8373 145.513 40.592C146.003 40.3467 146.494 40.224 146.985 40.224C147.422 40.224 147.79 40.288 148.089 40.416C148.387 40.5333 148.622 40.6773 148.793 40.848C148.974 41.0187 149.102 41.1787 149.177 41.328C149.262 41.4667 149.305 41.552 149.305 41.584C149.305 41.7547 149.225 41.92 149.065 42.08C148.905 42.24 148.761 42.32 148.633 42.32C148.569 42.32 148.521 42.2933 148.489 42.24C148.414 42.0907 148.339 41.9467 148.265 41.808C148.19 41.6693 148.094 41.5627 147.977 41.488C147.667 41.2747 147.347 41.168 147.017 41.168C146.686 41.168 146.339 41.264 145.977 41.456C145.625 41.648 145.294 41.9147 144.985 42.256C144.686 42.5867 144.441 42.9707 144.249 43.408C144.057 43.8453 143.961 44.3147 143.961 44.816C143.961 45.3707 144.062 45.84 144.265 46.224C144.478 46.5973 144.739 46.88 145.049 47.072C145.358 47.264 145.667 47.36 145.977 47.36C146.435 47.36 146.862 47.28 147.257 47.12C147.651 46.96 148.014 46.7573 148.345 46.512C148.686 46.256 148.979 46.0053 149.225 45.76C149.385 45.6 149.513 45.52 149.609 45.52C149.705 45.52 149.753 45.584 149.753 45.712ZM157.309 47.728C157.32 47.6427 157.325 47.4987 157.325 47.296C157.325 47.0933 157.325 46.8853 157.325 46.672C157.336 46.448 157.341 46.2773 157.341 46.16V43.312C157.341 42.6827 157.256 42.1813 157.085 41.808C156.914 41.424 156.562 41.232 156.029 41.232C155.666 41.232 155.298 41.3013 154.925 41.44C154.562 41.5787 154.232 41.808 153.933 42.128C153.634 42.448 153.405 42.8747 153.245 43.408C153.17 43.6747 153.112 43.9893 153.069 44.352C153.037 44.704 153.016 45.056 153.005 45.408C153.005 45.76 153 46.064 152.989 46.32V46.576C152.989 46.832 152.994 47.0827 153.005 47.328C153.016 47.5733 153.026 47.8027 153.037 48.016C153.037 48.1227 152.936 48.176 152.733 48.176C152.562 48.176 152.381 48.1333 152.189 48.048C151.997 47.9733 151.901 47.8667 151.901 47.728C151.901 47.6427 151.901 47.488 151.901 47.264C151.912 47.04 151.917 46.8213 151.917 46.608C151.928 46.384 151.933 46.2347 151.933 46.16V38.56C151.933 38.4533 151.928 38.288 151.917 38.064C151.906 37.84 151.896 37.6107 151.885 37.376C151.885 37.1413 151.885 36.9653 151.885 36.848C151.885 36.7413 151.986 36.688 152.189 36.688C152.36 36.688 152.541 36.7307 152.733 36.816C152.925 36.8907 153.021 36.9973 153.021 37.136C153.021 37.2213 153.016 37.3653 153.005 37.568C153.005 37.7707 153 37.984 152.989 38.208C152.989 38.4213 152.989 38.592 152.989 38.72V41.984C153.33 41.4187 153.773 40.9867 154.317 40.688C154.872 40.3893 155.442 40.24 156.029 40.24C156.541 40.24 156.952 40.336 157.261 40.528C157.581 40.7093 157.821 40.9493 157.981 41.248C158.152 41.5467 158.264 41.872 158.317 42.224C158.37 42.576 158.397 42.9173 158.397 43.248V46.32C158.397 46.384 158.402 46.528 158.413 46.752C158.424 46.976 158.429 47.2107 158.429 47.456C158.44 47.7013 158.445 47.888 158.445 48.016C158.445 48.1227 158.344 48.176 158.141 48.176C157.97 48.176 157.789 48.1333 157.597 48.048C157.405 47.9733 157.309 47.872 157.309 47.744V47.728ZM167.691 40.688C167.659 40.9227 167.627 41.2373 167.595 41.632C167.574 42.016 167.553 42.4267 167.531 42.864C167.521 43.2907 167.51 43.6907 167.499 44.064C167.489 44.4373 167.483 44.72 167.483 44.912C167.483 45.0613 167.489 45.2853 167.499 45.584C167.521 45.872 167.569 46.1813 167.643 46.512C167.729 46.8427 167.862 47.152 168.043 47.44C168.065 47.4827 168.075 47.5147 168.075 47.536C168.075 47.6533 168.001 47.7973 167.851 47.968C167.713 48.128 167.553 48.208 167.371 48.208C167.211 48.208 167.067 48.096 166.939 47.872C166.822 47.6373 166.726 47.36 166.651 47.04C166.587 46.7093 166.539 46.4 166.507 46.112C166.113 46.8587 165.633 47.408 165.067 47.76C164.513 48.112 163.937 48.288 163.339 48.288C162.561 48.288 161.937 48.0267 161.467 47.504C160.998 46.9707 160.763 46.2027 160.763 45.2C160.763 44.5173 160.875 43.8773 161.099 43.28C161.323 42.6827 161.622 42.1547 161.995 41.696C162.379 41.2373 162.806 40.88 163.275 40.624C163.745 40.3573 164.225 40.224 164.715 40.224C165.089 40.224 165.43 40.3093 165.739 40.48C166.049 40.64 166.294 40.9067 166.475 41.28V40.4C166.475 40.2933 166.587 40.24 166.811 40.24C166.993 40.24 167.185 40.2773 167.387 40.352C167.59 40.4267 167.691 40.528 167.691 40.656V40.688ZM166.459 41.92C166.363 42.016 166.273 42.064 166.187 42.064C166.145 42.064 166.107 42.0427 166.075 42C165.894 41.6907 165.681 41.472 165.435 41.344C165.201 41.216 164.961 41.152 164.715 41.152C164.385 41.152 164.049 41.2533 163.707 41.456C163.377 41.648 163.067 41.9253 162.779 42.288C162.502 42.64 162.278 43.0613 162.107 43.552C161.937 44.032 161.851 44.5547 161.851 45.12C161.851 45.9307 161.99 46.5013 162.267 46.832C162.545 47.1627 162.897 47.328 163.323 47.328C163.835 47.328 164.321 47.1627 164.779 46.832C165.238 46.4907 165.617 46.0213 165.915 45.424C166.225 44.8267 166.395 44.1333 166.427 43.344C166.438 43.1947 166.443 42.9867 166.443 42.72C166.443 42.4533 166.449 42.1867 166.459 41.92ZM172.19 44.128C171.593 43.9893 171.145 43.776 170.846 43.488C170.548 43.1893 170.398 42.7947 170.398 42.304C170.398 41.888 170.532 41.5253 170.798 41.216C171.065 40.9067 171.422 40.6667 171.87 40.496C172.318 40.3147 172.804 40.224 173.326 40.224C173.945 40.224 174.452 40.3147 174.846 40.496C175.241 40.6667 175.588 40.912 175.886 41.232C175.908 41.2533 175.918 41.3013 175.918 41.376C175.918 41.5147 175.86 41.6693 175.742 41.84C175.636 42.0107 175.524 42.096 175.406 42.096C175.342 42.096 175.257 42.0267 175.15 41.888C174.99 41.6427 174.788 41.4667 174.542 41.36C174.308 41.2427 174.078 41.1733 173.854 41.152C173.63 41.12 173.454 41.104 173.326 41.104C172.708 41.104 172.238 41.2267 171.918 41.472C171.598 41.7067 171.438 41.9947 171.438 42.336C171.438 42.5493 171.508 42.7307 171.646 42.88C171.796 43.0293 172.089 43.1573 172.526 43.264L174.062 43.632C174.756 43.792 175.3 44.0533 175.694 44.416C176.1 44.7787 176.302 45.2907 176.302 45.952C176.302 46.3787 176.174 46.768 175.918 47.12C175.673 47.472 175.321 47.7547 174.862 47.968C174.404 48.1813 173.86 48.288 173.23 48.288C172.612 48.288 172.094 48.2133 171.678 48.064C171.273 47.9147 170.948 47.7387 170.702 47.536C170.457 47.3333 170.281 47.1467 170.174 46.976C170.068 46.8053 170.014 46.6933 170.014 46.64C170.014 46.48 170.089 46.3147 170.238 46.144C170.398 45.9627 170.537 45.872 170.654 45.872C170.729 45.872 170.782 45.9093 170.814 45.984C170.9 46.1973 171.017 46.4107 171.166 46.624C171.326 46.8373 171.566 47.0133 171.886 47.152C172.206 47.2907 172.654 47.36 173.23 47.36C173.881 47.36 174.377 47.2213 174.718 46.944C175.07 46.6667 175.246 46.3467 175.246 45.984C175.246 45.6107 175.15 45.3067 174.958 45.072C174.766 44.8373 174.377 44.6507 173.79 44.512L172.19 44.128ZM180.347 44.128C179.749 43.9893 179.301 43.776 179.003 43.488C178.704 43.1893 178.555 42.7947 178.555 42.304C178.555 41.888 178.688 41.5253 178.955 41.216C179.221 40.9067 179.579 40.6667 180.027 40.496C180.475 40.3147 180.96 40.224 181.483 40.224C182.101 40.224 182.608 40.3147 183.003 40.496C183.397 40.6667 183.744 40.912 184.043 41.232C184.064 41.2533 184.075 41.3013 184.075 41.376C184.075 41.5147 184.016 41.6693 183.899 41.84C183.792 42.0107 183.68 42.096 183.563 42.096C183.499 42.096 183.413 42.0267 183.307 41.888C183.147 41.6427 182.944 41.4667 182.699 41.36C182.464 41.2427 182.235 41.1733 182.011 41.152C181.787 41.12 181.611 41.104 181.483 41.104C180.864 41.104 180.395 41.2267 180.075 41.472C179.755 41.7067 179.595 41.9947 179.595 42.336C179.595 42.5493 179.664 42.7307 179.803 42.88C179.952 43.0293 180.245 43.1573 180.683 43.264L182.219 43.632C182.912 43.792 183.456 44.0533 183.851 44.416C184.256 44.7787 184.459 45.2907 184.459 45.952C184.459 46.3787 184.331 46.768 184.075 47.12C183.829 47.472 183.477 47.7547 183.019 47.968C182.56 48.1813 182.016 48.288 181.387 48.288C180.768 48.288 180.251 48.2133 179.835 48.064C179.429 47.9147 179.104 47.7387 178.859 47.536C178.613 47.3333 178.437 47.1467 178.331 46.976C178.224 46.8053 178.171 46.6933 178.171 46.64C178.171 46.48 178.245 46.3147 178.395 46.144C178.555 45.9627 178.693 45.872 178.811 45.872C178.885 45.872 178.939 45.9093 178.971 45.984C179.056 46.1973 179.173 46.4107 179.323 46.624C179.483 46.8373 179.723 47.0133 180.043 47.152C180.363 47.2907 180.811 47.36 181.387 47.36C182.037 47.36 182.533 47.2213 182.875 46.944C183.227 46.6667 183.403 46.3467 183.403 45.984C183.403 45.6107 183.307 45.3067 183.115 45.072C182.923 44.8373 182.533 44.6507 181.947 44.512L180.347 44.128ZM187.415 44.864V45.024C187.415 45.7173 187.591 46.2773 187.943 46.704C188.305 47.1307 188.753 47.344 189.287 47.344C189.969 47.344 190.593 47.2373 191.159 47.024C191.735 46.8 192.236 46.4587 192.663 46C192.737 45.9147 192.807 45.856 192.871 45.824C192.935 45.7813 192.988 45.76 193.031 45.76C193.137 45.76 193.191 45.824 193.191 45.952C193.191 46.048 193.111 46.2187 192.951 46.464C192.801 46.7093 192.567 46.976 192.247 47.264C191.927 47.5413 191.521 47.7813 191.031 47.984C190.54 48.1867 189.959 48.288 189.287 48.288C188.743 48.288 188.247 48.1547 187.799 47.888C187.361 47.6107 187.015 47.216 186.759 46.704C186.503 46.192 186.375 45.584 186.375 44.88V44.656C186.279 44.5813 186.199 44.496 186.135 44.4C186.071 44.304 186.039 44.2187 186.039 44.144C186.039 44.0053 186.14 43.936 186.343 43.936C186.353 43.936 186.375 43.936 186.407 43.936C186.449 43.9253 186.476 43.92 186.487 43.92C186.561 43.536 186.711 43.1307 186.935 42.704C187.169 42.2773 187.463 41.8773 187.815 41.504C188.167 41.12 188.567 40.8107 189.015 40.576C189.473 40.3413 189.964 40.224 190.487 40.224C191.148 40.224 191.671 40.3413 192.055 40.576C192.449 40.8 192.727 41.0933 192.887 41.456C193.057 41.808 193.143 42.176 193.143 42.56C193.143 42.9227 193.111 43.2107 193.047 43.424C192.993 43.6373 192.86 43.8133 192.647 43.952C192.433 44.08 192.087 44.2187 191.607 44.368C191.127 44.5173 190.551 44.64 189.879 44.736C189.217 44.8213 188.465 44.864 187.623 44.864H187.415ZM187.863 43.968C188.652 43.968 189.313 43.9253 189.847 43.84C190.38 43.744 190.823 43.648 191.175 43.552C191.559 43.4347 191.804 43.3067 191.911 43.168C192.028 43.0293 192.087 42.8213 192.087 42.544C192.087 41.616 191.548 41.152 190.471 41.152C190.076 41.152 189.713 41.2427 189.383 41.424C189.052 41.6053 188.759 41.84 188.503 42.128C188.257 42.416 188.049 42.7253 187.879 43.056C187.719 43.376 187.607 43.68 187.543 43.968H187.863Z" fill="black"/>
</svg>
