<svg width="158" height="145" viewBox="0 0 158 145" fill="none" xmlns="http://www.w3.org/2000/svg">
<path d="M108.52 56.196C108.52 71.0897 95.3515 83.235 79.0147 83.235C62.678 83.235 49.509 71.0897 49.509 56.196C49.509 41.3023 62.678 29.157 79.0147 29.157C95.3515 29.157 108.52 41.3023 108.52 56.196Z" fill="#8FBEB0" stroke="#5B9097"/>
<path d="M79.0145 100.758C100.39 100.758 119.118 111.091 129.609 126.587C116.034 137.325 98.3543 143.821 79.0145 143.821C59.6746 143.821 41.9944 137.325 28.4195 126.587C38.911 111.091 57.6394 100.758 79.0145 100.758Z" fill="#8FBEB0" stroke="#5B9097"/>
<path d="M79.0149 99.7585C57.3496 99.7585 38.3291 110.217 27.6372 125.96C11.5976 112.927 1.5 93.9001 1.5 72.7195C1.5 33.4908 36.1634 1.61816 79.0149 1.61816C121.867 1.61816 156.53 33.4908 156.53 72.7195C156.53 93.9001 146.432 112.927 130.392 125.96C119.7 110.217 100.68 99.7585 79.0149 99.7585ZM79.0149 84.2351C95.8215 84.2351 109.521 71.7211 109.521 56.1961C109.521 40.6711 95.8215 28.1571 79.0149 28.1571C62.2083 28.1571 48.5092 40.6711 48.5092 56.1961C48.5092 71.7211 62.2083 84.2351 79.0149 84.2351Z" fill="#5B9097" stroke="#5B9097"/>
<path d="M79.0147 83.735C95.5864 83.735 109.02 71.4053 109.02 56.196C109.02 40.9866 95.5864 28.657 79.0147 28.657C62.4431 28.657 49.009 40.9866 49.009 56.196C49.009 71.4053 62.4431 83.735 79.0147 83.735Z" stroke="#5B9097" stroke-linecap="round" stroke-linejoin="round"/>
<path d="M27.7648 126.696C33.1207 118.627 40.6482 111.958 49.6235 107.331C58.5988 102.704 68.7201 100.273 79.0146 100.273C89.3091 100.273 99.4304 102.704 108.406 107.331C117.381 111.958 124.908 118.627 130.265 126.696" stroke="#5B9097" stroke-linecap="round" stroke-linejoin="round"/>
<path d="M79.0149 144.321C122.102 144.321 157.03 112.264 157.03 72.7195C157.03 33.1752 122.102 1.11816 79.0149 1.11816C35.9285 1.11816 1 33.1752 1 72.7195C1 112.264 35.9285 144.321 79.0149 144.321Z" stroke="#5B9097" stroke-linecap="round" stroke-linejoin="round"/>
</svg>
