<svg width="165" height="167" viewBox="0 0 165 167" fill="none" xmlns="http://www.w3.org/2000/svg">
<path d="M23.5715 119.286L5.89288 161.036H159.107L141.429 119.286H23.5715Z" fill="#8FBEB0"/>
<path d="M135.536 59.6428C135.536 95.4285 82.5 137.179 82.5 137.179C82.5 137.179 29.4643 95.4285 29.4643 59.6428C29.4643 30.4059 53.6132 5.96423 82.5 5.96423C111.387 5.96423 135.536 30.4059 135.536 59.6428Z" fill="#5B9097"/>
<path d="M82.5 77.5357C92.2636 77.5357 100.179 69.5248 100.179 59.6429C100.179 49.7609 92.2636 41.75 82.5 41.75C72.7363 41.75 64.8214 49.7609 64.8214 59.6429C64.8214 69.5248 72.7363 77.5357 82.5 77.5357Z" fill="#8FBEB0"/>
<path d="M135.536 59.6428C135.536 95.4285 82.5 137.179 82.5 137.179C82.5 137.179 29.4643 95.4285 29.4643 59.6428C29.4643 30.4059 53.6132 5.96423 82.5 5.96423C111.387 5.96423 135.536 30.4059 135.536 59.6428Z" stroke="#5B9097" stroke-linecap="round" stroke-linejoin="round"/>
<path d="M82.5 77.5357C92.2636 77.5357 100.179 69.5248 100.179 59.6429C100.179 49.7609 92.2636 41.75 82.5 41.75C72.7363 41.75 64.8214 49.7609 64.8214 59.6429C64.8214 69.5248 72.7363 77.5357 82.5 77.5357Z" stroke="#5B9097" stroke-linecap="round" stroke-linejoin="round"/>
<path d="M130.554 119.286H141.429L159.107 161.036H5.89288L23.5715 119.286H34.4461" stroke="#5B9097" stroke-linecap="round" stroke-linejoin="round"/>
</svg>
