<svg width="177" height="145" viewBox="0 0 177 145" fill="none" xmlns="http://www.w3.org/2000/svg">
<path d="M44.8319 98.7791L88.3304 81.6528L131.823 98.7614L132.006 98.8334L132.189 98.7614L175.184 81.8493V126.682L132.006 143.665L88.5133 126.557L88.3303 126.485L88.1473 126.557L44.6515 143.665L1.4729 126.682V81.9402L44.4664 98.7794L44.6492 98.851L44.8319 98.7791ZM45.1773 19.2622L88.144 36.1626L88.327 36.2346L88.51 36.1626L131.534 19.2396L131.506 63.6856L88.3303 80.5786L45.1517 63.6857L45.1773 19.2622Z" fill="#8FBEB0" stroke="#5B9097"/>
<path d="M45.6024 18.3546L88.3571 1.53753L131.082 18.3431L88.3274 35.16L45.6024 18.3546Z" fill="#5B9097" stroke="#5B9097"/>
<path d="M132.006 97.7587L89.6995 81.1168L132.006 64.564L174.201 81.1615L132.006 97.7587ZM44.6522 64.564L86.9619 81.117L44.6485 97.7766L2.34157 81.2065L44.6522 64.564Z" fill="#5B9097" stroke="#5B9097"/>
<path d="M0.9729 81.1149L44.6515 98.2953L88.3303 81.1149" stroke="#5B9097" stroke-linecap="round" stroke-linejoin="round"/>
<path d="M44.6485 18.5162L88.3271 35.6967L132.006 18.5162" stroke="#5B9097" stroke-linecap="round" stroke-linejoin="round"/>
<path d="M88.3267 81.1149L132.006 98.2953L175.684 81.1149" stroke="#5B9097" stroke-linecap="round" stroke-linejoin="round"/>
<path d="M0.9729 127.022V81.2072L44.6515 64.0266L88.3303 81.2072V127.022L44.6515 144.203L0.9729 127.022Z" stroke="#5B9097" stroke-linecap="round" stroke-linejoin="round"/>
<path d="M44.6782 63.9952V18.1805L88.3569 1L132.035 18.1805V63.9952L88.3569 81.1758L44.6782 63.9952Z" stroke="#5B9097" stroke-linecap="round" stroke-linejoin="round"/>
<path d="M88.3267 127.022V81.2072L132.006 64.0266L175.684 81.2072V127.022L132.006 144.203L88.3267 127.022Z" stroke="#5B9097" stroke-linecap="round" stroke-linejoin="round"/>
<path d="M44.6485 98.3136V144.202" stroke="#5B9097" stroke-linecap="round" stroke-linejoin="round"/>
<path d="M132.034 98.3136V144.202" stroke="#5B9097" stroke-linecap="round" stroke-linejoin="round"/>
<path d="M88.3267 35.6965V81.5842" stroke="#5B9097" stroke-linecap="round" stroke-linejoin="round"/>
</svg>
